<?xml version="1.0" standalone="no"?>
<!DOCTYPE svg PUBLIC "-//W3C//DTD SVG 1.1//EN" "http://www.w3.org/Graphics/SVG/1.1/DTD/svg11.dtd" >
<svg xmlns="http://www.w3.org/2000/svg">
<metadata></metadata>
<defs>
<font id="puritanregular" horiz-adv-x="1396" >
<font-face units-per-em="2048" ascent="1638" descent="-410" />
<missing-glyph horiz-adv-x="1085" />
<glyph horiz-adv-x="682" />
<glyph horiz-adv-x="628" d="M109 1378q-4 -117 79 -200q82 -82 199 -86q113 -2 201 77q84 82 88 197t-80 201q-82 84 -197 88q-117 2 -202 -80q-84 -82 -88 -197zM221 1374q2 70 53.5 119t120.5 49q70 0 119 -52t49 -122q0 -35 -14 -64.5t-38 -52t-55.5 -35t-66.5 -12.5t-65.5 14.5t-54 38t-36 53 t-12.5 64.5z" />
<glyph unicode="&#xd;" horiz-adv-x="516" d="M98 932q0 -33 21.5 -56.5t54.5 -23.5q49 0 59 -37q2 -10 3.5 -43t1.5 -90v-313q0 -111 -2 -133q-6 -129 -7 -125q0 -109 68 -111q27 0 60.5 4t62.5 4q35 0 64 -4l30 -4q31 0 54.5 19.5t23.5 50.5q0 33 -21.5 56.5t-52.5 23.5q-51 0 -59 38q-2 10 -3 44t-1 92v333v109 q6 113 6 125q0 106 -68 110q-14 2 -27.5 1t-29.5 -3q-37 -6 -66 -6q-35 0 -64 4l-30 4q-31 0 -54.5 -19t-23.5 -50z" />
<glyph horiz-adv-x="1050" d="M55 -258q0 -31 19.5 -55.5t48.5 -24.5q18 0 48 4t58 4q23 0 50.5 -2t60.5 -6q137 -8 137 174v944q0 59 47 60h35q51 0 74 47q23 -35 61 -35q51 0 62 -37q2 -10 3 -43t1 -90v-313q0 -111 -2 -133q-6 -139 -6 -130q0 -104 67 -106q25 0 58.5 4t64.5 4q33 0 62 -4l30 -4 q80 0 80 70q0 33 -21.5 56.5t-52.5 23.5q-51 0 -59 38q-6 20 -6 136v333v109q4 57 6 89t2 40q0 104 -70 106q-25 2 -58.5 -3t-63.5 -5q-33 0 -63 4l-30 4q-51 0 -71 -36q-20 39 -68 39h-63q-18 0 -19 26v375q0 84 60 84q-4 0 7 -1t34 -3q86 -6 92 -6q31 0 52 21.5t21 51.5 q0 29 -21.5 50.5t-51.5 21.5q-10 0 -27.5 -1t-37 -3t-40 -3t-35.5 -1q-49 0 -131 12q-135 0 -135 -172v-426q-2 -10 -4 -18t-16 -8h-62q-33 0 -57.5 -25t-24.5 -59q0 -33 23.5 -56.5t58.5 -23.5h33q49 0 49 -60v-893q0 -86 -61 -86q-14 0 -43 6.5t-31 6.5q-29 0 -51.5 -21.5 t-22.5 -50.5zM717 1337q0 -57 42 -98t99 -41t98 39t41 96t-41 100.5t-96 43.5q-57 0 -100 -41t-43 -99z" />
<glyph horiz-adv-x="1050" d="M55 -258q0 -31 19.5 -55.5t48.5 -24.5q18 0 48 4t58 4q23 0 50.5 -2t60.5 -6q137 -8 137 174v944q0 59 47 60h35q35 0 57.5 23.5t22.5 56.5q0 35 -23.5 59.5t-56.5 24.5h-63q-18 0 -19 26v375q0 84 60 84q-4 0 7 -1t34 -3q86 -6 92 -6q8 0 14 2q72 -16 80 -54 q-2 6 -2 -120q-2 -518 -3 -784.5t-1 -286.5q0 -25 -2 -68t-2 -62q0 -106 65 -106q25 0 58.5 4t66.5 4t62 -4l30 -4q31 0 54.5 19.5t23.5 50.5q0 33 -20.5 56.5t-51.5 23.5q-51 0 -59 32q-6 19 -6 142v1067q0 12 1 31.5t1 39.5t1 37t1 27q0 102 -66 102q-25 0 -57.5 -5 t-64.5 -5q-35 0 -64 5l-29 5q-10 0 -26 -4h-4q-10 0 -27.5 -1t-38 -3t-41 -3t-33.5 -1q-49 0 -131 12q-135 0 -135 -172v-426q-2 -10 -4 -18t-16 -8h-62q-33 0 -57.5 -25t-24.5 -59q0 -33 23.5 -56.5t58.5 -23.5h33q49 0 49 -60v-893q0 -86 -61 -86q-14 0 -43 6.5t-31 6.5 q-29 0 -51.5 -21.5t-22.5 -50.5z" />
<glyph horiz-adv-x="1351" d="M51 535q-4 -29 37 -119q12 -27 24.5 -51.5t24.5 -49.5q25 -61 72 -51q31 2 35 41q0 12 -4 29.5t-9.5 34t-9.5 30t-4 19.5q0 12 8 14q4 2 30 13.5t73 31.5v-198q0 -80 9 -135.5t32.5 -87t61.5 -45t93 -11.5q102 4 180 6t136 2q51 0 125.5 -2t177.5 -6h110q88 0 129 23 q49 33 43 120q-4 41 -6 73t-2 54q0 12 6 66q6 57 4 84q-2 43 -32.5 70.5t-73.5 25.5q-41 -2 -68.5 -33.5t-25.5 -72.5q2 -35 3 -54.5t-1 -27.5q-10 -45 -55 -72q-70 -41 -359 -41q-133 0 -178 12q-63 18 -62 303v62q281 135 293 164q8 18 9 45q0 41 -29 102 q-84 172 -135 172q-18 0 -28.5 -13t-10.5 -30q0 -25 20 -67q20 -41 21 -60q0 -20 -33 -33q-10 -4 -35.5 -15t-66.5 -28q4 274 6 419t4 165q4 135 -8 172q-12 43 -66 39q-147 -6 -172 -6q-96 0 -147 6q-41 4 -72 -20.5t-35 -63.5q-4 -41 20.5 -71.5t63.5 -34.5q86 0 96 -7 q57 -31 58 -313v-399q-270 -131 -277 -180z" />
<glyph horiz-adv-x="790" d="M78 557q-2 -25 39 -117q12 -27 24.5 -51t24.5 -51q25 -57 67 -53q29 4 29 39q0 12 -4 30.5t-9 35t-9 29.5t-4 17q0 10 6 15q4 2 26.5 12t63.5 29v-256q0 -12 -1 -30t-1 -38q0 -18 -1 -35.5t-1 -26.5q0 -106 65 -106q25 0 58.5 4t66.5 4t62 -4l30 -4q31 0 54.5 19.5 t23.5 50.5q0 33 -20.5 56.5t-51.5 23.5q-51 0 -59 32q-6 18 -6 142v266q258 123 268 151q6 18 6 39q0 45 -30 107q-78 158 -115 172q-29 8 -43 -12q-6 -10 -6 -23q0 -27 20 -70q23 -49 23 -61q0 -20 -31 -29l-32.5 -13t-59.5 -26v566q0 12 1 31.5t1 39.5t1 37t1 27 q0 102 -66 102q-25 0 -57.5 -5t-64.5 -5q-35 0 -64 5l-29 5q-80 0 -79 -72q0 -31 22.5 -54t52.5 -23q53 0 62 -33q2 -10 3 -45t1 -94l-2 -580q-252 -121 -256 -170z" />
<glyph horiz-adv-x="1335" d="M106 1235q14 -88 84 -90q39 -2 68 23.5t31 62.5q-6 106 14 127q47 53 328 53q59 0 248 -6q68 -4 67 -33q0 -18 -49 -82l-465 -758q-47 -78 -71.5 -118.5t-28.5 -46.5q-76 -137 -76 -220q0 -104 143 -135q57 -12 224 -12h604q111 0 133 18q20 18 20 125q-12 76 -12 140v47 q0 25 2 51q2 29 2 41q0 14 0 12q0 80 -74 80q-98 0 -102 -72q-6 -90 -6 -153q-10 -76 -105 -90q-16 -2 -82.5 -3t-183.5 -1h-184q-29 0 -52.5 13t-17.5 38q0 57 88 196l441 705q150 238 149 338q0 98 -147 129q-63 14 -224 14h-438h-112q-41 0 -52 -2q-119 -12 -139 -63 q-4 -47 -7 -89t-3 -77q-2 -14 -4 -38t-6 -59q-6 -53 -5 -65zM375 2216l250 -373h147l248 373h-82l-242 -248l-235 248h-86z" />
<glyph horiz-adv-x="948" d="M143 713q16 -53 52 -62q41 -10 69 17q23 20 27 71q2 51 37 80q23 16 155 17h78q57 0 74 -25q0 -33 -60 -129q-276 -434 -319 -504q-43 -72 -43 -110q0 -72 152 -68l229 6l233 -6q88 0 117 23q14 14 27 79q6 33 9 58.5t5 46.5q23 109 19 119q2 57 -41 63q-33 8 -51.5 -1 t-29 -25.5t-14.5 -37t-6 -34.5q-23 -70 -37 -84q-31 -35 -84 -39q-121 -6 -143 -6q-66 -1 -76 22q-6 31 17 66l225 344q8 20 43 77.5t94 153.5q29 47 29 84q0 94 -131 92q-139 -6 -250 -6h-60t-65 2q-16 2 -35 2q-16 0 -33 2q-170 2 -180 -47q-2 -8 -6 -33.5t-10 -70.5 q-18 -135 -17 -137zM242 1559l250 -375h149l246 375h-82l-240 -248l-237 248h-86z" />
<glyph unicode=" "  horiz-adv-x="1085" />
<glyph unicode="&#x09;" horiz-adv-x="1085" />
<glyph unicode="&#xa0;" horiz-adv-x="1085" />
<glyph unicode="!" horiz-adv-x="681" d="M51 1577q0 66 76 78q47 -4 85 -7t67 -3q25 0 52 1t60 3q63 6 74 6q57 -6 67 -66q0 2 0 -26q0 -27 -2 -84q-6 -299 -6 -471q0 -160 6 -414v-12t2 -29v-57q0 -182 -67 -222q-49 -29 -98 0q-68 39 -68 218q0 -4 1 21.5t3 80.5q6 164 10 294t6 228q6 309 -71 350 q-55 12 -82 11q-63 6 -84 26q-31 31 -31 74zM291 100q0 -51 40 -87t93 -36t89 36t36 87q0 53 -38 91t-91 38t-91 -37.5t-38 -91.5z" />
<glyph unicode="&#x22;" horiz-adv-x="700" d="M109 1499q0 -43 30 -205l64 -346h61l62 359q29 168 28 200q0 59 -22 95q-35 47 -99 53q-63 4 -93.5 -38t-30.5 -118zM434 1499q0 -43 31 -205l63 -346h62l57 359q31 186 31 206q0 59 -21 89q-31 51 -98 53q-63 4 -94 -38t-31 -118z" />
<glyph unicode="#" horiz-adv-x="1585" d="M90 442h289l-154 -440h232l159 440h248l-151 -440h229l160 447h295l61 196h-284l92 258h295l63 199h-289l150 440h-232l-155 -440h-250l151 440h-231l-162 -440h-293l-57 -199h276l-86 -258h-294zM684 645l98 258h244l-92 -258h-250z" />
<glyph unicode="$" horiz-adv-x="894" d="M55 406q20 -203 107 -279q33 -31 100 -39q66 -9 84 -27q20 -23 25 -55q20 -119 43 -143q27 -29 71 -15q47 16 60 58q2 8 3 29.5t1 60.5q0 51 37 82q14 0 86 47q29 20 49 35.5t35 25.5q106 88 106 252q0 213 -100 338q-10 14 -35 36t-61 54q-37 31 -88 62q-37 43 -46 90 q-2 12 -3 39.5t-1 72.5v91q0 74 27 106q61 12 88 -37l37 -149q6 -29 35 -47q20 -16 49 0q37 31 37 112q0 35 -23 154q-29 143 -53 162q-27 23 -78 22h-86q-39 8 -51 39q-4 6 -14 64q-12 29 -21.5 36t-30.5 9q-49 4 -69 -60q-29 -78 -51 -98q-12 -14 -76 -45q-41 -29 -74 -67 t-59 -85q-39 -86 -39 -192q0 -178 131 -289l135 -84q33 -18 33 -242v-108v-16q0 -8 2 -21q4 -53 -27 -86q-66 -29 -98 8q-41 49 -43 137q-4 76 -6 91q-8 31 -49 53q-33 18 -72 -21q-39 -37 -27 -161zM276 1174q13 100 68 112q31 -10 31 -108q0 -102 -25 -109 q-61 -10 -74 105zM532 461q0 166 27 166q59 0 86 -70q31 -68 19 -125q-18 -98 -91 -121q-41 4 -41 150z" />
<glyph unicode="%" horiz-adv-x="1615" d="M96 1102q0 -141 103 -244q100 -100 243 -100t248 98q106 98 107 242q0 147 -102.5 245.5t-245.5 98.5q-145 0 -246 -94q-106 -98 -107 -246zM258 1102q0 37 15.5 70.5t41 58t60.5 39t74 14.5q37 0 70.5 -15.5t59 -41t41 -59t15.5 -70.5t-15.5 -71t-41 -58.5t-61.5 -39 t-75 -14.5q-37 0 -70.5 15.5t-58 41t-40 59.5t-15.5 71zM311 18q0 -18 31 -18q23 0 54.5 3t60.5 3q31 0 57 -3l25 -3q66 0 106 61q14 23 14 41q0 29 -36 29q-35 0 -35 19q0 16 80 139q299 463 453.5 701.5t166.5 258.5q18 29 39 58.5t37 55.5t26.5 46.5t10.5 30.5 q0 23 -33 22q-23 0 -53.5 -4t-61.5 -4q-29 0 -54 4l-25 4q-66 0 -107 -65q-16 -23 -16 -39q0 -31 36 -31q37 0 37 -16q0 -12 -80 -137q-301 -467 -455.5 -707t-164.5 -256q-18 -29 -38.5 -58.5t-37 -55t-27 -46t-10.5 -33.5zM911 328q0 -139 103 -242q102 -100 246 -100 q141 0 247 96q106 98 107 242q0 147 -102.5 245.5t-245.5 98.5t-250 -97q-104 -96 -105 -243zM1075 328q0 37 15.5 70.5t41 58t60.5 39t74 14.5q37 0 70.5 -15.5t59 -41t40 -59.5t14.5 -70q0 -37 -15.5 -71t-41 -59.5t-60.5 -40t-73 -14.5q-37 0 -71 15.5t-58.5 41t-40 60.5 t-15.5 72z" />
<glyph unicode="&#x26;" horiz-adv-x="1671" d="M119 483q0 -154 78 -286q84 -143 221 -195q123 -45 235 -45q207 0 525 209q23 -23 43 -45.5t41 -44.5q49 -49 94 -68q33 -10 57 -8q27 2 51.5 3t51.5 3q94 -4 151 -6q37 0 65.5 27.5t28.5 64.5q0 96 -94 96q-117 0 -121 2q-25 8 -55.5 25.5t-65.5 46.5q-72 59 -84 92 q-2 4 -2 17q0 18 43 108q37 74 50 127q10 51 10 88q0 76 -37 119q-35 37 -184 35q-39 2 -66 2q-25 0 -41 2q-20 -6 -31 -23q-8 -8 -14 -26q-8 -88 105 -127q25 -20 30 -76q0 -55 -30 -68q-102 125 -198.5 248t-189.5 246q-45 57 -71.5 93t-36.5 50q-45 70 -45 131 q0 131 125 170q37 12 68.5 7.5t53 -20t32 -41t3.5 -52.5q-6 -39 -63 -84q-6 -6 -43 -25q-29 -16 -37 -32q-27 -45 6 -96.5t88 -47.5q53 4 127 62q72 57 107 116q41 72 41 150q0 59 -25 102q-84 145 -264 146q-285 0 -422 -211q-51 -76 -51 -156q0 -74 78 -239 q-51 -55 -95 -86q-244 -215 -243 -480zM358 514q0 12 1 24.5t3 22.5q31 213 154 297q29 20 59 21q25 0 48 -15q33 -18 223 -260q193 -238 192 -264q0 -53 -120 -113q-92 -45 -211 -45q-131 0 -215 60q-133 96 -134 272z" />
<glyph unicode="'" horiz-adv-x="350" d="M117 1536q0 -29 12 -49q23 -41 37 -61.5t14 -53.5v-106q14 -70 70 -70q29 -4 52.5 15.5t23.5 50.5q2 45 6 110q4 49 8 86t8 60q12 102 -59 131q-59 20 -92 6q-80 -41 -80 -119z" />
<glyph unicode="(" horiz-adv-x="843" d="M168 678q0 -205 9 -357.5t30 -254.5q45 -223 239 -347q66 -41 139.5 -68.5t159.5 -37.5q43 -6 76 23.5t33 78.5q0 8 -1 14.5t-3 14.5q-16 68 -131 104q-102 35 -146 66q-100 75 -118 225q-14 119 -21.5 252t-7.5 285q0 154 7 287t22 249q18 154 118 230q49 37 146 65 q115 37 131 103q2 8 3 14t1 14q0 49 -33 80t-76 25q-86 -10 -159.5 -38t-139.5 -69q-193 -123 -239 -348q-20 -102 -29.5 -253.5t-9.5 -356.5z" />
<glyph unicode=")" horiz-adv-x="743" d="M25 -287q0 -47 31.5 -76.5t74.5 -23.5q166 20 301 106q195 123 238 347q20 102 29.5 254.5t9.5 357.5t-9.5 356.5t-29.5 253.5q-43 225 -238 348q-135 86 -301 107q-43 6 -74.5 -23.5t-31.5 -79.5q0 -10 4 -30q16 -66 131 -103q96 -29 145 -65q101 -76 119 -230 q14 -117 21.5 -250t7.5 -286q0 -152 -7.5 -285t-21.5 -252q-18 -150 -119 -225q-43 -31 -145 -66q-115 -37 -131 -104q-4 -20 -4 -31z" />
<glyph unicode="*" horiz-adv-x="847" d="M109 1038q41 -74 104 -75q90 -4 199 176q14 27 26 30q0 -29 -8 -47q-63 -160 -63 -211q0 -35 14 -55q29 -47 106 -43q82 2 107 61q8 14 8 31q0 29 -39 119q-55 131 -41 145q20 -18 32.5 -33.5t20.5 -25.5q100 -121 117 -129q47 -37 99 -16q61 20 79 96q14 63 -18 94 q-23 23 -66 35q-10 4 -31.5 7t-50 7t-49 8.5t-32.5 6.5q-35 2 -68 18q23 6 41 10t35 6l123 25q90 20 112 57q27 43 -2 101q-37 70 -104 73q-97 6 -228 -211q-6 8 0 35q6 33 7 31l24 61q43 106 43 121q2 59 -42 93t-126 8q-49 -14 -67 -70q-2 -6 -2 -21q0 -37 39 -120 q14 -37 30 -68q14 -25 17 -45q6 -27 -2 -27q-33 55 -97 123q-80 90 -131 92q-53 4 -104 -57q-39 -61 -12 -113q27 -53 98 -73q27 -8 137 -23q68 -10 68 -12q-274 -45 -303 -88q-27 -43 0 -107z" />
<glyph unicode="+" horiz-adv-x="1529" d="M172 487h494v-487h348v492h489v337h-489v490h-348v-490h-494v-342z" />
<glyph unicode="," horiz-adv-x="342" d="M225 57q0 -25 11 -51q14 -20 23 -33.5t15 -23.5q12 -29 13 -53q-14 -51 0 -113q18 -68 63 -68q49 0 68 35q14 29 16 66t4 73q4 51 8.5 88t8.5 60q8 100 -56 131q-53 24 -96 4q-78 -35 -78 -115z" />
<glyph unicode="-" horiz-adv-x="813" d="M131 487q-2 -63 68 -77q49 -10 75 22q20 20 31 80q8 39 37 43q59 -4 109.5 -7t95.5 -3q115 0 149 18q72 41 72 142q0 174 -49 204q-37 23 -76 9q-33 -10 -40 -44t-11 -69q0 -45 -27 -53q-12 -6 -57 -2q-92 8 -137 11t-47 3q-121 0 -162 -41q-27 -27 -29 -123 q-2 -29 -2 -57v-56z" />
<glyph unicode="." horiz-adv-x="335" d="M215 115q0 -55 38 -95t91 -40q55 0 95 34.5t40 89.5t-36 96.5t-89 41.5q-57 0 -98 -37t-41 -90z" />
<glyph unicode="/" horiz-adv-x="1716" d="M98 -334h211l1479 2296h-201z" />
<glyph unicode="0" d="M119 778q0 -481 260 -674q176 -127 393 -127q125 0 236 39q281 102 366 455q37 154 37 348q0 451 -192 658q-164 178 -461 178q-164 0 -301 -82q-199 -117 -279 -354q-45 -129 -57 -347q-2 -23 -2 -47v-47zM416 793q-1 202 26 321q35 152 97 223q76 86 211 95 q172 10 268 -117q115 -152 115 -527q0 -238 -41 -354q-68 -186 -250 -223q-35 -6 -74 -6q-141 0 -229 92q-123 129 -123 496z" />
<glyph unicode="1" d="M311 1519.5q-4 -49.5 27 -89t78 -41.5q-8 0 34 2t136 6q31 -2 39 -15q12 -23 12 -98v-971q0 -18 -6 -73q-2 -27 -3 -47.5t-1 -36.5q0 -92 40 -124t107 -32q12 0 30.5 1t40 3t42 3t33.5 1q70 2 129 -1t106 -7q49 0 82 39t31 88q-2 47 -40 80t-89 31q-98 -2 -147.5 -3.5 t-53.5 -1.5q-49 2 -49 123v949q0 78 -1 125t-3 63q-12 113 -68 131q-20 8 -102 4q-115 -6 -107 -6q10 0 -162 6q-51 2 -91 -28.5t-44 -80z" />
<glyph unicode="2" d="M172 1237q-8 -72 14 -121q31 -57 103 -47q57 6 82 86q4 113 8 125q16 49 104 106q82 53 195 54q82 0 147 -31q188 -90 189 -305q0 -299 -477 -684l-82 -66q-51 -41 -84 -68.5t-47 -41.5q-55 -61 -58 -109q-4 -59 36 -95t134 -40h176q76 2 133.5 4t98.5 4q35 0 72.5 -1 t78.5 -3q35 -2 65 -3t54 -1q57 2 90 2q35 0 45 2q61 10 94 49q25 25 35 170q10 129 0 170q-16 68 -67 86q-41 14 -80 -14q-18 -16 -26.5 -40t-12.5 -44q-4 -16 -7 -31.5t-7 -32.5q-18 -39 -76 -38h-373q41 45 78 82.5t72 70.5q240 246 313 350q117 168 117 334 q0 311 -291 461q-158 80 -365 80q-211 0 -350 -78q-145 -84 -131 -199q8 -41 8 -69q0 -33 -8 -74z" />
<glyph unicode="3" d="M172 506q4 -45 6 -70.5t2 -32.5q4 -35 6 -68.5t4 -68.5q14 -78 91 -137q195 -152 489 -152q125 0 217 33q336 121 399 410q12 57 13 115q0 156 -84 294q-78 127 -195 187q-12 8 -4 16q135 113 135 277q0 31 -6 59q-37 164 -268 248q-104 39 -234 39q-225 0 -364 -113 q-90 -72 -90 -149q0 -2 3 -32t11 -89q2 -29 4 -57.5t7 -54t15.5 -45t28.5 -32.5q20 -12 44 -10t45.5 14.5t38 34t22.5 49.5q2 25 3 49.5t3 47.5q16 78 88 123q66 41 150 41q94 0 153 -50q74 -57 64 -133q-6 -49 -48 -93t-94 -62q-37 -14 -98 -15q-18 0 -54 2t-50 2 q-57 0 -78 -20q-47 -41 -37 -108.5t84 -92.5q16 -4 37 -4q27 0 80 6q47 8 61 8q98 4 178 -47q158 -96 164 -243q4 -88 -35 -168q-41 -96 -116 -148q-82 -57 -199 -57q-115 0 -225 51q-139 61 -158 195q-4 31 -7 61.5t-7 61.5q-10 45 -48 65q-45 27 -90 0q-68 -41 -57 -137z " />
<glyph unicode="4" d="M147 535q0 -68 35 -115q63 -82 232 -82q43 0 98 6q16 2 32.5 3t33.5 3l79 4q225 12 236 -18q4 -10 5 -67.5t-1 -162.5q4 -74 129 -100q23 -4 45.5 -5t44.5 1q37 4 59.5 6t30.5 2q12 0 54 -8q20 -2 38.5 -3t36.5 1q49 4 79 45t26 90q-4 45 -45 74t-97 29h-75 q-37 0 -41 32.5t-4 65.5q8 27 22 29h98q43 0 71 39.5t22 87.5q-14 94 -125 92q-70 -2 -82 6q-45 31 -25 168l25 495q2 14 2 27q0 14 2 29q2 25 3 47t1 43q0 168 -64 223q-41 35 -98 35q-25 0 -59 -10q-219 -72 -471 -394q-236 -301 -324 -571q-29 -90 -29 -147zM440 670 q25 158 146 346q82 127 135 180q72 72 168 94q27 -2 37 -33q2 -6 2 -57v-524q-4 -80 -64 -92q-31 -6 -178 -6q-78 -2 -122 1t-54 7q-27 14 -40 21t-17 9q-18 16 -13 54z" />
<glyph unicode="5" d="M197 211q25 -80 155 -150q92 -49 167 -66.5t163 -17.5q291 0 481 173q113 104 170 256q53 141 53 278q0 47 -6 88q-45 279 -282 389q-129 59 -287 60q-147 0 -229 -13q-37 -6 -50 74q-2 53 39 92q33 23 117 23q39 0 125 -6q88 -6 129 -7q170 0 205 93q18 43 -10 84 q-49 66 -195 65q4 0 -20.5 -1t-81.5 -3q-102 -6 -140 -6q-2 0 -30.5 2l-85.5 6q-92 2 -119 0q-143 -29 -152 -201q-20 -342 76 -419q33 -27 92 -27q-6 0 25 3t98 11q74 8 126 10.5t81 -0.5q199 -14 279 -167q35 -66 34 -162q0 -150 -71 -283q-23 -45 -56.5 -79t-74.5 -60 q-76 -47 -150 -53q-94 -6 -186 26q-109 33 -160 105q-25 31 -33 133q-10 106 -14 114q-27 55 -82 59.5t-84 -42.5q-10 -16 -10 -74v-115q-6 -190 -6 -192z" />
<glyph unicode="6" d="M166 735q0 -401 244 -620q152 -137 374 -138q47 0 93.5 6.5t93.5 16.5q285 76 385 389q25 76 24 205q0 293 -112 424q-74 88 -205 131q-111 33 -205 25q-102 -8 -196 -66q-100 -61 -144 -154q-18 -41 -18 -86q0 -43 16 -71q29 -49 82 -45q55 4 90 59q29 45 47.5 69.5 t22.5 28.5q63 61 157 62q139 0 199 -166q20 -55 21 -176q0 -246 -90.5 -348.5t-227.5 -102.5q-217 0 -317 230q-61 137 -62 389q0 328 101 483q27 41 62.5 72.5t80.5 54.5q80 39 162 37q88 -2 119 -25q66 -70 86 -106q35 -47 112 -37q61 8 68 61q4 39 -2 103q-10 96 -35 125 q-78 86 -326 86q-27 0 -47.5 -1t-36.5 -3q-125 -23 -178 -45q-178 -76 -297 -302q-92 -168 -123 -358q-18 -104 -18 -207z" />
<glyph unicode="7" d="M123 1186q-2 -31 23.5 -60.5t60.5 -31.5q80 -2 88 88q8 104 70 151q59 47 297 47q252 0 331 -32q14 -6 -6 -64l-223 -502q-154 -344 -154 -551q0 -90 33 -147q47 -84 148 -84q6 0 21 1t42 3q51 6 84 6q20 0 35.5 -1t27.5 -3q33 -6 56 -6q49 -4 79.5 38t26.5 93 q-4 49 -43 76q-37 31 -92 31q-29 0 -45 1t-25 3q-31 10 -55 41q-18 25 -18 71q0 92 139 443q61 147 107.5 251.5t74.5 170.5q16 33 33.5 68.5t32 68.5t24 62.5t9.5 54.5q0 47 -31 90q-53 72 -148 71q-6 0 -46 -5t-115 -15q-16 -2 -73.5 -3t-158.5 -1q-47 0 -109.5 2 t-140.5 6q-8 0 -23.5 1t-39.5 3q-23 2 -42.5 3t-33.5 1q-131 0 -182 -70q-27 -33 -29 -86q2 10 2 -16v-86q0 -26 -12 -182z" />
<glyph unicode="8" d="M174 469q4 -252 250 -403q143 -86 342 -86q164 0 295 59q141 68 222 191.5t81 277.5t-76 269.5t-205 162.5q27 41 46.5 72.5t33.5 54.5q66 100 66 197q0 72 -33 137q-125 254 -477 254q-229 0 -383 -170q-98 -109 -98 -264q0 -23 3 -43.5t7 -40.5q72 -256 391 -357 l66 -20q145 -45 217 -80q141 -72 172 -166q10 -35 10 -59q0 -76 -64 -152q-96 -117 -272 -117q-14 0 -26.5 1t-26.5 3q-209 25 -277 181q-27 55 -26 114q0 55 28 97q14 20 66 65q29 25 35 72q8 63 -56 84q-18 8 -47 8q-53 0 -98 -31q-80 -55 -125 -147q-41 -88 -41 -164z M485 1249q0 61 58 119q49 49 116 66q10 2 22.5 3t27.5 1q139 0 223 -86q53 -59 53 -146q0 -35 -13.5 -66.5t-36 -56t-52 -40t-64.5 -15.5q-61 0 -141 33q-41 16 -74 35.5t-55 40.5q-64 57 -64 112z" />
<glyph unicode="9" d="M162 1012q0 -145 33.5 -250t96 -172.5t153 -100t200.5 -32.5q47 0 78 8q244 53 311 223q20 49 21 92q0 45 -32 76t-77 29q-25 0 -46 -15.5t-40.5 -37t-36 -47t-32.5 -48.5q-66 -66 -164 -65q-143 0 -197 145q-25 68 -24 162q0 201 79 328q86 137 279 129q166 -8 268 -179 q74 -127 74 -385q0 -303 -80 -464q-111 -227 -354 -228q-94 0 -140 56q-23 27 -32 92q-6 49 -54 71q-51 25 -98 2q-39 -18 -43 -120q-2 -45 -3 -64.5t-1 -15.5q0 -102 70 -154q100 -72 284 -72q131 0 224 33q209 74 325 246q88 123 144 344q35 139 34 285q0 360 -196 579 q-170 190 -469 191q-18 0 -36 -1t-34 -3q-53 -6 -117 -31q-133 -51 -235 -182q-90 -119 -119 -254q-14 -72 -14 -170z" />
<glyph unicode=":" horiz-adv-x="335" d="M199 768q-2 -51 32.5 -89t86 -40t89 33t40 86t-32.5 89t-86 40t-89 -33t-40 -86zM207 106.5q-2 -51.5 32.5 -88t86 -39t89.5 31.5t40 85q2 49 -33 88t-86 41q-49 2 -88 -32.5t-41 -86z" />
<glyph unicode=";" horiz-adv-x="335" d="M221 90q0 -29 12 -53q23 -35 39 -60q14 -29 15 -57q-4 -12 -4 -51q-2 -45 4 -66q20 -68 63 -67q39 0 57.5 18.5t25.5 46t7 60.5q0 31 2 57q10 104 19 150q12 106 -60 137q-59 24 -98 6q-82 -39 -82 -121zM221 752q-2 -53 34 -93.5t87 -42.5q53 -2 92 33t41 86 q2 53 -33 93t-86 42q-53 2 -93 -32.5t-42 -85.5z" />
<glyph unicode="&#x3c;" horiz-adv-x="1114" d="M127 745l989 -366v264l-637 227l637 228v262l-989 -369v-246z" />
<glyph unicode="=" horiz-adv-x="1712" d="M127 442h1595v324h-1595v-324zM127 973h1595v323h-1595v-323z" />
<glyph unicode="&#x3e;" horiz-adv-x="1114" d="M150 379l989 366v246l-989 369v-262l636 -228l-636 -227v-264z" />
<glyph unicode="?" horiz-adv-x="884" d="M150 1493q4 -41 5 -80t-3 -78q6 -51 22 -71q12 -12 39 -21q45 -14 74.5 13.5t34.5 91.5q2 70 10 88q33 74 117 73q172 0 172 -114q0 -143 -134 -426l-47 -99q-113 -231 -112 -364q0 -72 34 -117q49 -61 95 -61q45 0 72.5 23.5t19.5 56.5q-23 92 10 200q31 70 57.5 125 t49.5 96l49 91q170 311 170 536q0 115 -56 180q-63 76 -227 76q-25 0 -53.5 -2t-63.5 -6q-12 -2 -108 4q-86 6 -111 -2q-53 -14 -90 -51q-41 -47 -26 -162zM336 104q0 -53 38 -90t91 -37t91 37t38 90t-38 91t-91 38q-51 0 -90 -37.5t-39 -91.5z" />
<glyph unicode="@" horiz-adv-x="2037" d="M113 571q0 -256 129 -471q135 -215 358 -327v2q225 -115 485 -115q391 0 783 246l-58 88q-340 -201 -667 -201q-496 0 -703 379q-92 168 -92 389q0 240 107 426q242 432 696 455q86 4 171 -7.5t171 -37.5q223 -72 327.5 -218.5t104.5 -338.5q0 -145 -57 -287 q-90 -219 -236 -250q-63 -12 -106 23q-16 16 -17 57q0 57 52 229l139 480h-287l-35 -129q-16 33 -37 67q-86 113 -264 98q-94 -6 -184 -60t-159.5 -138t-111.5 -191.5t-38 -224.5q0 -119 47 -197q96 -160 289 -163q213 -5 342 208q27 -147 147 -190q49 -16 104 -16 q158 0 291 104q119 94 185 275q53 154 53 307q0 23 -1 43t-3 41q-25 184 -136.5 330.5t-283.5 222.5q-184 82 -428 82q-393 0 -666 -197q-412 -299 -411 -793zM887 438q2 47 17.5 116t47.5 161q80 223 178 264q72 29 123 -16q61 -43 52 -146q-4 -55 -22.5 -120.5 t-47.5 -143.5q-74 -199 -164 -242q-31 -18 -67 -18q-35 0 -62 18q-59 35 -55 127z" />
<glyph unicode="A" horiz-adv-x="1689" d="M184 117q0 -53 27 -80q37 -37 92 -37q6 0 20.5 1t32 3t34 3t28.5 1q27 0 66.5 -2t97.5 -6h9q33 0 59 26q30 30 30 70q0 41 -29.5 72t-68.5 31h-64q-14 0 2 -2q-20 2 -14 18q39 174 131 330q33 55 63 80q34 26 94 26h5h420q59 0 87.5 -18.5t53.5 -71.5q33 -94 60.5 -177 t49.5 -159q2 -12 0 -20t-16 -8q-20 2 -43 2h-47q-41 0 -71.5 -31t-30.5 -70q0 -40 28 -70q27 -28 63 -28h5q12 0 33.5 1t54.5 3q29 2 48 3t32 1q25 0 64.5 -4t58.5 -4q66 0 112 47q25 25 25 68q0 59 -74 229l-436 999q-74 168 -80 179q-72 133 -133 133t-141 -119 q-4 -8 -29 -50t-68 -120l-520 -936q-121 -219 -121 -313zM821 874l205 361l164 -346q-14 -27 -244 -27q-117 0 -125 12z" />
<glyph unicode="B" horiz-adv-x="1464" d="M84 1526v-5q0 -33 24 -59q26 -28 58 -28q27 0 76 6q7 1 14 1q38 0 51 -30q12 -29 12 -113l-2 -858q0 -72 2.5 -120t6.5 -76q25 -147 106 -199q107 -65 295 -65h6q248 0 412 90t254 231q82 131 86 277v11q0 203 -74 308q-76 106 -287 182q88 120 88 266v13 q-4 168 -190 258q-80 39 -166 39q-119 0 -297 -86q-41 53 -94 61q-60 0 -156 -20q-14 -4 -47 -5t-86 -3q-90 -4 -92 -76zM556 590v397q0 68 1.5 116t5.5 77q22 129 90 192q55 52 133 56h15q68 0 110 -37q47 -41 47 -105q0 -29 -10 -65q-31 -96 -160 -127q-8 -2 -33.5 -4.5 t-72.5 -4.5t-70 -36q-15 -28 -15 -54q0 -21 9 -41q35 -67 107 -67h10q16 2 44 5t67 11q70 12 108 12q104 0 186 -81q88 -88 89 -238q0 -25 -3.5 -49.5t-7.5 -50.5q-45 -211 -268 -291q-68 -27 -154 -27q-94 0 -147 41q-59 45 -76 182q-5 45 -5 189z" />
<glyph unicode="C" horiz-adv-x="1703" d="M121 756q0 -317 237 -545q246 -233 598 -234q104 0 230 23q158 31 297 113q176 106 231 241q12 27 12 56q0 44 -34 74q-26 23 -59 24q-9 0 -19 -2q-37 -6 -70 -35l-86 -92q-68 -68 -162 -115q-145 -76 -346 -76q-178 0 -284 64q-127 76 -201 235q-59 129 -64 254v8 q0 144 70 304q80 176 213 266q207 139 455 139q92 0 153.5 -24.5t71.5 -90.5v-86q2 -25 15.5 -45t33 -33.5t43 -17.5t45.5 6q59 27 70 113q2 10 1 20.5t-3 20.5q-6 31 -6 43v20q0 20 2 60v19q0 105 -41 147q-43 45 -328 45q-78 0 -133 -3t-84 -7q-178 -31 -256 -60 q-274 -106 -436 -321q-166 -221 -166 -508z" />
<glyph unicode="D" horiz-adv-x="1841" d="M98 1546q-1 -6 -1 -13q-1 -31 17 -57q20 -32 60 -40q10 -2 28.5 -1t45.5 5h9q44 0 54 -35q12 -35 13 -221v-781q0 -313 55 -370q31 -33 123 -33h30q18 0 41 2q29 2 46.5 3t27.5 1h39q83 0 203 -6h36q505 0 765 324q82 102 125 276q40 154 40 306v7q0 115 -20 189 q-49 190 -127 293q-96 119 -283 196q-158 63 -327 64q-240 0 -506 -129q-6 -6 -14 4q-72 88 -129 98q-4 2 -46 -4q-25 -4 -47 -6t-43 -2q-31 0 -106 12q-39 0 -72 -23.5t-37 -58.5zM537 612q0 147 18 324q8 78 16.5 131t18.5 84q35 119 96 172q55 49 186 90q70 20 136 23 q15 1 31 1q109 0 214 -38q152 -55 242 -176q115 -158 115 -404q0 -137 -39 -235q-113 -293 -449 -359q-29 -4 -79 -7t-119 -3q-274 0 -326 57q-61 68 -61 340z" />
<glyph unicode="E" horiz-adv-x="1425" d="M123 1538v-6q1 -40 25 -68q26 -30 67 -30q74 0 90 -13q14 -8 14 -63v-957v-180q10 -141 48 -178q41 -41 221 -41h33q135 6 213 6q35 0 87 -2t117 -6q61 -2 110 -2q134 0 177 16q61 27 61 162q0 6 -1 27.5t-3 60.5q0 -4 7 125v6q0 35 -24 61q-26 28 -62 31h-5 q-36 -1 -64 -25q-30 -26 -30 -61v-43q0 -70 -6 -94q-12 -41 -53 -45l-447 -4q-90 0 -116.5 32t-26.5 118v411q0 96 74 96h289q29 0 38 -18q2 -2 15 -49l6 -23q24 -86 92 -86h6q37 2 61.5 31t24.5 68q-4 37 -6 65.5t-4 50.5l-6 99l-2 34q-21 54 -156 54h-24q-29 -4 -55.5 -6 t-53.5 -5q-53 -4 -96 -7t-76 -3q-100 1 -114 19q-13 16 -13 190v51q-2 43 31 58q8 2 73 18q33 6 113 6q48 0 113 -2q176 -6 239 -22q12 -4 18.5 -40t10.5 -71q17 -86 91 -86h7q39 2 65 30q22 25 22 58q0 5 -1 10q-12 82 -24 148q-2 57 -4 89t-4 36q-23 59 -222 59h-34 t-39 -2q-25 -2 -37 -2h-15q-231 -6 -364 -6q-33 0 -84 1t-121 3q-139 6 -156 6q-43 0 -75.5 -25.5t-34.5 -64.5z" />
<glyph unicode="F" horiz-adv-x="1372" d="M113 1538v-6q1 -40 25 -68q26 -30 67 -30q33 0 67 6q51 0 52 -60v-1132q0 -188 69 -228q35 -20 86 -20q23 2 45 3t45 3q109 -2 168 -6q39 2 65 32q24 28 23 66v6q-4 76 -104 93h1q0 -2 -110 -2q-43 0 -43 79v578q8 20 146 25q-49 -2 -13 -3h168q82 0 99 -30 q8 -14 15 -27.5t11 -25.5q37 -86 94 -86h5q38 3 64 31q24 26 24 61v6q-4 35 -10.5 65.5t-10.5 59.5q-12 109 -14 110q-39 63 -148 64q-53 0 -159 -12q-53 -4 -88 -7.5t-56 -3.5q-68 0 -96 23q-28 24 -28 106q0 49 10 119q8 53 12 64q8 27 49 43q31 14 143 14q279 0 347 -43 q25 -16 34 -52t15 -69q13 -86 91 -86h7q37 2 61.5 30.5t24.5 67.5q-4 47 -8 86t-8 68q-16 145 -23 156q-43 59 -160 59q-25 0 -172 -12q-96 -8 -205.5 -15.5t-234.5 -13.5h-162h-37q-20 0 -49 2q-39 2 -61 2h-25q-41 0 -73.5 -24.5t-34.5 -65.5z" />
<glyph unicode="G" horiz-adv-x="1882" d="M119 770q0 -100 20 -195q74 -346 385 -491q203 -92 379 -92q47 0 105.5 7t124 19.5t135 27.5t137.5 30q10 2 18 -8q17 -23 17 -54q6 -72 6 -108q0 -88 -26 -88h-1q-73 10 -126 10q-42 0 -72 -6q-96 -23 -99 -86v-7q0 -80 86 -91q18 -3 43.5 -3t59.5 3l86 6q16 0 36.5 -1 t49 -3t49 -3.5t31.5 -1.5q57 0 84 23q53 49 53 293v57q0 31 2 66q2 47 3 76.5t1 44.5l6 335v42q0 229 -41 268q-43 45 -115 45q-16 0 -39.5 -3t-54.5 -8q-35 -4 -60.5 -7t-41.5 -3q-31 0 -117 6q-29 1 -52 1t-40 -1q-96 -12 -98 -88v-10q0 -75 86 -88q12 -2 27 -2q27 0 65 6 q23 4 47.5 8t46.5 9q21 2 40 2t38 -2q39 -6 49 -35q4 -16 4 -70q0 -182 -70 -258q-127 -141 -403 -141q-57 0 -109 6q-131 16 -243 98q-127 88 -191 227q-43 94 -43 232q0 231 99 383q184 287 579 301q16 1 31 1q23 0 45 -2q37 -3 76 -9q102 -18 129 -58q18 -29 20 -59 q4 -57 6 -59q19 -86 92 -86h7q37 2 62.5 30.5t25.5 67.5v129q2 25 4 49.5t4 48.5q1 9 1 18q0 33 -13 48q-70 88 -265 88q-45 0 -96 -6q-29 -4 -53.5 -6.5t-42.5 -4.5q-150 -10 -259.5 -27.5t-180.5 -43.5q-203 -70 -365 -269q-184 -225 -184 -528z" />
<glyph unicode="H" horiz-adv-x="1722" d="M92 1546q0 -43 21.5 -77.5t58.5 -34.5q109 0 125 -9q20 -6 20 -59v-170q0 -8 -2 -126t-6 -347q-6 -459 -6 -490q0 -137 29 -190q23 -41 75 -41h9q31 2 67 6q16 2 29 2h25q23 0 75 -6q27 -2 43.5 -3t24.5 -1q39 0 67.5 28.5t28.5 69.5t-28.5 70t-67.5 29q-23 0 -51.5 -2 t-34.5 -2q-25 0 -30 18t-5 94v500q0 69 76 69h2h567q59 0 80 -14t21 -65q-4 -256 -7.5 -395.5t-3.5 -166.5q0 -137 29 -190q24 -41 77 -41h5q27 2 68 6q16 2 28 2h25q20 0 55 -3t88 -7h5q36 0 64 28q30 30 29 70q0 41 -28.5 70t-69.5 29q-23 0 -50.5 -2t-33.5 -2 q-35 0 -37 43v69l17 1153v19q0 67 -13 94q-23 53 -94 53q-8 0 -23.5 -1t-39.5 -3q-23 -2 -41 -2h-29h-25q-16 0 -42.5 2t-42 3t-19.5 1q-113 0 -113 -78q0 -112 77 -112h1q106 0 123 -7q23 -10 23 -61v-170q0 -98 -50 -98h-632q-66 0 -66 65v295q0 82 -12 113q-23 53 -94 53 q-16 0 -56.5 -3t-62.5 -3h-25q-16 0 -42.5 2t-42 3t-19.5 1q-113 0 -113 -78z" />
<glyph unicode="I" horiz-adv-x="706" d="M86 1532q0 -39 28.5 -68.5t67.5 -29.5h-1q0 1 75 6h6q49 0 57 -58q2 -16 3.5 -77.5t1.5 -171.5v-662q0 -59 -1 -99t-4 -61q-2 -25 -24 -125q-17 -65 -17 -91q0 -5 1 -9q16 -78 71 -86q16 0 38 1t50.5 3t48 3t29.5 1q14 0 40 -1t60 -3q31 -2 47.5 -3t20.5 -1 q39 0 67.5 28.5t28.5 67.5q0 37 -28.5 68t-67.5 33q-16 2 -34.5 1t-37.5 -3q-5 -1 -9 -1q-46 0 -54 56q-2 12 -3 73.5t-1 172.5v663v90q0 41 2 70q2 33 24 123q20 82 19 98q-12 78 -74 88q-33 0 -88 -6t-78 -6q-33 0 -96 6q-66 6 -72 6q-39 0 -67.5 -28.5t-28.5 -67.5z" />
<glyph unicode="J" horiz-adv-x="1298" d="M154 252q10 -139 172 -219q119 -55 274 -56q211 0 356 99q127 90 164 231q23 86 23 279q-1 310 -1 487t1 221q0 23 6 78q2 23 2 41v31q0 119 -82 164q-33 20 -70 20q-14 0 -48 -6t-54 -6t-62 6t-63 6q-41 0 -71.5 -24.5t-32.5 -63.5v-6q0 -38 22 -68q24 -32 60 -32h4 q37 2 53 2t12 0q18 0 39 -17q37 -33 47 -86q2 -14 3 -61t1 -125v-500q0 -10 1 -29.5t1 -42.5q0 -20 1 -40.5t1 -32.5q0 -213 -147 -289q-59 -31 -150 -31q-92 0 -155 33q-84 41 -113 96q-22 43 -22 128v7q0 113 -54 136q-18 9 -36 9q-27 0 -52 -22q-27 -21 -27 -114 q0 -20 1 -43q0 -55 -1 -95.5t-3 -64.5z" />
<glyph unicode="K" horiz-adv-x="1515" d="M96 1565q-11 -20 -11 -39q0 -23 15 -45q16 -27 33 -35q4 -2 14.5 -5l24.5 -7q20 -4 39 -4l39 4q25 6 39 6q45 0 45 -99v-991v-170q12 -131 65 -166q18 -12 37 -12q6 0 35 6t57 6q29 0 101 -6q61 -6 67 -6q39 0 67 28.5t28 67.5q0 88 -95 97q-16 2 -34.5 1t-38.5 -6h-6 q-49 0 -58 58q-6 33 -6 248v378q0 20 10 25q6 6 15 -2l421 -623q188 -274 295 -274q12 0 19 2q60 4 103.5 4t70.5 -4q39 0 67.5 28.5t28.5 67.5q0 41 -25.5 70t-70.5 29h-45q-16 0 -25 -2q-10 -2 -18 -3.5t-13 -1.5q-37 0 -106 89l-348 518q-133 199 -133 274q0 8 4 21 q29 68 219 217q76 59 133 98.5t96 62.5q28 16 94 16q16 0 35 -1h5q31 -1 55 21q26 24 26 59q0 82 -80 88q-12 2 -25 1t-28 -3q-16 -2 -29.5 -3t-21.5 -1q-33 0 -68 8q-12 2 -24 2h-21q-86 0 -161 -70q-55 -57 -110.5 -114.5t-111.5 -114.5q-98 -104 -153 -160.5t-70 -69.5 q-8 -4 -10 -6q-6 0 -6 45v140q0 258 -53 301q-20 17 -67 17q-21 0 -46 -3q-47 -6 -94 -6q-20 0 -50 4t-47 2q-74 -8 -94 -57z" />
<glyph unicode="L" horiz-adv-x="1351" d="M90 1540q-1 -6 -1 -11q-1 -35 21 -61q24 -30 64 -34q86 0 96 -7q57 -31 58 -313v-835q0 -80 9 -135.5t33 -87.5q23 -30 61 -44q33 -12 79 -12h14q102 4 180 6t136 2q51 0 125.5 -2t177.5 -6h110q88 0 129 23q44 29 44 102q0 9 -1 18q-4 41 -6 73t-2 54q0 12 6 66 q4 43 5 69q0 9 -1 15q-3 42 -33 70q-28 26 -67 26h-6q-41 -2 -69 -34q-26 -29 -25 -66v-6q2 -35 3 -54.5t-1 -27.5q-10 -45 -55 -72q-70 -41 -359 -41q-133 0 -178 12q-62 18 -62 294v9q6 418 9.5 638.5t5.5 244.5q1 34 1 61q0 83 -9 111q-11 39 -57 39h-9q-147 -6 -172 -6 q-96 0 -147 6q-6 1 -11 1q-34 1 -61 -21q-31 -24 -35 -64z" />
<glyph unicode="M" horiz-adv-x="2017" d="M135 1540v-6q1 -34 21 -64q22 -32 59 -36q10 -2 22.5 -1t28.5 3q29 4 35 -23q4 -16 4 -88v-1118q0 -139 25 -178q16 -25 73 -29q-2 0 10.5 1t39 3t49 3t45.5 1q20 0 43.5 -1t50.5 -3q29 -2 42 -3t15 -1q41 0 70 28.5t29 67.5t-29 68t-70 31q-31 2 -59.5 1t-54.5 -6 q-37 -2 -47 17q-6 18 -7 135v559q0 92 17 103q18 -4 39 -43q8 -16 13 -27.5t9 -22.5l266 -630q121 -281 201 -281q84 0 168 145q20 33 86 189l223 518q41 96 62 102q22 -10 22 -89v-7v-104l-14 -353q0 -6 -6 -75q-2 -29 -3 -54.5t-1 -46.5q0 -139 49 -188q27 -27 45 -33 q16 -4 55 -4q16 0 41 4t49 4q16 0 60 -6q23 -2 37 -3h9q8 0 13 1q42 2 66 32q23 28 22 68v6q-2 41 -34 69q-28 24 -65 25q-5 0 -11 -1q-10 2 -25.5 -3.5t-26.5 -5.5q-37 0 -43 50v94v987q0 246 -41 287q-20 18 -55 18q-13 0 -28 -2q-49 -6 -107 -123q-16 -37 -34.5 -73.5 t-35.5 -75.5l-393 -842q-39 -86 -63 -86h-2q-27 2 -68 94l-364 825q-20 45 -40 90.5t-40 92.5q-53 102 -113 102q-29 0 -80 -6q-27 -2 -46.5 -3t-29.5 -1q-14 0 -38.5 4t-41.5 2q-5 1 -11 1q-32 1 -56 -21q-28 -24 -31 -64z" />
<glyph unicode="N" horiz-adv-x="1681" d="M143 1542q-1 -6 -1 -12q0 -34 20 -62q24 -34 63 -34q78 0 76 2q31 -12 33 -43q2 -10 3 -37v-20q0 -22 -1 -54l-12 -924q0 -4 -1 -20t-3.5 -45t-3.5 -52.5t-1 -43.5q0 -195 79 -195h5q10 0 20.5 1t26 3t41 3t66.5 1q6 0 21.5 -2t34 -3t38 -3t33.5 -2h6q38 0 66 24 q32 26 34 68v6q0 39 -26 68q-28 31 -70 31q-16 0 -29.5 -1t-27.5 -3q-10 -2 -17 -3h-8q-31 6 -41 35q-2 10 -4 43t-4 90q-2 39 -2 129q0 92 -2 236q0 156 1 240t3 94q0 39 23 51q160 -219 309 -433t295 -425q154 -221 200 -244q12 -6 29 -6q39 0 64 25q35 35 39 118v160 l-2 856q0 25 1 61.5t3 84.5q0 27 6 81q4 29 6 48.5t2 33.5q0 80 -47 134q-22 24 -61 24h-3q-14 0 -49 -4t-55 -4q-12 0 -31.5 1t-46.5 3q-53 6 -65 6q-39 0 -68 -30.5t-29 -71.5q0 -38 28 -66q26 -26 64 -26h5q35 2 53 2h24q37 -4 43 -74q2 -14 2 -78v-178v-459v-55 q0 -12 2 2q-2 -35 -24 -39h-2q-23 0 -62 51l-505 731q-139 201 -170 238q-43 53 -76 53q-8 0 -43 -6t-68 -6q-4 0 -27.5 2l-70.5 6q-6 1 -12 1q-34 -1 -61 -21q-32 -24 -36 -62z" />
<glyph unicode="O" horiz-adv-x="1857" d="M121 821v-10q0 -337 256 -584q258 -246 610 -250h6q345 0 613 242q266 242 266 586q0 375 -260 616q-246 228 -608 232h-6q-345 0 -611 -244q-262 -242 -266 -588zM365 819q0 266 192 451q186 178 444 178q252 0 441 -184q186 -184 186 -455q0 -279 -192 -459 q-180 -168 -445 -168q-252 0 -440 183q-186 184 -186 454z" />
<glyph unicode="P" horiz-adv-x="1417" d="M113 1542q-1 -6 -1 -12q0 -36 20 -64q22 -32 59 -32h4h16q41 0 61 -9q37 -18 47 -141v-147v-795q0 -221 17 -283q17 -59 82 -59h8q53 4 85 6t42 2q37 0 74 -2t71 -6q6 -1 11 -1q32 0 53 31t21 67q0 6 -1 12q-8 88 -112 88q-41 0 -58 10q-57 39 -57 293v448q0 344 143 438 q82 57 189 58q63 0 112 -25q162 -78 183 -256q6 -53 6 -92q0 -162 -127 -246q-46 -30 -101 -30h-4q-41 0 -84 16q-14 4 -98 59q-66 41 -98 41q-39 0 -64 -43q-23 -35 -22 -75q0 -55 49 -101q94 -92 311 -92q57 0 90 8q274 68 363 340q24 73 24 157v7q0 213 -122 358 q-152 172 -400 172q-45 0 -84 -6q-92 -16 -186 -73q-49 -31 -60 -31q-20 0 -43 29q-52 67 -95 67h-1q-14 0 -59 -6q-16 -2 -37.5 -3t-48.5 -1q-6 0 -70 6q-6 1 -12 0q-35 0 -61 -20q-32 -24 -35 -62z" />
<glyph unicode="Q" horiz-adv-x="1857" d="M121 821q0 -348 258 -596q256 -248 606 -248q127 0 238 31q385 0 452 -71q23 -23 23 -70q0 -49 22 -72q19 -26 66 -26h4q29 0 41 36.5t22 73.5q10 20 19.5 40t19.5 40q23 49 23 78q0 23 -12 39q-41 57 -142 96q-29 10 -66.5 21.5t-88.5 25.5q262 250 262 586 q0 377 -260 618q-248 229 -607 230q-354 0 -614 -242q-266 -248 -266 -590zM362 821q0 264 191 447q188 180 446 180q254 0 439 -184q186 -184 186 -455q0 -279 -192 -457q-186 -170 -445 -170q-254 0 -440 185q-185 184 -185 454z" />
<glyph unicode="R" horiz-adv-x="1454" d="M92 1524q2 -39 32 -64.5t71 -25.5q76 0 76 2h-1q61 -12 62 -115v-934v-14t-2 -27v-61q0 -201 65 -256q36 -27 157 -27h17q25 0 42.5 3t41.5 3q16 0 42 -4t38 -4q39 0 67.5 28.5t28.5 69.5t-28.5 70t-67.5 29q-76 0 -96 10q-61 35 -74 168q-2 8 -2 47v110v668 q12 117 113 178q78 47 186 47q47 0 72 -8q96 -29 135 -114q14 -29 14 -72q0 -78 -43 -129q-59 -68 -135 -86q-94 -10 -182 -25q-92 -12 -107 -80q-2 -10 -3 -18t-1 -19q0 -53 43 -133q27 -41 51.5 -83t49.5 -83l209 -360q23 -39 43 -78t41 -80q45 -57 117 -57h5q47 4 84 6 t66 2q18 0 54 -4t54 -4q92 0 93 100q0 43 -31 70t-76 27h-57q-102 18 -234 211q-35 47 -83 127.5t-111 197.5q-10 25 -10 29q0 25 45 49q43 20 87 40.5t85 42t73.5 44.5t55.5 47q51 68 73 189q8 39 9 81q0 207 -179 316q-125 76 -276 76q-166 0 -299 -84q-25 -14 -51 6 q-70 59 -156 59q-14 0 -45 -5t-49 -5q-10 0 -44 4q-23 3 -44 3q-11 0 -21 -1q-40 -2 -66 -32q-24 -27 -24 -62v-6z" />
<glyph unicode="S" horiz-adv-x="1173" d="M113 335q0 -13 6 -52q10 -59 12 -95v-102q0 -51 19 -66q36 -40 134 -40h5q-2 0 182 12h12q44 0 123 -12q27 -2 48.5 -3.5t41.5 -1.5q229 0 383 205q102 139 103 336q0 57 -13 100q-49 162 -153 252q-84 70 -264 136l-62 22q-295 106 -295 256q0 59 35 104q62 74 198 74 q22 0 46 -2q109 -10 139 -84q2 -6 4 -26.5t6 -55.5q4 -51 41 -73q18 -17 44 -17q15 0 32 6q53 29 55 103q1 29 1 55v26q-1 38 -3 70q2 55 2 86v39q-6 57 -41 62h-43t-116 -2q-12 0 -37 1t-62 3t-65.5 3t-48.5 1q-88 -1 -133 -15q-106 -31 -162 -79q-145 -129 -146 -324 q0 -164 123 -264q33 -27 98.5 -63t165.5 -81l76 -26q96 -35 172 -88q102 -74 127 -152q12 -41 12 -88q0 -127 -65 -205q-78 -92 -293 -92q-23 0 -44 1t-42 3q-41 4 -64.5 8.5t-31.5 6.5q-45 12 -64 53q-8 16 -8 49q-2 87 -40 117q-23 18 -50 18q-18 0 -39 -8 q-61 -29 -61 -91z" />
<glyph unicode="T" horiz-adv-x="1540" d="M31 1403q0 -84 14 -143q8 -23 12 -39.5t9 -24.5q31 -80 84 -80q33 0 56 23.5t23 58.5q-2 45 -2 70v30q0 53 9 64q8 20 55 27h293q35 0 45 -29q6 -18 6 -80v-926q0 -6 -1 -21.5t-2 -34.5t-2 -39.5t-1 -35.5q0 -143 63 -198q27 -25 86 -25q10 0 27.5 1t38 3t38 3t27.5 1 q6 0 22.5 -1t45.5 -3t50.5 -3t35.5 -1q39 0 67.5 29.5t28.5 70.5q0 39 -30.5 68t-71.5 29q-14 0 -43 -4.5t-45 -4.5q-68 10 -84 170q-6 45 -6 191v663q0 125 36 162q27 31 115 31h291q74 0 98 8q41 12 64.5 50t23.5 136q0 68 -12 93q-39 65 -86 65h-4q-90 -4 -98 -129h-836 h-137q-49 0 -70 -2q-147 -8 -192 -57q-41 -47 -41 -166z" />
<glyph unicode="U" horiz-adv-x="1439" d="M92 1532q0 -42 29 -72q26 -27 58 -26h9q33 4 56 4q15 0 26 -2q61 -12 62 -174v3q-1 0 -6 -208l-15 -588v-27q0 -295 168 -403q94 -57 213 -57q125 0 307 73q25 12 41 -4q77 -51 132 -51h4q41 4 70.5 6t51.5 2q25 0 63 -4t64 -4q94 2 105 86q1 6 1 12q-1 34 -21 60 q-24 32 -62 39q-10 2 -23.5 1t-33.5 -3q-45 -6 -62 4q-49 27 -61 155q-2 14 -2 60v123v841q0 20 2 61.5t2 59.5q0 129 -92 129q-8 0 -76 -6q-33 -2 -59.5 -3t-49.5 -1q-35 0 -74.5 5t-44.5 5q-37 0 -67.5 -28.5t-30.5 -67.5q0 -40 29 -70q27 -28 62 -28h5q41 2 62 2h22 q49 -2 59.5 -17.5t10.5 -50.5l4 -647q1 -28 1 -54q0 -51 -3 -93q-4 -62 -14 -107q-35 -170 -144 -229q-55 -31 -120 -31q-198 0 -198 380q0 25 1 52l29 739q0 6 1 21.5t3 40.5q2 18 2 33v26q0 129 -94 129q-8 0 -76 -6q-35 -2 -61.5 -3t-47.5 -1q-18 0 -38.5 2t-38 3 t-30.5 3l-12 2q-39 0 -68.5 -28.5t-29.5 -67.5z" />
<glyph unicode="V" horiz-adv-x="1523" d="M90 1532q0 -42 28 -72q24 -26 57 -26h9q14 1 26 1q39 0 66 -14q33 -18 43 -139v-145v-744q0 -160 7 -198q16 -113 84.5 -165.5t181.5 -52.5q88 0 180 29q276 94 473 338q182 225 254 520q37 150 37 283q0 256 -139 401q-78 80 -213 80q-33 0 -82 -6q-23 -2 -38 -3t-20 -1 q14 0 -22.5 3t-128.5 7h-6q-37 0 -65 -24q-30 -26 -34 -64v-6q0 -36 22 -64q24 -30 64 -34q16 -2 36 -1t44 3q29 2 47.5 3t26.5 1q72 0 131 -47q106 -88 107 -303q0 -31 -2 -63t-7 -64q-72 -516 -483 -721q-78 -37 -104 -37q-20 0 -39 12q-61 43 -62 320v743v14q0 12 2 33 v66q0 233 -84 233q-8 0 -63 -6t-98 -6t-82 6t-54 6q-41 0 -70.5 -27.5t-29.5 -68.5z" />
<glyph unicode="W" horiz-adv-x="2025" d="M86 1526q0 -39 29.5 -65.5t68.5 -26.5h15q10 0 22 2q18 4 29 0q14 0 29 -9q67 -36 67 -299q0 -49 -2 -106l-20 -543q-1 -36 -1 -68q0 -274 89 -358q77 -71 201 -71h3q23 0 47.5 3t49.5 7q41 8 85 26.5t95 51.5q14 14 31 0q39 -39 77 -56q29 -10 50.5 -17t33.5 -9 q20 -2 43 -2q57 0 132 14q238 47 438 274q164 184 258 433q92 236 92 450q0 211 -98 350q-84 117 -213 117q8 0 -24.5 -2t-106.5 -6h-12q-21 0 -64 4q-27 4 -46.5 5t-33.5 -1q-96 -14 -100 -86v-6q0 -36 22 -64q24 -32 62 -34q27 -2 60.5 1t76.5 7q35 -4 52 -6t19 -2 q33 -8 58 -39q86 -123 86 -338q0 -33 -3 -61.5t-7 -53.5q-33 -180 -156 -383q-145 -242 -324 -315q-55 -23 -86 -23q-29 0 -51 17q-54 39 -54 259q0 35 1 74l24 695q2 16 3 32v35q0 223 -80 277q-24 14 -56 14h-8q-102 -5 -102 -6h2q-8 0 -82 6q-22 2 -39 2q-26 0 -41 -4 q-37 0 -63.5 -26.5t-26.5 -63.5q1 -40 27 -70q25 -29 58 -28h5q38 2 63 2q37 0 44 -4q40 -18 40 -317v-15v-355q0 -145 -30 -282q-43 -182 -121 -230q-28 -16 -52 -16q-20 0 -36 12q-69 48 -68 284q0 46 2 99l29 578q2 49 2 92q0 230 -63 297q-49 52 -119 52q-11 0 -23 -1 q-66 -12 -100 -12q-25 0 -60.5 5t-46.5 5q-39 0 -70.5 -29.5t-31.5 -72.5z" />
<glyph unicode="X" horiz-adv-x="1697" d="M104 1532q0 -40 27 -70q25 -28 61 -28h5q23 2 47 3t47 3h13q59 0 73 -17l420 -499q14 -23 -6 -43q-156 -203 -201 -250l-197 -221q-47 -53 -79.5 -93.5t-49.5 -62.5q-52 -77 -52 -131q0 -7 1 -14q12 -72 78 -101q18 -7 43 -7q10 0 22 1q39 4 67 6t48 2q31 0 98 -6 q35 -2 59.5 -3t41.5 -1q41 0 71.5 26.5t30.5 65.5q0 41 -28.5 74t-67.5 33q-20 0 -37.5 -1t-32.5 -3q-12 -4 -18 6q-6 8 4 20l311 424q14 18 25 19q8 0 20 -17q57 -76 101.5 -136t72.5 -108q43 -68 86 -135t88 -133q100 -135 189 -135q23 0 34 4t29 4q16 1 36 1t44 -1 q12 0 40 -4t38 -4q40 0 66 32q25 29 24 66v6q-2 39 -34 67q-29 26 -67 26h-5q-10 0 -27.5 -3.5t-28.5 -3.5q-45 0 -108 68q-78 104 -143.5 197.5t-122.5 179.5l-111 153q-37 57 -37 93q0 35 47 94q4 6 148 155l116 123q100 104 119 129q53 64 53 117v8q-8 119 -125 119 q-10 0 -29.5 -2t-42 -3t-44 -3t-33.5 -2q-18 0 -82 6q-29 2 -50.5 3t-35.5 -1q-98 -6 -100 -86v-6q-1 -36 21 -64q24 -30 63 -32q23 -6 63 0q23 4 23 -13q0 -14 -9 -22q-117 -197 -219 -311q-14 -14 -26 2l-170 245q-35 53 -72 106.5t-74 106.5q-65 74 -166 74h-10 q-18 1 -36.5 1t-37.5 -1q-27 -4 -46 -6t-31 -2q-23 0 -60 4t-63 4q-41 0 -70 -26.5t-29 -65.5z" />
<glyph unicode="Y" horiz-adv-x="1427" d="M74 1530q0 -39 28.5 -67.5t69.5 -28.5q16 0 32.5 1t37.5 3q35 4 39 2q57 -8 57 -232v1q-1 0 -12 -255l-25 -522q-1 -16 -1 -32q0 -99 32 -187q47 -131 143 -188q82 -49 191 -50q158 0 333 99l19 -15q0 -160 -19 -196q-25 -49 -59 -49q-8 0 -55 8q-29 4 -51.5 6t-38.5 2 q-45 0 -79 -28.5t-36 -73.5v-6q0 -41 28 -72q29 -33 74 -37q2 -1 8 -1q8 0 22 2q24 3 65 7t70.5 7t45.5 3h39t53 -2q41 -4 60 0q23 2 45 19q72 49 72 170q0 18 -2.5 47t-2.5 39v1370v133q0 49 -2 63q-10 152 -57 152q-23 0 -71 -2t-89 -2q-10 0 -32.5 1t-57.5 3q-72 6 -82 6 q-41 0 -70.5 -24.5t-31.5 -63.5v-6q0 -37 22 -66q25 -32 64 -34q25 -1 44 -1q50 0 71 7q47 0 59 -148q2 -16 2 -61v-115v-350q0 -188 -12 -262q-35 -182 -148 -252q-66 -41 -151 -41q-172 0 -172 309q0 -4 0 19t2 69l14 658v12t2 31q2 16 2 30v27q0 184 -84 244 q-16 10 -55 14q-14 1 -31 1t-39 -1q-27 -2 -41 -2h-12q-4 0 -21.5 1t-46.5 3q-25 2 -41 3h-10q-9 0 -16 -1q-39 0 -65.5 -28.5t-26.5 -69.5z" />
<glyph unicode="Z" horiz-adv-x="1335" d="M190 1145h6q35 -1 62 23q29 26 31 63q-1 24 -1 44q0 66 15 83q47 53 328 53q59 0 248 -6q67 -4 67 -32v-1q0 -18 -49 -82l-465 -758q-47 -78 -71.5 -118.5t-28.5 -46.5q-76 -137 -76 -220q0 -104 143 -135q57 -12 224 -12h604q111 0 133 18q20 18 20 125q-12 76 -12 140 v47q0 25 2 51q2 29 2 41q0 14 0 12q0 80 -74 80q-98 0 -102 -72q-6 -90 -6 -153q-10 -76 -105 -90q-16 -2 -82.5 -3t-183.5 -1h-184q-29 0 -52.5 13t-17.5 38q0 57 88 196l441 705q149 236 149 337v1q0 98 -147 129q-63 14 -224 14h-438h-112q-41 0 -52 -2 q-119 -12 -139 -63q-4 -47 -7 -89t-3 -77q-2 -14 -4 -38t-6 -59q-5 -45 -5 -61q0 -92 84 -94z" />
<glyph unicode="[" horiz-adv-x="741" d="M184 -27q0 -272 52 -315q41 -35 106 -35q10 0 23.5 1t33.5 3q23 2 41.5 3t28.5 1q135 -4 190 -6q49 4 83 41t34 86t-35.5 82t-87.5 37q-14 2 -37 2h-57q-41 0 -43 2q-33 13 -33 72v1759q0 57 33 70q2 2 43 2q78 0 126 1t69 3q51 4 88 36.5t37 79.5q0 51 -35 88t-84 42 q-90 -2 -162 -3.5t-129 -5.5q-12 0 -30.5 1t-38 3t-37 3.5t-27.5 1.5q-61 0 -100 -33q-51 -43 -52 -318v-1704z" />
<glyph unicode="\" horiz-adv-x="585" d="M55 -258q0 -31 19.5 -55.5t48.5 -24.5q18 0 48 4t58 4q23 0 50.5 -2t60.5 -6q137 -8 137 174v1569q0 84 60 84q-4 0 7 -1t34 -3q86 -6 92 -6q31 0 52 21.5t21 51.5q0 29 -21.5 50.5t-51.5 21.5q-10 0 -27.5 -1t-37 -3t-40 -3t-35.5 -1q-49 0 -131 12q-135 0 -135 -172 v-426q-2 -10 -4 -18t-16 -8h-62q-33 0 -57.5 -25t-24.5 -59q0 -33 23.5 -56.5t58.5 -23.5h33q49 0 49 -60v-893q0 -86 -61 -86q-14 0 -43 6.5t-31 6.5q-29 0 -51.5 -21.5t-22.5 -50.5z" />
<glyph unicode="]" horiz-adv-x="745" d="M47 -248q0 -51 35 -88t84 -41q90 2 161.5 3t129.5 5q10 0 28.5 -1t40.5 -3q20 -2 33.5 -3t24.5 -1q66 0 106 35q51 43 51 315v1704q0 274 -51 318q-39 33 -100 33q-10 0 -25.5 -1.5t-36.5 -3.5q-23 -2 -41 -3t-30 -1q-133 2 -191 6q-49 -4 -82.5 -40.5t-33.5 -86.5 q0 -47 35.5 -79.5t86.5 -36.5q20 -2 44 -3t51 -1q41 0 43 -2q32 -13 32 -70v-1759q0 -59 -32 -72q-2 -2 -43 -2h-134q-47 0 -61 -2q-51 -4 -88 -37t-37 -82z" />
<glyph unicode="^" horiz-adv-x="843" d="M182 1196h88l236 246l239 -246h82l-245 373h-150z" />
<glyph unicode="_" horiz-adv-x="1056" d="M6 -152v-143h1217v143h-1217z" />
<glyph unicode="`" horiz-adv-x="1120" d="M313 1509q-8 -43 82 -114q6 -4 38 -26.5t89 -61.5l168 -115h90l-157 188q-45 53 -75 87t-44 49q-76 74 -127 61q-55 -18 -64 -68z" />
<glyph unicode="a" horiz-adv-x="954" d="M117 332q0 -152 80 -240q109 -115 297 -115q33 0 76.5 2.5t80.5 14.5q4 2 23.5 9t54.5 22q18 8 45 -2q55 -23 109 -23q57 0 86 20q41 29 41 66q1 5 1 10q0 47 -53 64q-43 14 -51 18q-20 12 -20 37v500v92q0 35 -2 45q-16 100 -74 141q-15 8 -59 8h-19q-127 -6 -135 -6 q-10 0 -41 1t-82 3h-26q-35 0 -48 -4q-80 -31 -79 -104q0 -90 94 -96q20 -2 46.5 1t59.5 7q63 12 80 12q18 0 29 -6q51 -31 51 -293q0 -59 -1 -100t-3 -62q-14 -111 -60.5 -149.5t-107.5 -38.5q-31 0 -49 8q-49 18 -84 64.5t-35 97.5q0 63 43 104q35 33 74 35q-16 -2 1 -3 t68 -1q88 0 101 78q2 15 2 27q0 52 -39 71q-16 8 -41 13.5t-59 7.5h-17q-53 0 -94 -11q-264 -80 -264 -325z" />
<glyph unicode="b" horiz-adv-x="1249" d="M78 1556q-1 -5 -1 -11q1 -29 19 -55q22 -32 54 -32h16t31 2q47 2 47 -20v-948q0 -76 3 -129.5t7 -81.5q20 -119 94 -183q143 -121 350 -121q70 0 127 15q303 70 412 344q31 82 31 192q0 176 -76 283q-152 217 -406 219q-4 0 -9 1q-58 0 -138 -25q-111 -33 -133 -86 q-22 -56 -22 -88q0 -12 3 -21q25 -61 82 -61q27 0 93 34q63 33 90 37q11 1 22 1q122 0 199 -85q72 -82 71 -200q0 -152 -94 -252q-96 -102 -241 -103q-88 0 -140 33q-90 55 -110 229q-6 45 -6 213v881q-1 91 -85 91q-8 0 -18 -1q-47 -4 -67.5 -7t-12.5 -3q-16 0 -39.5 3 t-58.5 7h-6q-30 0 -56 -18q-28 -20 -32 -54z" />
<glyph unicode="c" horiz-adv-x="1015" d="M129 528q-1 -21 -1 -42q0 -270 196 -408q143 -100 340 -101q115 0 206 37q176 72 199 205q3 17 3 32q0 48 -30 73q-28 23 -52 23q-11 0 -21 -5q-84 -68 -127 -117q-45 -47 -123 -57q-21 -2 -41 -2q-149 0 -240 104q-80 92 -80 232q0 61 15 104q78 238 311 238 q111 0 150 -39q14 -10 40 -98q27 -82 46 -101q23 -22 48 -22q13 0 27 6q61 20 61 63q0 6 -1 13q-8 49 -13.5 87t-9.5 64q-2 43 -4 87t-18 59q-45 39 -215 57q-93 9 -152 9q-34 0 -57 -3q-102 -12 -174 -49q-129 -66 -207 -201q-70 -115 -76 -248z" />
<glyph unicode="d" horiz-adv-x="1261" d="M106 516v-19q0 -267 213 -413q168 -109 326 -109q133 0 336 78q55 -43 59 -47q18 -10 37 -6q52 10 72 10h6q39 -2 66.5 -3t44.5 -5q33 2 52 30q17 26 17 57v7q-4 63 -90 72q-8 0 -16 -2h-23q-31 3 -31 95q0 29 3 67v1120q0 94 -7 125q-16 55 -63 55q-27 0 -66.5 -5 t-68.5 -5t-67 5t-64 5q-29 0 -49.5 -22.5t-20.5 -51.5t20.5 -51t49.5 -24q25 -2 44 2t29 4q33 0 39 -74q2 -14 2 -72v-161v-555q0 -150 -6 -189q-16 -125 -86 -176q-90 -68 -221 -68q-55 0 -104 17q-162 57 -197 211q-8 35 -8 80q0 150 98 247q80 80 197 80q41 0 71 -8 q10 -2 25.5 -7t38.5 -15q39 -16 57 -17q25 0 49 19q41 27 41 73q0 9 -2 19q-16 80 -88 104q-104 35 -196 35q-68 0 -135.5 -19.5t-127 -56.5t-109.5 -89t-85 -120q-59 -111 -62 -227z" />
<glyph unicode="e" horiz-adv-x="1120" d="M119 528v-23q0 -292 198 -435q133 -94 357 -95q117 0 190 27q244 90 289 256q5 20 5 39q0 11 -2 21q-5 28 -19.5 45.5t-35 25.5t-38.5 6q-37 -6 -51 -26q-8 -14 -16.5 -26.5t-16.5 -25.5q-49 -61 -90 -88q-90 -59 -223 -59q-74 0 -121 20q-199 82 -199 295 q0 162 93 260.5t284 98.5q96 0 135 -33q47 -41 47 -74q0 -16 -12 -18q-59 -18 -125 -19q-37 0 -100 7q-61 6 -88 6q-123 0 -148 -78q-6 -22 -6 -40q0 -28 14 -48q31 -39 109 -39q16 0 39.5 2t54.5 6q57 8 104.5 12t86.5 4h161q78 6 119 43q36 33 36 94q0 26 -7 58 q-39 186 -232 266q-90 39 -221 39q-207 0 -346 -90q-215 -139 -225 -414z" />
<glyph unicode="f" horiz-adv-x="585" d="M55 -258q0 -31 19.5 -55.5t48.5 -24.5q18 0 48 4t58 4q23 0 50.5 -2t60.5 -6h11q126 0 126 174v944q0 59 47 60h35q35 0 57.5 23.5t22.5 56.5q0 35 -23.5 59.5t-56.5 24.5h-63q-18 0 -19 26v375q0 84 60 84q-4 0 7 -1t34 -3q86 -6 92 -6q31 0 52 21.5t21 51.5 q0 29 -21.5 50.5t-51.5 21.5q-10 0 -27.5 -1t-37 -3t-40 -3t-35.5 -1q-49 0 -131 12q-135 0 -135 -172v-426q-2 -10 -4 -18t-16 -8h-62q-33 0 -57.5 -25t-24.5 -59q0 -33 23.5 -56.5t58.5 -23.5h33q49 0 49 -60v-893q0 -86 -61 -86q-14 0 -43 6.5t-31 6.5q-29 0 -51.5 -21.5 t-22.5 -50.5z" />
<glyph unicode="g" horiz-adv-x="1208" d="M119 446q6 -264 223 -399q113 -70 266 -70q160 0 320 74q20 0 20 -51v-59q0 -94 -20 -115q-35 -41 -140 -41q-20 0 -88 6q-84 6 -94 6q-39 -2 -67.5 -25.5t-28.5 -60.5q0 -41 26 -69q22 -25 53 -25h9q78 8 130 12q35 3 59 3q12 0 22 -1q4 0 20.5 -1t42.5 -3q51 -6 86 -6 q76 0 111 23q61 39 74 141q2 8 2 143v770q0 154 76 154q67 0 67 74q0 75 -80 75q-20 0 -42.5 -4t-45.5 -4q-10 0 -65 6q-33 2 -54 -4q-73 -29 -73 -162q0 -43 6 -106q4 -43 5 -68.5t3 -35.5q2 -35 3 -63t1 -48q0 -193 -94 -272q-94 -78 -207 -78q-45 0 -84 12 q-104 33 -163.5 116t-59.5 193q0 156 88 252q98 109 248 109q14 0 27.5 -1t25.5 -3q8 -2 20.5 -5.5t28.5 -9.5q31 -10 43 -10q27 0 47 21q29 21 29 58q0 10 -2 21q-10 59 -84 91q-58 22 -123 22h-6q-188 0 -340 -102q-221 -151 -221 -454v-26z" />
<glyph unicode="h" horiz-adv-x="1116" d="M92 1562q-1 -5 -1 -10q-1 -24 15 -44q18 -26 48 -29h39t26 2q4 1 8 1q33 0 33 -73v-203v-991q0 -20 -2 -60t-2 -59q0 -94 68 -96q25 0 58.5 4t63.5 4q35 0 70 -4t53 -4q76 0 76 74q0 31 -23.5 53.5t-54.5 24.5q-59 16 -73.5 44.5t-14.5 127.5v198q0 119 17 180 q27 98 102 132q37 18 71.5 18t67.5 -18q80 -41 80 -291q0 -4 -6 -154l-6 -174q0 -10 -1 -26.5t-3 -38.5q-2 -16 -2 -31v-23q0 -94 67 -96q27 0 61 4t64 4q35 0 70 -4t53 -4q31 0 53.5 20.5t22.5 53.5q0 31 -23.5 53.5t-56.5 24.5q-55 14 -72 43q-14 27 -14 129q0 51 2 134 t6 201q1 22 1 41q0 78 -13 121q-20 84 -96 137q-100 70 -262 70q-119 0 -179 -35q-12 -10 -12 15v499q0 106 -55 117q-80 -4 -142 -6q-78 2 -98 6q-5 1 -10 1q-22 1 -44 -15q-26 -20 -30 -48z" />
<glyph unicode="i" horiz-adv-x="516" d="M86 932q0 -33 22.5 -56.5t53.5 -23.5q51 0 61 -37q2 -10 3 -43t1 -90v-313q0 -111 -2 -133l-6 -131v1q0 -104 68 -106q25 0 58.5 4t64.5 4q33 0 62 -4l30 -4q80 0 80 70q0 33 -21.5 56.5t-52.5 23.5q-51 0 -59 38q-6 20 -7 136v333v109q4 57 6.5 89t2.5 40q0 104 -70 106 q-25 2 -58.5 -3t-64.5 -5q-33 0 -62 4l-30 4q-80 0 -80 -69zM184 1337q0 -57 42 -98t100 -41q57 0 98 39t41 96t-41 100.5t-96 43.5q-57 0 -100.5 -41t-43.5 -99z" />
<glyph unicode="j" horiz-adv-x="516" d="M61 -236q0 -28 21 -50q24 -23 55 -23q35 -14 152 -15q143 0 164 15q117 76 118 182q1 16 1 30q0 29 -3 52q-4 35 -12 59q-16 51 -74 115q-27 29 -28 256v272q-2 39 -2 66t2 43q6 113 6 125q0 106 -68 110q-14 2 -27.5 1t-29.5 -3q-37 -6 -66 -6q-35 0 -64 4l-30 4 q-31 0 -54.5 -19t-23.5 -50q0 -33 21.5 -56.5t54.5 -23.5q49 0 59 -37q4 -20 5 -133v-467q0 -115 36 -176q8 -16 64 -72q37 -41 37 -69q0 -18 -8 -33q-15 -39 -62 -39q-10 0 -22 2q-79 14 -121 14q-14 0 -23 -2q-78 -13 -78 -76zM180 1337q0 -57 41 -98t98 -41t99.5 40 t42.5 95q0 57 -41 100.5t-96 43.5q-57 0 -100.5 -41t-43.5 -99z" />
<glyph unicode="k" horiz-adv-x="1114" d="M106 1556q0 -31 23 -54t53 -23q53 0 62 -39q2 -10 3 -43t1 -90v-1071q0 -72 1 -114t3 -52q8 -70 61 -70q25 0 55.5 4t63.5 4t62 -4l30 -4q80 0 80 70q0 33 -21.5 56.5t-52.5 23.5q-51 0 -59 38q-6 20 -6 136v155q0 8 6 13q8 2 14 -7l162 -198q33 -43 64.5 -86t64.5 -88 q92 -113 158 -113q6 0 19.5 1t35.5 3q16 2 30.5 3t24.5 -1q16 0 45 -3t41 -3q76 0 76 74q0 76 -76 76q-12 0 -36.5 -3.5t-34.5 -3.5q-41 0 -66 33q-135 180 -206.5 274.5t-81.5 108.5q-41 53 -41 72q0 20 36 51l150 121q68 55 92 55q8 0 32.5 -3t47.5 -3h7q37 0 61 22 q26 24 26 60q0 67 -82 67h-2q-6 0 -32.5 -5t-43.5 -3q-14 2 -41.5 5t-35.5 3q-59 0 -86 -18q-18 -16 -37 -31.5t-37 -31.5q-70 -53 -125 -99.5t-100 -85.5q-25 -18 -29 23v633q0 12 1 31.5t1 39.5t1 37t1 27q0 102 -66 102q-23 0 -57.5 -5t-66.5 -5q-35 0 -65 5l-30 5 q-78 0 -78 -72z" />
<glyph unicode="l" horiz-adv-x="516" d="M92 1556q0 -31 22.5 -54t53.5 -23q53 0 61 -33q2 -10 3 -45t1 -94q-2 -518 -3 -784.5t-1 -286.5q0 -25 -2 -68t-2 -62q0 -106 66 -106q25 0 58.5 4t66.5 4t62 -4l30 -4q31 0 54.5 19.5t23.5 50.5q0 33 -20.5 56.5t-51.5 23.5q-51 0 -59 32q-6 19 -6 142v1067q0 12 1 31.5 t1 39.5t1 37t1 27q0 102 -66 102q-25 0 -57.5 -5t-65.5 -5q-35 0 -64 5l-28 5q-80 0 -80 -72z" />
<glyph unicode="m" horiz-adv-x="1556" d="M98 924q0 -29 23.5 -50.5t52.5 -21.5q49 0 57 -51q2 -14 3.5 -70.5t1.5 -155.5v-360q0 -25 -2.5 -65.5t-2.5 -55.5q0 -94 66 -94q25 0 57.5 4t65.5 4q18 0 38.5 -1t37 -3t26.5 -3l10 -1q57 0 58 70q0 80 -76 82q-49 14 -57 47q-2 6 -2 125v333q0 139 114 177q31 11 60 11 q38 0 71 -20q47 -25 56 -161q2 -12 2 -58v-123v-268q0 -25 -2 -65.5t-2 -55.5q0 -94 65 -94q25 0 57.5 4t65.5 4q18 0 38.5 -1t37 -3t26.5 -3l11 -1q55 0 55 74q0 33 -23.5 55.5t-52.5 22.5q-51 14 -57 47v125v333q0 139 115 177q31 10 59 10q40 0 74 -21q55 -35 55 -340 v-268q0 -27 -2 -69t-2 -56q0 -90 65 -90q23 0 57 4t66 4q39 0 76 -4l37 -4q55 0 55 74q0 59 -76 78q-47 10 -53 45q-2 8 -3 38.5t-1 88.5v323q0 127 -6 164q-14 78 -74 137q-82 82 -223 82q-51 0 -90 -12q-104 -31 -172 -72q-18 -12 -33 0q-123 68 -141 68q-41 8 -83 8 q-63 0 -128 -18q-35 -14 -59.5 -25.5t-40.5 -22.5l-33 29q-20 18 -45 14q-50 -6 -99 -6q-31 0 -64.5 3t-39.5 3q-29 0 -49.5 -22.5t-20.5 -52.5z" />
<glyph unicode="n" horiz-adv-x="1032" d="M96 911q0 -53 47 -63q20 -4 33.5 -5t22.5 -3q29 -4 32 -45q2 -10 2 -213v-367q0 -27 -2 -69t-2 -56q0 -90 66 -90q23 0 56.5 4t66.5 4q39 0 76 -4l36 -4q55 0 56 74q0 33 -23.5 55.5t-52.5 22.5q-51 14 -57 47v125v333q0 135 114 177q31 11 60 11q38 0 71 -20 q45 -25 54 -161q2 -16 2 -62v-119v-268q0 -25 -2 -64.5t-2 -56.5q0 -94 67 -94q23 0 56.5 4t66.5 4q39 0 76 -4l37 -4q51 0 55 74v6q0 54 -76 72q-49 12 -57 45q-2 6 -2 127v186v174t-2 80q-10 131 -53 176q-57 57 -158 76q-43 8 -85 8q-66 0 -128 -20q-10 -4 -24.5 -11.5 t-29 -15.5t-27.5 -14.5t-20 -6.5q-10 0 -36 31q-25 14 -37 12q-25 -6 -103 -6q-33 0 -68.5 4t-41.5 4q-63 0 -64 -90z" />
<glyph unicode="o" horiz-adv-x="1155" d="M115 508q0 -217 157 -375q159 -153 376 -153h3q221 0 379 149q162 150 162 367q0 229 -156 378q-158 152 -377 152q-223 0 -380 -145q-164 -152 -164 -373zM332 506q0 129 96 219q98 92 229 92q129 0 224 -94q96 -96 96 -223q0 -129 -98 -221q-96 -90 -228 -91 q-131 0 -225 94.5t-94 223.5z" />
<glyph unicode="p" horiz-adv-x="1261" d="M131 934q-1 -7 -1 -14q0 -59 65 -68q43 -4 43 -66v-956q0 -137 20 -172q18 -35 79 -35h13q39 4 68 6t47 2q10 0 28.5 -1t47 -3t43 -3t16.5 -1h6q31 0 56 21q26 22 26 55q0 35 -21.5 62.5t-54.5 27.5q-23 0 -58.5 -3t-53.5 -3q-66 0 -66 53v416q0 162 2 256t6 121 q18 117 117 174q80 49 176 49q59 0 121 -23q184 -68 197 -276q1 -18 1 -35q0 -192 -122 -297q-77 -65 -171 -65h-3q-29 0 -66 10q-51 27 -78 47q-20 14 -40 14l-42 -16q-41 -29 -40 -80q0 -59 83 -108q76 -43 193 -43q133 0 227 51q131 74 209 215q70 121 70 248 q0 129 -51 243q-59 137 -173 213t-262 76q-139 0 -305 -72q-23 -6 -30 0q-18 14 -31.5 23.5t-22.5 13.5q-10 6 -36 6q-16 0 -37 -2q-10 -2 -25 -2h-29q-25 0 -51 6q-31 6 -58.5 -13t-31.5 -52z" />
<glyph unicode="q" horiz-adv-x="1212" d="M119 494q0 -125 67 -250q78 -139 209 -213q94 -51 230 -51q117 0 194 45q82 45 82 106q0 45 -43 80q-21 17 -42 17l-40 -15q-49 -39 -78.5 -48t-64.5 -9q-94 0 -172 65q-122 104 -122 292q0 20 1 40q12 203 190 272q49 20 115 21q109 0 195 -49q94 -55 110 -142 q6 -43 6 -403v-422q0 -137 21 -172q18 -35 79 -35h13q39 4 67.5 6t47.5 2q10 0 28.5 -1t47 -3t43 -3t16.5 -1h6q31 0 55 21q25 22 25 55q0 35 -21.5 62.5t-54.5 27.5q-25 0 -59.5 -3t-50.5 -3q-66 0 -66 57v842v35q4 12 25 20q57 27 65 35q19 19 19 54q0 11 -2 24 q-12 55 -74 55q6 0 -12.5 -1t-63.5 -3q-33 0 -49 8q-39 20 -66.5 34.5t-48.5 25.5q-133 61 -284 61q-180 0 -320 -90q-115 -78 -172 -207q-51 -111 -51 -239z" />
<glyph unicode="r" horiz-adv-x="776" d="M98 932v-8q0 -67 68 -72q20 -2 31 -2h14q20 -4 25 -49v-219v-367q0 -25 -2.5 -65.5t-2.5 -55.5q0 -94 66 -94q25 0 57.5 4t65.5 4q37 0 59.5 -4t38.5 -4q76 0 76 74q0 76 -76 76q-55 0 -63 38v136v315q4 66 14 82q35 74 100 84q9 1 18 1q35 0 66 -18q16 -10 21 -26 q2 -2 2 -33q2 -63 69 -63q27 0 52 24q18 18 24 37q8 25 8 64q0 51 -24 110q-29 70 -70 90q-35 18 -78 19q-74 0 -204 -72q0 63 -54 63q-2 0 -15 -1t-35.5 -3t-41 -3t-35.5 -1q-33 0 -61.5 4t-34.5 4q-31 0 -53.5 -19t-24.5 -50z" />
<glyph unicode="s" horiz-adv-x="765" d="M154 311q0 -12 3 -45t3 -53v-35q0 -18 -2 -41v-45q2 -72 20.5 -89t73.5 -17q20 2 36.5 3t30.5 -1q66 -4 108 -6t62 -2q111 0 181 57q118 99 118 267q0 130 -112 235q-12 12 -215 159q-76 56 -76 99q0 82 74 82q41 0 63 -48q4 -8 27 -81q8 -29 35.5 -43.5t54.5 -8.5 q52 14 52 73q0 8 -1 17q-6 31 -12 53.5t-10 39.5q-6 31 -10.5 53t-6.5 39q-27 57 -96 57q-14 0 -45 -3t-47 -3q-14 2 -28.5 3t-28.5 3q-29 0 -66 -14q-168 -57 -168 -250q0 -121 74 -191q57 -41 112.5 -81.5t112.5 -81.5q100 -72 100 -146v-8q-6 -76 -75 -108 q-35 -17 -66 -17q-33 0 -63 19q-63 39 -63 123q0 10 1 20q2 33 -17.5 57.5t-49.5 26.5h-8q-70 0 -76 -68z" />
<glyph unicode="t" horiz-adv-x="516" d="M96 1266q0 -29 22.5 -51.5t53.5 -22.5q39 -8 49 -39q2 -4 8 -98q5 -41 5 -59q0 -6 -1 -9h-34q-98 0 -99 -94q0 -80 95 -80h34q2 -285 3 -433.5t1 -164.5q0 -27 -2 -69t-2 -56q0 -90 66 -90q23 0 56.5 4t66.5 4q20 0 34.5 -1t24.5 -3q14 -2 24.5 -3t14.5 -1 q29 0 49.5 22.5t20.5 53.5q0 29 -23.5 51.5t-52.5 22.5q-45 8 -55 45q-2 8 -2 129v489h43q92 0 94 76v10q0 88 -98 88h-42v168q1 56 0.5 90t-0.5 45q-8 51 -63 51q-25 0 -57.5 -4t-65.5 -4q2 0 -22.5 2t-75.5 6h-4q-26 1 -46 -21q-20 -24 -20 -54z" />
<glyph unicode="u" horiz-adv-x="1024" d="M92 924q0 -29 23.5 -51.5t52.5 -22.5q20 -6 32.5 -13.5t18.5 -21.5t7 -38.5t1 -63.5v-332q0 -137 11 -188q25 -102 118 -164q70 -45 170 -45q125 0 250 63q80 -45 98 -47q16 0 40 3t32 3h-2q0 -1 74 -6q29 -2 50.5 20.5t21.5 53.5q0 76 -72 76q-31 0 -39 4q-23 18 -23 90 v618v111q-6 26 -55 26h-4q-23 0 -56.5 -4t-66.5 -4q2 0 -22.5 2t-75.5 6h-4q-26 1 -46 -21q-20 -24 -20 -54q0 -29 23.5 -51.5t52.5 -22.5q47 -10 64.5 -38t17.5 -99v-389q0 -53 -33 -99q-33 -49 -92 -65q-31 -8 -84 -8q-74 4 -96 47q-16 37 -17 110v553v111q-6 26 -53 26 h-4q-25 0 -58.5 -4t-66.5 -4q2 0 -22.5 2t-75.5 6h-4q-26 1 -46 -21q-20 -24 -20 -54z" />
<glyph unicode="v" horiz-adv-x="976" d="M96 938q-3 -14 -3 -26q0 -42 38 -60l62 -10q33 -2 32 -33v-438q0 -72 3 -123t8 -82q14 -100 67 -150q45 -39 121 -39q63 0 135 25q168 63 303 260q113 166 142 332q8 35 8 98q0 195 -80 266q-49 43 -113 43h-35q-10 -2 -20 -2h-14q-10 0 -24.5 1t-35.5 4h-8q-15 0 -35 -5 q-63 -20 -76 -67q-1 -6 -1 -11q0 -37 34 -71q25 -22 66 -22q7 0 14 1q18 5 33 5q24 0 43 -13q40 -32 40 -136q0 -18 -1 -38q-10 -121 -74 -250q-72 -147 -172 -198q-34 -17 -59 -17q-17 0 -31 8q-47 41 -47 293v344q0 90 -8 117q-15 57 -66 57q-10 0 -34.5 -3t-47.5 -3 q-6 0 -18.5 1t-28.5 3q-29 4 -41 0q-66 -20 -76 -61z" />
<glyph unicode="w" horiz-adv-x="1472" d="M100 924q0 -68 54 -80q20 -4 32.5 -8.5t16.5 -6.5q23 -12 22 -43v-405q0 -137 11 -188q25 -102 118 -164q66 -41 142 -41q100 0 239 80q47 -90 170 -91q72 0 144 25q172 63 305 260q113 166 141 332q6 39 6 94q0 199 -78 270q-47 43 -112 43q-10 0 -35 -3t-37 -3t-26.5 1 t-30.5 3q-23 2 -43 0q-70 -8 -76 -67v-10q0 -41 31 -72q35 -20 82 -21q68 0 75 -8q40 -29 40 -142q0 -15 -1 -32q-6 -115 -71 -250q-76 -147 -175 -198q-33 -18 -65 -18q-23 0 -45 9q-47 23 -47 144v493q0 88 -6 117q-14 57 -68 57q-10 0 -34.5 -3t-45.5 -3q-18 0 -49 2 t-41 2q-68 -23 -76 -61q0 -72 37 -86l62 -10q31 -4 30 -33v-481q0 -47 -32.5 -86t-77.5 -52q-26 -6 -47 -6q-28 0 -45 11q-53 31 -54 133v534q0 92 -10 117q-8 18 -63 22q-6 0 -19.5 -1t-29 -2t-30 -2t-22.5 -1q-20 0 -46.5 2t-43 3t-18.5 1q-57 0 -58 -77z" />
<glyph unicode="x" horiz-adv-x="1196" d="M129 893q17 -43 86 -43h12h5q36 0 63 -29q23 -27 43 -53.5t43 -52.5l151 -176l-303 -357q-49 -59 -49 -102q0 -41 33 -62q27 -18 59 -18h29q18 0 47 2t47.5 3t28.5 1h18t33 -2q16 -2 29 -2h22q29 0 43 8q39 18 39 76q0 49 -47 72q-8 2 -19.5 3t-27.5 1q-33 0 -33 24 q0 16 19 39l145 178l135 -155q33 -41 66 -80t67 -80q76 -88 121 -88q12 0 34 3t32 3q6 0 18 -1t26.5 -2t26 -2t15.5 -1q49 4 61 8q8 2 35 23q28 24 28 50q0 11 -5 23q-18 57 -70 57q-6 0 -12 -1q-33 -4 -48.5 -6t-13.5 -2q-20 0 -53 36l-305 361l231 270q49 59 56 90 q2 13 2 25q0 67 -70 67q-14 2 -31 2t-35 -2q-47 -6 -63 -6q-12 0 -31.5 1t-39 3t-38.5 2h-30q-49 -4 -49 -63q0 -39 94 -94l-123 -139l-29 30q-47 51 -92 102.5t-90 102.5q-61 61 -125 61q-6 0 -32.5 -3t-47.5 -3q-4 0 -16.5 1t-30.5 3q-29 2 -43 0q-23 -4 -31 -18 q-18 -26 -18 -53q0 -17 8 -35z" />
<glyph unicode="y" horiz-adv-x="1026" d="M90 928q-1 -5 -1 -9q0 -22 15 -41q19 -24 46 -28q66 -4 65 -59v-455q0 -123 14 -172q27 -86 111 -141q70 -43 164 -43h3q105 0 257 65q24 -5 24 -80v-18q-2 -35 -3 -60.5t-5 -42.5q-8 -43 -27.5 -58t-72.5 -19h-62t-59 2q-80 -2 -115 -36q-28 -27 -28 -57q0 -9 2 -18 q12 -51 69 -72q3 -1 14 -1q42 0 195 18q84 10 134.5 20t70.5 21q70 37 70 147v868v154q-6 119 -45 158q-30 30 -93 30h-4l-10 -1t-23.5 -2t-27.5 -2t-27 -1q-12 0 -28.5 1t-29.5 2t-21 2l-9 1q-68 -10 -75 -47q-6 -17 -6 -31q0 -24 18 -38q29 -29 63 -31q57 0 90 -27 q35 -29 35 -211q0 -47 -3 -101t-7 -114q-14 -174 -137 -229q-37 -16 -74 -16q-39 0 -70 18q-55 33 -55 336v311q0 180 -100 180q-10 0 -43 -3t-51 -3q-33 0 -88 6q-33 -2 -48 -26q-2 -4 -5 -15.5t-7 -31.5z" />
<glyph unicode="z" horiz-adv-x="948" d="M195 651q11 -3 21 -3q27 0 48 20q23 20 27 71q2 51 37 80q23 16 155 17h78q57 0 74 -25q0 -33 -60 -129q-276 -434 -319 -504q-43 -72 -43 -110q0 -68 136 -68h16l229 6l233 -6q88 0 117 23q14 14 27 79q6 33 9 58.5t5 46.5q20 93 20 114q0 4 -1 5q2 57 -41 63 q-33 8 -51.5 -1t-29 -25.5t-14.5 -37t-6 -34.5q-23 -70 -37 -84q-31 -35 -84 -39q-121 -6 -143 -6h-5q-61 0 -71 22q-1 6 -1 13q0 25 18 53l225 344q8 20 43 77.5t94 153.5q29 47 29 84q0 92 -126 92h-5q-139 -6 -250 -6h-60t-65 2q-16 2 -35 2q-16 0 -33 2h-13 q-157 0 -167 -47q-2 -8 -6 -33.5t-10 -70.5q-17 -128 -17 -136q0 -50 52 -63z" />
<glyph unicode="{" horiz-adv-x="993" d="M96 496q174 -20 240 -66q92 -57 115 -158q6 -29 6 -166v-114q0 -66 3 -110t7 -68q18 -90 86 -160q137 -147 477 -148v97q-129 14 -219 75q-125 86 -125 222v47q2 16 2 28v19v104q0 248 -115 344q-88 74 -348 113q262 59 336 111q90 66 115 168q14 49 14 182v117v98t2 45 q12 61 68 121q90 94 264 112v107q-129 -8 -226.5 -29.5t-162.5 -60.5q-117 -66 -158 -191q-20 -63 -20 -213v-108q0 -213 -76 -291q-74 -74 -285 -107v-120z" />
<glyph unicode="|" horiz-adv-x="495" d="M242 -125h161v1886h-161v-1886z" />
<glyph unicode="}" horiz-adv-x="993" d="M96 -397v-103q256 18 367 76q137 72 176 180q27 68 27 238v141q0 190 92 268q80 68 272 89v120q-90 14 -151.5 35t-102.5 48.5t-64.5 63.5t-35.5 79q-14 49 -14 153v131q0 131 -13 185q-18 88 -86 159q-74 76 -246 117q-115 29 -221 33v-105q109 -12 176 -47 q117 -59 144 -151q14 -37 14 -174v-113q0 -252 111 -350q82 -74 348 -123q-238 -33 -336 -107q-123 -96 -123 -350v-104q0 -190 -63 -273q-74 -96 -271 -116z" />
<glyph unicode="~" horiz-adv-x="923" d="M174 1343h64q35 78 53 91q41 35 110 8q25 -10 123 -62q63 -33 111 -32q31 0 65 12q113 41 152 235h-57q-31 -72 -35 -75q-43 -47 -107 -35q-55 8 -137 59q-72 41 -121 41q-29 0 -55 -8q-115 -35 -166 -234z" />
<glyph unicode="&#xa1;" horiz-adv-x="681" d="M51 1530q0 -53 37 -91t92 -38q51 0 90 38t39 91q0 51 -40 88t-93 37t-89 -36t-36 -89zM66 1135q0 182 69 221q49 27 98 0q66 -41 66 -217q0 4 0 -23q0 -25 -2 -80q-8 -164 -11 -294t-5 -228q-6 -309 71 -350q55 -12 82 -10q63 -6 84 -27q31 -31 31 -74q0 -63 -76 -76 q-47 4 -85 7.5t-66 3.5q-27 0 -54.5 -1t-60.5 -3q-66 -6 -72 -7q-59 6 -67 64q0 -2 0 25q0 29 2 86q6 297 6 471q0 158 -6 413q0 2 -1 13.5t-1 25.5q0 16 -1 31.5t-1 28.5z" />
<glyph unicode="&#xa2;" horiz-adv-x="995" d="M106 922q0 -80 21 -148q41 -141 127 -215t240 -119q53 -16 59 -28q8 -10 10 -68l6 -61q6 -43 43 -58q31 -18 66 5.5t39 66.5q-2 -10 -2 8t-2 66q0 33 7 42t38 17l69 19q201 74 236 208q16 72 -21 111q-39 41 -77 20q-35 -29 -65 -56t-52 -50q-78 -70 -197 -70 q-131 0 -219 88q-100 100 -100 248q0 211 207 314q45 23 123 22q111 0 149 -39q23 -23 53.5 -104.5t36.5 -87.5q33 -45 78 -35q33 8 47 29q8 12 18 43q-4 -14 -22 182q-4 47 -6 77.5t-2 47.5q-23 51 -94 59q-8 2 -41 2h-93q-47 0 -55 6q-18 8 -18 52q0 8 2 30.5t2 36.5 q0 63 -43 86q-39 18 -76 -2t-37 -84q0 -12 2 -36.5t2 -35.5q0 -33 -18 -38q-168 -51 -303 -193q-137 -139 -138 -358z" />
<glyph unicode="&#xa3;" horiz-adv-x="1251" d="M176 180q0 -119 84 -172q53 -29 119 -28q57 0 122.5 21.5t102.5 74.5q10 18 19.5 36.5t19.5 39.5q133 -127 180 -150q43 -20 117 -20q102 0 160 38q160 106 160 429h-46q-33 -94 -63 -121q-53 -53 -182 -49q-66 2 -129 18q-14 4 -41 12t-66 23q55 215 49 432h258v174 h-282q-12 143 -88 399q-10 41 -11 74q0 143 127 174q8 2 14.5 3t14.5 1q45 0 76 -35q25 -29 24 -55l3 -149q4 -78 51 -115q27 -25 88 -25q72 0 119 41t47 113q0 45 -19 92q-59 145 -203 182q-70 16 -135 17q-213 0 -344 -129q-123 -121 -135 -320q-4 -70 7.5 -136t37.5 -132 h-205v-174h242q68 -156 98 -377q-66 10 -99.5 15.5t-35.5 5.5q-33 0 -65 -7q-119 -23 -177 -137q-14 -27 -14 -84zM248 172q0 57 41 92t96 35q111 0 170 -72q-18 -111 -94 -159q-37 -25 -84 -25q-59 0 -90 35q-39 41 -39 94z" />
<glyph unicode="&#xa4;" horiz-adv-x="1150" d="M43 309l121 -121l115 115q106 -94 296 -94q193 0 302 96l110 -115l119 119l-111 111q96 115 97 297q0 199 -97 291l113 114l-131 131l-117 -112q-102 84 -285 84q-186 0 -292 -88l-113 112l-125 -125l111 -110q-94 -106 -95 -297q0 -184 95 -297zM287 717q0 131 80 217 q82 86 208 86q127 0 209 -88q82 -84 82 -215q0 -66 -21.5 -121t-59 -96t-92 -63.5t-118.5 -22.5q-127 0 -208 86q-80 86 -80 217z" />
<glyph unicode="&#xa6;" horiz-adv-x="282" d="M45 313v-649h201v649h-201zM45 672h201v694h-201v-694z" />
<glyph unicode="&#xa7;" horiz-adv-x="802" d="M29 760q0 -102 61 -189q35 -49 119 -120q35 -29 68.5 -55.5t68.5 -55.5q47 -39 79 -65.5t46 -43.5q68 -66 68 -120q0 -53 -37 -86t-101 -33q-98 -1 -98 71l4 33q8 31 8 56q0 98 -96 98q-51 0 -83 -38t-32 -91q0 -117 93 -180q82 -59 194 -60q139 0 234 82q96 80 96 215 q0 119 -121 244q6 4 10 8l6 6q51 49 84 84t48 58q55 82 55 184q0 168 -225 346q-139 111 -166 137q-115 104 -115 166q0 51 39 85t100 34q98 0 99 -72v-4q-2 -4 -3 -12l-4 -15l-4 -20q-2 -8 -2 -35q0 -104 96 -104q113 0 113 129q0 113 -92 184q-84 61 -197 61 q-137 0 -231 -81.5t-94 -219.5q0 -125 112 -243q-96 -86 -137 -148q-63 -88 -63 -190zM205 836q0 72 110 186l181 -154q129 -111 129 -192q0 -74 -107 -180l-96 82q-217 184 -217 258z" />
<glyph unicode="&#xa8;" horiz-adv-x="905" d="M188 1493q16 -66 70 -96q55 -25 104 4q57 33 64 98q2 31 -10.5 56.5t-35 42t-50 23.5t-56.5 1q-96 -35 -86 -129zM602 1503q0 -47 33 -80q45 -49 110 -32q76 20 91 90q2 8 3 14t1 14q0 51 -45 90q-47 43 -113 23q-35 -10 -57.5 -46t-22.5 -73z" />
<glyph unicode="&#xa9;" horiz-adv-x="1497" d="M61 924q0 -297 209 -508q211 -209 508 -209q295 0 508 209q211 211 211 508q0 299 -211 508q-209 211 -508 210q-297 0 -508 -210q-209 -213 -209 -508zM158 924q0 258 182 440t438 182q258 0 440.5 -182t182.5 -440q0 -256 -182.5 -438.5t-440.5 -182.5 q-256 0 -438 182.5t-182 438.5zM293 883q0 -174 133 -301q137 -127 328 -127q59 0 127 12q88 20 161 63q98 59 127 134q12 29 5 49q-16 43 -60 32q-23 -4 -37 -18q-12 -14 -24.5 -26.5t-22.5 -24.5q-37 -37 -90 -64q-82 -41 -188 -41q-98 0 -158 35q-72 39 -111 129 q-35 76 -34 139q-2 78 38 173q43 94 117 147q113 76 250 76q49 0 84 -13.5t39 -50.5v-47q2 -27 26.5 -44t49.5 -5q37 16 39 61q-2 -4 -2 7q0 12 -3 41v43q2 63 -20.5 87.5t-144.5 28.5q-107 2 -156 -6q-51 -8 -86 -16t-55 -17q-150 -57 -240 -176q-92 -123 -92 -280z" />
<glyph unicode="&#xab;" horiz-adv-x="665" d="M39 410q4 -20 4 -23l18 -178q12 -59 66 -59h70q51 0 51 45l-33 254l147 253l11 21l4 20q0 31 -45 31h-53l-48 -8q-14 -8 -32 -33l-138 -233l-16 -37l-6 -37v-16zM293 438l22 -229q12 -59 66 -59h70q51 0 51 45l-33 254l147 253l11 23l4 18q0 31 -45 31h-54l-47 -8 q-14 -8 -32 -33l-138 -233l-12 -23l-6 -22z" />
<glyph unicode="&#xad;" horiz-adv-x="813" d="M131 487q-2 -63 68 -77q49 -10 75 22q20 20 31 80q8 39 37 43q59 -4 109.5 -7t95.5 -3q115 0 149 18q72 41 72 142q0 174 -49 204q-37 23 -76 9q-33 -10 -40 -44t-11 -69q0 -45 -27 -53q-12 -6 -57 -2q-92 8 -137 11t-47 3q-121 0 -162 -41q-27 -27 -29 -123 q-2 -29 -2 -57v-56z" />
<glyph unicode="&#xae;" horiz-adv-x="1499" d="M61 924q0 -297 209 -508q211 -209 508 -209q295 0 508 209q211 211 211 508q0 299 -211 508q-209 211 -508 210q-297 0 -508 -210q-209 -213 -209 -508zM158 924q0 258 182 440t438 182q258 0 440.5 -182t182.5 -440q0 -256 -182.5 -438.5t-440.5 -182.5 q-256 0 -438 182.5t-182 438.5zM375 1298q2 -49 55 -49q45 0 43 2q33 -8 33 -63v-514q0 -168 35 -197q25 -16 96 -14h22q6 2 25 2q8 0 22.5 -2t20.5 -2q53 0 53 53q0 55 -53 55q-45 0 -53 6q-41 23 -41 179v366q6 63 61 99q70 43 142 22q53 -16 75 -63q27 -57 -16 -111 q-35 -39 -74 -47q-27 -4 -51.5 -6t-48.5 -6q-61 -10 -62 -66q0 -31 26 -75t52 -89l117 -198q10 -23 22.5 -43.5t22.5 -42.5q27 -35 68 -33q27 2 46.5 3t35.5 1q10 0 29.5 -2t29.5 -2q51 0 51 55q0 53 -57 53h-33q-55 8 -129 115q-16 27 -44 72t-62 108q-14 25 20 43 q33 16 65.5 32.5t67.5 33.5q55 41 72 133q2 10 3 22.5t1 22.5q0 115 -96 174q-72 41 -154 41q-92 0 -164 -45q-14 -8 -28 2q-35 33 -84 33q-8 0 -25.5 -3t-28.5 -3q-4 0 -9 1l-15 3q-18 4 -35 0q-53 -4 -49 -56z" />
<glyph unicode="&#xb4;" horiz-adv-x="954" d="M449 1190h92l172 115q57 39 89 60t40 28q82 63 76 108q-10 55 -62 70q-47 16 -143 -80q-27 -33 -53.5 -63.5t-55.5 -61.5z" />
<glyph unicode="&#xb6;" horiz-adv-x="1140" d="M61 1341q-12 -174 101 -274q104 -92 282 -92h224v-1125h141v1686h84v-1686h143v1686h94v90h-718q-147 0 -240 -67q-102 -74 -111 -218zM414 1307q-4 98 53 163.5t156 65.5h45v-467h-45q-119 0 -164 64q-43 55 -45 174z" />
<glyph unicode="&#xb8;" horiz-adv-x="833" d="M203 -516q156 -68 317 -68q125 0 195 45q102 66 114 183q0 49 -18 88t-50 64.5t-74 39.5t-87 14t-92 -8l96 158h-133l-147 -240l57 -47q72 16 104 17q106 0 105 -99q-4 -41 -49 -71q-27 -14 -76 -15q-84 0 -213 47z" />
<glyph unicode="&#xbb;" horiz-adv-x="665" d="M35 180q0 -31 45 -30h51l49 8q14 8 33 32l137 234l10 18l7 21q4 20 4 18l2 19l-23 215q-6 59 -67 59h-68q-51 0 -51 -51l33 -248l-148 -254l-6 -10l-6 -16zM289 180q0 -31 45 -30h51l49 8q14 8 33 32l137 234l17 37l6 37l-2 14v20l-21 183q-6 59 -67 59h-68 q-51 0 -51 -51l33 -248l-148 -254l-6 -10l-6 -16z" />
<glyph unicode="&#xbf;" horiz-adv-x="884" d="M150 231q0 -117 55 -180q63 -74 227 -74q25 0 53.5 2.5t63.5 6.5q16 0 108 -6q80 -6 111 4q53 14 90 47q41 47 27 164q-4 41 -5 79.5t3 77.5q-6 53 -21 70q-10 12 -41 22q-43 14 -73.5 -13.5t-34.5 -90.5q-2 -74 -11 -88q-35 -74 -116 -74q-172 0 -172 113q0 145 133 428 l47 98q113 231 113 363q0 72 -35 118q-47 61 -94 62q-45 0 -73 -23.5t-20 -56.5q23 -94 -10 -201q-31 -72 -57.5 -126t-48.5 -95l-50 -90q-170 -315 -169 -537zM440 1583q0 -53 38 -91t91 -38t91 38t38 91t-37.5 91t-91.5 38q-53 0 -91 -38t-38 -91z" />
<glyph unicode="&#xc0;" horiz-adv-x="1689" d="M176 117q0 -53 27 -80q33 -37 90 -37q16 0 55 4t62 4q27 0 66.5 -2t94.5 -6q39 -4 69 25.5t30 70.5t-30 71t-69 30h-61q-18 0 -14 18q49 186 133 330q33 55 63 80q35 27 99 26h417q61 0 90 -17.5t54 -72.5q33 -94 60.5 -177t49.5 -159q2 -12 0 -20q-4 -10 -18 -8 q-31 2 -64.5 -1t-61.5 -13.5t-46.5 -31t-18.5 -53.5q0 -41 29 -70.5t68 -27.5q12 0 33.5 1t54.5 3q29 2 48 3t32 1q25 0 64.5 -4t57.5 -4q66 0 113 47q25 25 25 68q0 59 -74 229l-436 999q-74 168 -80 179q-72 133 -133 133t-142 -119q-4 -8 -28.5 -50t-67.5 -120l-520 -936 q-121 -219 -121 -313zM571 2167q-8 -43 82 -115q6 -4 38 -26.5t89 -61.5l168 -115h90l-157 189q-43 51 -71 82.5t-40 44.5q-70 70 -119 69q-27 0 -50 -20.5t-30 -46.5zM813 874l205 361l164 -346q-14 -27 -244 -27q-117 0 -125 12z" />
<glyph unicode="&#xc1;" horiz-adv-x="1689" d="M176 117q0 -53 27 -80q33 -37 90 -37q16 0 55 4t62 4q27 0 66.5 -2t94.5 -6q39 -4 69 25.5t30 70.5t-30 71t-69 30h-61q-18 0 -14 18q49 186 133 330q33 55 63 80q35 27 99 26h417q61 0 90 -17.5t54 -72.5q33 -94 60.5 -177t49.5 -159q2 -12 0 -20q-4 -10 -18 -8 q-31 2 -64.5 -1t-61.5 -13.5t-46.5 -31t-18.5 -53.5q0 -41 29 -70.5t68 -27.5q12 0 33.5 1t54.5 3q29 2 48 3t32 1q25 0 64.5 -4t57.5 -4q66 0 113 47q25 25 25 68q0 59 -74 229l-436 999q-74 168 -80 179q-72 133 -133 133t-142 -119q-4 -8 -28.5 -50t-67.5 -120l-520 -936 q-121 -219 -121 -313zM813 874l205 361l164 -346q-14 -27 -244 -27q-117 0 -125 12zM1026 1845h96l168 117q33 23 64.5 44.5t64.5 43.5q86 66 76 107q-10 51 -61 71q-47 14 -144 -82q-8 -4 -108 -123z" />
<glyph unicode="&#xc2;" horiz-adv-x="1689" d="M176 117q0 -53 27 -80q33 -37 90 -37q16 0 55 4t62 4q27 0 66.5 -2t94.5 -6q39 -4 69 25.5t30 70.5t-30 71t-69 30h-61q-18 0 -14 18q49 186 133 330q33 55 63 80q35 27 99 26h417q61 0 90 -17.5t54 -72.5q33 -94 60.5 -177t49.5 -159q2 -12 0 -20q-4 -10 -18 -8 q-31 2 -64.5 -1t-61.5 -13.5t-46.5 -31t-18.5 -53.5q0 -41 29 -70.5t68 -27.5q12 0 33.5 1t54.5 3q29 2 48 3t32 1q25 0 64.5 -4t57.5 -4q66 0 113 47q25 25 25 68q0 59 -74 229l-436 999q-74 168 -80 179q-72 133 -133 133t-142 -119q-4 -8 -28.5 -50t-67.5 -120l-520 -936 q-121 -219 -121 -313zM682 1843h86l236 248l241 -248h82l-248 373h-147zM813 874l205 361l164 -346q-14 -27 -244 -27q-117 0 -125 12z" />
<glyph unicode="&#xc3;" horiz-adv-x="1689" d="M180 115q0 -51 27 -78q37 -37 92 -37q16 0 55 4t62 4q25 0 64.5 -2t97.5 -6q39 -4 68.5 25.5t29.5 70.5t-30 71t-68 30h-62q-18 0 -14 18q49 180 133 330q37 61 70.5 83.5t91.5 22.5h417q61 0 90 -17.5t54 -72.5q33 -94 59.5 -177t48.5 -159q6 -10 2 -20t-18 -8 q-33 2 -66.5 -1t-61.5 -13.5t-45 -31t-17 -53.5q0 -41 28.5 -70.5t67.5 -27.5q12 0 33.5 1t54.5 3q29 2 48 3t32 1q25 0 64.5 -4t56.5 -4q68 0 114 47q23 23 23 66q0 59 -74 231l-434 999q-72 166 -80 179q-72 133 -133 133q-66 0 -141 -119q-16 -23 -99 -170l-518 -936 q-123 -221 -123 -315zM692 1837h66q29 68 53 90q41 35 109 8q25 -8 124 -61q63 -33 111 -33q31 0 66 12q113 41 151 238h-59q-14 -35 -22.5 -53.5t-10.5 -22.5q-45 -45 -106 -37q-53 8 -140 60q-72 41 -119 41q-31 0 -57 -8q-109 -35 -166 -234zM819 874l205 361l162 -346 q-12 -27 -242 -27q-117 0 -125 12z" />
<glyph unicode="&#xc4;" horiz-adv-x="1689" d="M188 115q0 -51 27 -78q37 -37 92 -37q16 0 55 4t62 4q27 0 66.5 -2t95.5 -6q39 -4 68.5 25.5t29.5 70.5t-29.5 71t-68.5 30h-62q-18 0 -14 18q49 180 133 330q37 61 71 83.5t91 22.5h418q61 0 89.5 -17.5t53.5 -72.5q33 -94 60.5 -177t50.5 -159q2 -12 0 -20 q-4 -10 -19 -8q-20 2 -42.5 1t-47.5 -3q-41 -4 -70.5 -31t-29.5 -66q0 -41 28.5 -70.5t67.5 -27.5q12 0 33.5 1t54.5 3q29 2 48.5 3t31.5 1q25 0 64.5 -4t58.5 -4q66 0 112 47q23 23 23 66q0 59 -74 231l-434 999q-72 166 -80 179q-72 133 -133 133q-66 0 -141 -119 q-16 -23 -99 -170l-518 -936q-123 -221 -123 -315zM713 1948q16 -66 69 -97q57 -23 105 2q61 41 63 99q6 61 -45 100t-106 25q-90 -35 -86 -129zM827 874l205 361l164 -346q-14 -27 -244 -27q-117 0 -125 12zM1128 1960q0 -45 31 -84q53 -47 113 -31q74 20 88 90q2 8 3 14.5 t1 14.5q0 51 -45 90q-43 43 -113 23q-78 -29 -78 -117z" />
<glyph unicode="&#xc5;" horiz-adv-x="1689" d="M178 115q0 -51 27 -78q37 -37 90 -37q16 0 55 4t62 4q27 0 66.5 -2t96.5 -6q39 -4 69 25.5t30 70.5t-30 71t-69 30h-59q-20 0 -16 18q45 182 131 330q33 57 67.5 81.5t96.5 24.5h417q59 0 88 -18.5t56 -71.5q33 -94 59.5 -177t48.5 -159q4 -14 2 -20q-8 -10 -18 -8h-57 q-23 0 -33 -2q-41 -4 -71 -31t-30 -66q0 -41 28 -70.5t67 -27.5q14 0 35.5 1t54.5 3q29 2 48 3t30 1q12 0 29.5 -1t36 -3t33.5 -3t23 -1q68 0 115 47q23 23 23 66q0 59 -74 231l-434 999q-72 162 -80 179q-72 133 -135 133q-61 0 -142 -119q-14 -16 -96 -170l-518 -936 q-123 -221 -123 -315zM758 2093q0 -115 80 -201q82 -84 196.5 -86t202.5 78q84 82 88 197q2 115 -82 203q-81 84 -196 88q-111 2 -203 -82q-86 -84 -86 -197zM817 874l205 361l162 -346q-14 -27 -244 -27q-115 0 -123 12zM870 2091q0 35 14.5 65.5t38 53t55.5 36t66 13.5 q35 0 66 -14.5t53.5 -39t35.5 -55t13 -65.5t-14 -65.5t-38.5 -53t-55.5 -35t-66 -12.5q-70 2 -119 52t-49 120z" />
<glyph unicode="&#xc6;" horiz-adv-x="2680" d="M135 362q-6 -74 8 -137q4 -150 7 -157q18 -90 102 -121q51 -18 117 -19q117 0 260 60q133 53 241 139q137 106 244 266q29 43 50.5 77t35.5 60q51 94 103 117q31 14 127 15q45 0 72.5 -2.5t40.5 -10.5t18.5 -21.5t9.5 -33.5q2 -6 2 -76v-201q0 -10 -1 -27.5t-3 -44 t-3 -47t-1 -34.5q0 -117 59 -154q27 -14 109 -6q27 -2 61.5 -3t81.5 1h22q20 -2 33 -2h19q18 0 35 6q33 2 57 2h47q35 0 87 -2t118 -6q229 -8 286 14q61 27 62 162q0 6 -1 27.5t-3 60.5q0 -4 6 125q2 39 -23.5 67.5t-62.5 30.5q-39 2 -68.5 -24.5t-29.5 -61.5v-43 q0 -70 -6 -94q-12 -41 -54 -45l-446 -4q-86 0 -115 29q-25 57 -24 297v282q8 49 69 49h289q29 0 39 -18q2 -2 14 -49l6 -23q25 -90 99 -86q37 2 61.5 31t24.5 68q-4 37 -6.5 65.5t-4.5 50.5l-6 99l-2 34q-23 59 -180 54q-29 -4 -55.5 -6t-53.5 -5q-53 -4 -96 -7t-76 -3 q-100 0 -114 21q-6 6 -8 30v240q8 23 38.5 31t61.5 14q53 10 225 4q176 -6 240 -22q12 -4 18 -40t10 -71q18 -90 99 -86q39 2 64.5 30.5t21.5 67.5q-12 82 -25 148q-2 57 -4 89t-4 36q-23 59 -221 59h-35q-18 0 -39 -2q-25 -2 -37 -2h-14q-231 -6 -365 -6h-53q-29 0 -63 2 q-47 16 -156 6q-35 2 -57 2h-31q-32 0 -59 -14q-51 -4 -107.5 -1t-118.5 11q-45 6 -81 -24.5t-38 -75.5t28 -81t73 -38q37 -2 76 10q10 4 22 9.5t23 9.5q0 -133 -101 -367l-73 -174q-57 -133 -112.5 -236.5t-113.5 -179.5q-158 -207 -362 -274q-74 -23 -109 -23 q-41 0 -71.5 21.5t-38.5 62.5q-2 10 -2 78q0 41 -26 70.5t-65 29.5q-41 0 -70.5 -23.5t-27.5 -56.5zM1378 866l142 469q20 70 49 70q2 -8 2 -23v-34v-451q14 -31 -23 -31h-170z" />
<glyph unicode="&#xc7;" horiz-adv-x="1685" d="M100 743q0 -299 244 -530q248 -231 567 -231l-125 -205l58 -47q72 16 104 16q104 0 105 -98q0 -39 -49 -72q-27 -14 -76 -14q-84 0 -213 47l-49 -109q156 -68 317 -67q125 0 195 45q117 70 116 182q0 98 -71 154q-72 53 -160 53q-45 0 -92 -8l76 129q12 0 29.5 2t35.5 5 t34.5 5t27.5 2q78 16 151.5 45t142.5 70q176 102 232 239q12 31 12 58q0 37 -20 57q-29 37 -93 37q-43 -10 -67 -35q-23 -23 -44.5 -46.5t-43.5 -45.5q-61 -61 -162 -115q-145 -74 -342 -73q-182 0 -289 63q-127 74 -202 233q-61 131 -62 254q0 147 72 308q80 176 211 264 q211 139 458 139q90 0 146 -20q76 -27 76 -93q0 -10 -2 -33.5t-2 -33.5q0 -66 51 -98q43 -29 90 -13q70 33 69 113q0 14 -4 40.5t-4 43.5q0 14 2 36.5t2 45.5q0 123 -41 164q-47 49 -346 49q-78 0 -128 -3t-74 -7q-197 -41 -252 -62q-494 -193 -596 -702q-14 -63 -15 -138z " />
<glyph unicode="&#xc8;" horiz-adv-x="1425" d="M123 1538q-2 -43 24.5 -73.5t67.5 -30.5q74 0 90 -13q14 -8 14 -63v-957v-180q10 -141 48 -178q45 -45 254 -41q135 6 213 6q35 0 87 -2t117 -6q229 -8 287 14q61 27 61 162q0 6 -1 27.5t-3 60.5q0 -4 7 125q2 39 -24 67.5t-62 30.5q-39 2 -69 -24.5t-30 -61.5v-43 q0 -70 -6 -94q-12 -41 -53 -45l-447 -4q-90 0 -116.5 32t-26.5 118v411q0 96 74 96h289q29 0 38 -18q2 -2 15 -49l6 -23q25 -90 98 -86q37 2 61.5 31t24.5 68q-4 37 -6 65.5t-4 50.5l-6 99l-2 34q-23 59 -180 54q-29 -4 -55.5 -6t-53.5 -5q-53 -4 -96 -7t-76 -3 q-100 0 -114.5 18.5t-12.5 241.5q-2 43 31 58q8 2 73 18q53 10 226 4q176 -6 239 -22q12 -4 18.5 -40t10.5 -71q18 -90 98 -86q39 2 64.5 30.5t21.5 67.5q-12 82 -24 148q-2 57 -4 89t-4 36q-23 59 -222 59h-34t-39 -2q-25 -2 -37 -2h-15q-231 -6 -364 -6q-92 0 -181 3 t-180 7q-41 2 -74.5 -23.5t-35.5 -66.5zM410 2167q-10 -43 79 -115q10 -8 42 -30.5t85 -57.5l170 -115h88l-155 189q-164 197 -232 196q-63 0 -77 -67z" />
<glyph unicode="&#xc9;" horiz-adv-x="1425" d="M131 1538q-2 -43 25.5 -73.5t68.5 -30.5q37 0 57.5 -2t31 -9.5t12.5 -23t2 -41.5v-957v-125t2 -55q10 -141 47 -178q45 -45 252 -41q135 6 213 6q35 0 87 -2t118 -6q229 -8 286 14q61 27 62 162q0 6 -1 27.5t-3 60.5q-2 18 6 125q2 39 -23.5 67.5t-62.5 30.5 q-39 2 -69 -24.5t-30 -61.5v-43q0 -74 -6 -94q-12 -41 -53 -45l-446 -4q-90 0 -119 35q-25 27 -25 115v411q0 96 74 96h289q29 0 39 -18q2 -2 14 -49l6 -23q25 -90 98 -86q37 2 62.5 31t23.5 68q-4 37 -6 65.5t-4 50.5l-6 99l-2 34q-23 59 -180 54q-29 -4 -55.5 -6t-53.5 -5 q-53 -4 -96 -7t-76 -3q-100 0 -115 19q-14 20 -12 241q-2 43 31 58q8 2 74 18q53 10 225 4q176 -6 240 -22q12 -4 17 -40t11 -71q20 -90 99 -86q39 2 64.5 30.5t23.5 67.5q-12 55 -18.5 92t-8.5 56q-6 121 -8 125q-23 59 -221 59h-35q-18 0 -41 -2t-35 -2h-12 q-233 -6 -365 -6q-92 0 -182 3t-180 7q-41 2 -75 -23.5t-36 -66.5zM705 1849h94l170 115q59 41 91 62.5t36 25.5q84 66 78 109q-10 55 -64 69q-47 16 -143 -80q-2 -4 -29 -34.5t-80 -90.5z" />
<glyph unicode="&#xca;" horiz-adv-x="1425" d="M119 1538q-2 -43 24.5 -73.5t67.5 -30.5q37 0 57.5 -2t30.5 -9.5t12 -23t2 -41.5v-957v-120q0 -45 2 -60q10 -141 47 -178q45 -45 252 -41q135 6 213 6q35 0 87.5 -2t117.5 -6q229 -8 287 14q63 27 63 164q0 6 -1 27.5t-3 58.5q-2 16 -1 48t5 77q2 39 -22.5 67.5 t-63.5 30.5t-68.5 -24.5t-29.5 -61.5v-43q0 -74 -6 -94q-12 -41 -53 -45l-447 -4q-88 0 -114 33q-18 25 -29 117v411q0 96 74 96h288q29 0 39 -18q2 -2 15 -49l6 -23q25 -90 98 -86q39 2 63.5 31t22.5 68q-4 37 -6 65.5t-4 50.5q-2 63 -4 96t-4 37q-23 59 -181 54 q-29 -4 -55.5 -6t-52.5 -5q-53 -4 -96 -7t-76 -3q-100 0 -115 19q-14 20 -12 241q-2 43 31 58q8 2 73 18q53 10 226 4q178 -6 241 -22q10 -4 17 -41q4 -35 7 -51.5t3 -18.5q20 -90 98 -86q39 2 64.5 30.5t23.5 67.5q-12 55 -18 92t-8 56q-6 121 -9 125q-23 59 -221 59h-35 q-18 0 -40.5 -2t-34.5 -2h-13q-231 -6 -364 -6q-92 0 -182.5 3t-180.5 7q-41 2 -73.5 -23.5t-34.5 -66.5zM420 1843h88l235 248l242 -248h82l-248 373h-149z" />
<glyph unicode="&#xcb;" horiz-adv-x="1425" d="M123 1538q-2 -43 24.5 -73.5t67.5 -30.5q74 0 90 -13q14 -8 14 -63v-957v-180q10 -141 48 -178q45 -45 254 -41q135 6 213 6q35 0 87 -2t117 -6q229 -8 287 14q61 27 61 162q0 6 -1 27.5t-3 60.5q0 -4 7 125q2 39 -24 67.5t-62 30.5q-39 2 -69 -24.5t-30 -61.5v-43 q0 -70 -6 -94q-12 -41 -53 -45l-447 -4q-90 0 -116.5 32t-26.5 118v411q0 96 74 96h289q29 0 38 -18q2 -2 15 -49l6 -23q25 -90 98 -86q37 2 61.5 31t24.5 68q-4 37 -6 65.5t-4 50.5l-6 99l-2 34q-23 59 -180 54q-29 -4 -55.5 -6t-53.5 -5q-53 -4 -96 -7t-76 -3 q-100 0 -114.5 18.5t-12.5 241.5q-2 43 31 58q8 2 73 18q53 10 226 4q176 -6 239 -22q12 -4 18.5 -40t10.5 -71q18 -90 98 -86q39 2 64.5 30.5t21.5 67.5q-12 82 -24 148q-2 57 -4 89t-4 36q-23 59 -222 59h-34t-39 -2q-25 -2 -37 -2h-15q-231 -6 -364 -6q-92 0 -181 3 t-180 7q-41 2 -74.5 -23.5t-35.5 -66.5zM502 1942q12 -63 69 -97q61 -23 105 4q59 35 65 99q2 57 -49 100q-47 37 -102 23q-92 -33 -88 -129zM920 1952q0 -45 28 -80q49 -45 113 -31q94 20 94 117q0 25 -12.5 49.5t-34 40.5t-50 23.5t-63.5 -0.5q-76 -27 -75 -119z" />
<glyph unicode="&#xcc;" horiz-adv-x="888" d="M211 2167q-10 -43 80 -115q8 -6 39.5 -27.5t87.5 -60.5l168 -115h90l-158 189q-43 51 -70.5 82.5t-39.5 44.5q-70 70 -119 69q-66 0 -78 -67zM225 1532q0 -39 27 -66.5t67 -29.5q37 -2 74 4q53 4 64 -58q2 -16 3 -77.5t1 -171.5v-662q0 -41 -1 -81t-3 -79 q-4 -31 -25 -123q-18 -86 -16 -98q14 -80 71 -88q16 0 38 1t50.5 3t48 3t29.5 1q16 0 41 -1t60 -3q31 -2 47 -3t20 -1q39 0 68 28.5t29 67.5t-28 67t-69 30q-35 2 -71 -5q-55 -2 -64 58q-2 14 -3 75.5t-1 172.5v663v98q0 41 2 62q2 31 25 123q20 82 18 98q-14 78 -74 88 q-33 0 -88 -6t-78 -6q-33 0 -96 6q-66 6 -72 6q-39 0 -66.5 -28.5t-27.5 -67.5z" />
<glyph unicode="&#xcd;" horiz-adv-x="706" d="M86 1532q0 -39 27.5 -66.5t68.5 -29.5q37 -2 74 4q53 4 63 -58q2 -16 3.5 -77.5t1.5 -171.5v-662q0 -41 -1 -81t-4 -79q-4 -31 -24 -123q-18 -86 -16 -98q14 -80 71 -88q16 0 38 1t50.5 3t48 3t29.5 1q14 0 40 -1t60 -3q31 -2 47.5 -3t20.5 -1q39 0 67.5 28.5t28.5 67.5 t-27.5 67t-68.5 30q-35 2 -72 -5q-55 -2 -63 58q-2 14 -3 75.5t-1 172.5v663v90q0 41 2 70q2 33 24 123q20 82 19 98q-12 78 -74 88q-33 0 -88 -6t-78 -6q-33 0 -96 6q-66 6 -72 6q-39 0 -67.5 -28.5t-28.5 -67.5zM152 1905h63l109 73l79 56q55 41 49 69.5t-40 44.5 q-37 12 -162 -131z" />
<glyph unicode="&#xce;" horiz-adv-x="706" d="M61 1843h89l235 248l240 -248h82l-246 373h-150zM86 1532q0 -39 27.5 -66.5t68.5 -29.5q37 -2 74 4q53 4 63 -58q2 -16 3.5 -77.5t1.5 -171.5v-662q0 -41 -1 -81t-4 -79q-4 -31 -24 -123q-18 -86 -16 -98q14 -80 71 -88q16 0 38 1t50.5 3t48 3t29.5 1q14 0 40 -1t60 -3 q31 -2 47.5 -3t20.5 -1q39 0 67.5 28.5t28.5 67.5t-27.5 67t-68.5 30q-35 2 -72 -5q-55 -2 -63 58q-2 14 -3 75.5t-1 172.5v663v90q0 41 2 70q2 33 24 123q20 82 19 98q-12 78 -74 88q-33 0 -88 -6t-78 -6q-33 0 -96 6q-66 6 -72 6q-39 0 -67.5 -28.5t-28.5 -67.5z" />
<glyph unicode="&#xcf;" horiz-adv-x="706" d="M61 1942q12 -63 70 -97q61 -23 105 4q59 35 65 99q4 59 -47 98q-53 39 -104 25q-92 -31 -89 -129zM86 1532q0 -39 27.5 -66.5t68.5 -29.5q37 -2 74 4q53 4 63 -58q2 -16 3.5 -77.5t1.5 -171.5v-662q0 -41 -1 -81t-4 -79q-4 -31 -24 -123q-18 -86 -16 -98q14 -80 71 -88 q16 0 38 1t50.5 3t48 3t29.5 1q14 0 40 -1t60 -3q31 -2 47.5 -3t20.5 -1q39 0 67.5 28.5t28.5 67.5t-27.5 67t-68.5 30q-35 2 -72 -5q-55 -2 -63 58q-2 14 -3 75.5t-1 172.5v663v90q0 41 2 70q2 33 24 123q20 82 19 98q-12 78 -74 88q-33 0 -88 -6t-78 -6q-33 0 -96 6 q-66 6 -72 6q-39 0 -67.5 -28.5t-28.5 -67.5zM479 1952q0 -45 29 -80q49 -45 113 -31q94 20 94 117q0 25 -12.5 49.5t-34 40.5t-50 23.5t-63.5 -0.5q-76 -27 -76 -119z" />
<glyph unicode="&#xd1;" horiz-adv-x="1681" d="M139 1542q-4 -41 19.5 -74.5t62.5 -33.5q80 0 76 2q29 -12 35 -43q2 -10 3 -37t-1 -74l-15 -924q0 -4 -1 -19t-3 -44t-2 -51v-43q0 -205 82 -199q20 -2 47 4q16 2 44 3t63 1q6 0 21.5 -2t34 -3t38 -3t33.5 -2q43 -2 73.5 24.5t32.5 67.5q2 43 -25.5 74t-68.5 31 q-33 0 -54.5 -3.5t-27.5 -3.5q-35 6 -41 35q-8 25 -10 133q-2 39 -2 129q0 92 -2 236q0 156 1 240t3 94q0 35 23 51q160 -219 310 -433t296 -425q162 -227 198 -244q14 -6 31 -6q35 0 64 25q37 37 39 118v160l-5 856q0 49 7 146q2 14 3 34.5t5 49.5q6 51 6 79q0 80 -47 134 q-20 27 -64 26q-16 0 -51 -5t-55 -5q-12 0 -30.5 1t-45.5 3q-53 6 -65 6q-39 0 -68 -30.5t-29 -71.5q0 -39 28 -66.5t69 -25.5q35 2 53 2h24q37 -4 43 -74q2 -14 2 -78v-178v-459q0 -63 2 -53q-2 -35 -24 -39q-25 -2 -66 51l-503 731q-139 201 -170 238q-43 53 -76 53 q-8 0 -43 -6t-68 -6q-4 0 -27.5 2l-70.5 6q-41 4 -74 -19.5t-37 -62.5zM545 1851h63q35 78 54 91q41 35 110 8q25 -10 123 -62q63 -33 111 -33q31 0 65 13q113 41 152 235h-60q-10 -23 -18 -42t-15 -33q-47 -47 -106 -35q-51 8 -137 59q-72 41 -121 41q-31 0 -55 -8 q-115 -35 -166 -234z" />
<glyph unicode="&#xd2;" horiz-adv-x="1857" d="M115 821q-4 -344 256 -594q258 -246 610 -250q348 -2 618 242q266 242 267 586q0 375 -260 616q-247 228 -607 232q-348 2 -616 -244q-264 -242 -268 -588zM358 819q0 266 193 451q186 178 444 178q252 0 441 -184q186 -184 186 -455q0 -279 -192 -459 q-180 -168 -445 -168q-252 0 -440 183q-187 184 -187 454zM510 2167q-10 -43 80 -115q4 -4 36.5 -25.5t92.5 -62.5l168 -115h90l-158 189q-43 51 -70.5 82.5t-39.5 44.5q-70 70 -119 69q-66 0 -80 -67z" />
<glyph unicode="&#xd3;" horiz-adv-x="1857" d="M123 821q-4 -344 258 -594q258 -246 610 -250q350 -2 617 242q266 242 266 586q0 375 -260 616q-246 228 -606 232q-348 2 -617 -244q-264 -242 -268 -588zM367 819q0 266 192 451q186 178 445 178q252 0 440 -184q186 -184 186 -455q0 -279 -192 -459 q-180 -168 -445 -168q-252 0 -440 183q-186 184 -186 454zM991 1845h94l168 117q33 23 64 44.5t63 43.5q84 66 78 107q-10 51 -61 71q-47 14 -144 -82q-8 -8 -34.5 -38.5t-73.5 -84.5z" />
<glyph unicode="&#xd4;" horiz-adv-x="1857" d="M115 821q-4 -344 256 -594q258 -246 610 -250q348 -2 618 242q266 242 267 586q0 248 -144 465q-127 195 -336 321q-198 117 -391 121q-184 0 -393 -129t-340 -326q-145 -215 -147 -436zM358 819q0 266 193 451q186 178 444 178q252 0 441 -184q186 -184 186 -455 q0 -279 -192 -459q-180 -168 -445 -168q-252 0 -440 183q-187 184 -187 454zM662 1835h88l235 246l242 -246h80l-246 373h-150z" />
<glyph unicode="&#xd5;" horiz-adv-x="1857" d="M115 821q-4 -344 256 -594q258 -246 610 -250q348 -2 618 242q266 242 267 586q0 375 -260 616q-247 228 -607 232q-348 2 -616 -244q-264 -242 -268 -588zM358 819q0 266 193 451q186 178 444 178q252 0 441 -184q186 -184 186 -455q0 -279 -192 -459 q-180 -168 -445 -168q-252 0 -440 183q-187 184 -187 454zM727 1837h64q35 78 53 90q41 35 110 8q25 -10 123 -61q63 -33 111 -33q31 0 65 12q113 41 152 238h-57q-10 -23 -19.5 -42t-15.5 -34q-41 -49 -107 -37q-55 8 -137 60q-72 41 -119 41q-31 0 -57 -8 q-115 -35 -166 -234z" />
<glyph unicode="&#xd6;" horiz-adv-x="1857" d="M115 821q-4 -344 256 -594q258 -246 610 -250q348 -2 618 242q266 242 267 586q0 375 -260 616q-247 228 -607 232q-348 2 -616 -244q-264 -242 -268 -588zM358 819q0 266 193 451q186 178 444 178q252 0 441 -184q186 -184 186 -455q0 -279 -192 -459 q-180 -168 -445 -168q-252 0 -440 183q-187 184 -187 454zM662 1956q14 -63 71 -96q57 -23 103 4q59 35 65 98t-49 100q-41 39 -102 23q-92 -33 -88 -129zM1077 1964q0 -45 31 -78q51 -49 113 -33q74 18 90 91q14 68 -39 118q-47 43 -117 23q-78 -29 -78 -121z" />
<glyph unicode="&#xd9;" horiz-adv-x="1439" d="M86 1532q0 -41 28.5 -71.5t67.5 -26.5q55 6 82 2q61 -12 62 -174q0 29 -7 -205l-14 -588q-8 -319 170 -430q94 -57 213 -57q127 0 305 73q25 12 41 -4q82 -53 135 -51q41 4 72 6t53 2q23 0 61 -4t64 -4q94 2 105 86q4 41 -19.5 72.5t-62.5 38.5q-10 2 -23.5 1t-32.5 -3 q-47 -6 -63 4q-49 27 -61 155q-2 14 -2 60v123q-4 543 0 841q0 20 3 63.5t3 63.5q0 123 -92 123q-8 0 -76 -6q-35 -2 -61.5 -3t-49.5 -1q-18 0 -37.5 2t-37 3t-30.5 3l-12 2q-39 0 -68.5 -28.5t-29.5 -67.5q0 -41 27.5 -70.5t66.5 -27.5q41 2 62 2h22q51 -4 66 -21 q8 -10 8 -47v-647q0 -164 -16 -252q-33 -172 -144 -231q-55 -31 -121 -31q-211 0 -196 432l28 739q0 6 1.5 21.5t3.5 40.5q2 18 2 33v26q0 129 -95 129q-8 0 -75 -6q-33 -2 -59.5 -3t-49.5 -1q-35 0 -75 5t-44 5q-37 0 -67.5 -28.5t-30.5 -67.5zM340 2167q-10 -43 80 -115 q8 -6 40 -27.5t87 -60.5l168 -115h90l-158 189q-43 51 -70.5 82.5t-39.5 44.5q-70 70 -119 69q-66 0 -78 -67z" />
<glyph unicode="&#xda;" horiz-adv-x="1439" d="M86 1532q0 -41 28.5 -71.5t67.5 -26.5q55 6 82 2q61 -12 62 -174q0 29 -7 -205l-14 -588q-8 -319 170 -430q94 -57 213 -57q127 0 305 73q25 12 41 -4q82 -53 135 -51q41 4 72 6t53 2q23 0 61 -4t64 -4q94 2 105 86q4 41 -19.5 72.5t-62.5 38.5q-10 2 -23.5 1t-32.5 -3 q-47 -6 -63 4q-49 27 -61 155q-2 14 -2 60v123v841q0 20 2 63.5t2 63.5q0 123 -90 123q-8 0 -76 -6q-35 -2 -61.5 -3t-49.5 -1q-18 0 -37.5 2t-37 3t-30.5 3l-12 2q-39 0 -68.5 -28.5t-29.5 -67.5q0 -41 27.5 -70.5t66.5 -27.5q33 2 55.5 4t28.5 2q47 0 64 -23q8 -10 8 -49 l2 -647q0 -164 -16 -252q-33 -172 -144 -231q-55 -31 -121 -31q-211 0 -196 432l28 739q0 6 1.5 21.5t3.5 40.5q2 18 2 33v26q0 129 -95 129q-8 0 -75 -6q-33 -2 -59.5 -3t-49.5 -1q-35 0 -75 5t-44 5q-37 0 -67.5 -28.5t-30.5 -67.5zM700 1845h97l168 117q33 23 64.5 44.5 t64.5 43.5q86 66 75 107q-10 51 -61 71q-47 14 -143 -82q-8 -4 -109 -123z" />
<glyph unicode="&#xdb;" horiz-adv-x="1439" d="M92 1532q0 -41 29 -71.5t67 -26.5q55 6 82 2q61 -12 62 -174q0 29 -6 -205l-15 -588q-8 -317 168 -430q94 -57 213 -57q125 0 307 73q25 12 41 -4q80 -53 136 -51q41 4 70.5 6t51.5 2q25 0 63 -4t64 -4q94 2 105 86q4 41 -19.5 72.5t-62.5 38.5q-10 2 -23.5 1t-33.5 -3 q-45 -6 -62 4q-49 27 -61 155q-2 14 -2 60v123v841q0 20 2 61.5t2 59.5q0 129 -92 129q-8 0 -76 -6q-33 -2 -59.5 -3t-49.5 -1q-35 0 -74.5 5t-44.5 5q-37 0 -67.5 -28.5t-30.5 -67.5q0 -41 29 -70.5t67 -27.5q41 2 62 2h22q49 -2 59.5 -17.5t10.5 -50.5l4 -647 q2 -84 -2 -146.5t-14 -107.5q-35 -170 -144 -229q-55 -31 -120 -31q-211 0 -197 432l29 739q0 6 1 21.5t3 40.5q2 18 2 33v26q0 129 -94 129q-8 0 -76 -6q-35 -2 -61.5 -3t-47.5 -1q-18 0 -38.5 2t-38 3t-30.5 3l-12 2q-39 0 -68.5 -28.5t-29.5 -67.5zM354 1843h86l236 248 l242 -248h81l-247 373h-148z" />
<glyph unicode="&#xdc;" horiz-adv-x="1439" d="M98 1532q0 -41 28 -71.5t69 -26.5q53 6 79 2q63 -14 64 -179q0 29 -6 -200l-15 -588q-8 -317 168 -430q94 -57 213 -57q127 0 306 73q20 12 43 -4q80 -53 135 -51q41 4 70.5 6t52.5 2q25 0 62.5 -4t64.5 -4q92 2 102 86q4 41 -18.5 72.5t-61.5 38.5q-10 2 -23.5 1 t-33.5 -3q-47 -6 -64 4q-47 31 -59 155q-2 16 -2 62v121v841q0 20 2 61.5t2 59.5q0 129 -92 129q-8 0 -76 -6q-35 -2 -61.5 -3t-47.5 -1q-18 0 -38.5 2t-38 3t-29.5 3l-12 2q-39 0 -69 -28.5t-30 -67.5q0 -41 29 -70.5t68 -27.5q41 2 61 2h23q47 -4 61 -21q8 -10 8 -47 l2 -647q0 -86 -4 -148.5t-12 -103.5q-33 -172 -144 -231q-55 -31 -120 -31q-209 0 -195 432l27 739q0 8 1 24.5t3 39.5q2 20 2 35v26q0 125 -92 125q-8 0 -76 -6q-35 -2 -61.5 -3t-49.5 -1q-16 0 -35.5 2t-37 3t-29.5 3t-14 2q-39 0 -69 -28.5t-30 -67.5zM426 1948 q12 -63 70 -97q57 -23 104 2q63 37 66 99q4 61 -48 100q-49 39 -104 25q-92 -33 -88 -129zM842 1956q0 -43 30 -80q53 -47 113 -31q76 23 90 90q16 68 -41 119q-46 41 -114 23q-78 -29 -78 -121z" />
<glyph unicode="&#xdd;" horiz-adv-x="1427" d="M84 1526q0 -39 28.5 -65.5t69.5 -26.5q4 0 19.5 1t38.5 3q20 2 32.5 3t18.5 -1q59 -10 59 -228q0 16 -3 -47t-11 -211l-25 -522q-6 -117 31 -219q47 -131 143 -188q82 -49 193 -50q156 0 332 99l20 -15q0 -104 -8 -151q-14 -94 -72 -94q-8 0 -55 8q-29 4 -51.5 6t-38.5 2 q-45 0 -79 -28.5t-36 -73.5t29 -78t76 -37q6 -2 28.5 1t61.5 7q45 4 73.5 7t45.5 3h38q25 0 56 -2q39 -2 57 0q25 4 45 19q72 49 72 166q0 18 -2 49t-2 41v1370v131q0 49 -2 63q-8 150 -58 150h-69q-25 -2 -47 -2h-43q-4 0 -47.5 2t-122.5 6q-41 2 -72 -22.5t-33 -63.5 q-2 -41 23.5 -71.5t64.5 -32.5q84 -4 115 6q47 0 59 -148q2 -16 2 -61v-115v-350q0 -190 -14 -262q-35 -182 -145 -252q-66 -41 -152 -41q-123 0 -160 149q-16 72 -12 248l14 658q0 2 1 14t1 29q0 16 1 34.5t1 30.5q0 178 -81 234q-14 10 -56 14q-27 2 -69 0l-40.5 -3 t-15.5 -1q-6 0 -67 6q-49 2 -68 0q-39 0 -65.5 -28.5t-26.5 -69.5zM657 1845h95l168 117q33 23 63.5 44.5t63.5 43.5q84 66 77 107q-10 51 -61 71q-47 14 -143 -82q-8 -8 -35 -38.5t-74 -84.5z" />
<glyph unicode="&#xdf;" horiz-adv-x="1132" d="M55 -258q0 -31 19.5 -55.5t48.5 -24.5q18 0 53 4t53 4q20 0 62.5 -4t62.5 -4q123 0 123 174l2 998q29 0 71 -1.5t95 -3.5t94 -3t70 -1q84 0 84 -41q0 -43 -88 -82q-43 -18 -85 -36.5t-83 -34.5q-90 -49 -90 -119q0 -121 2 -123q39 -51 76 -65q115 -49 137 -64l137 -76 q51 -27 51 -86q0 -33 -53 -32q-25 0 -102.5 26.5t-124.5 26.5q-139 0 -140 -133q0 -74 35 -74l9 4l30 12q37 14 68 15q43 0 112 -21q74 -20 113 -20q78 0 160 57q90 66 90 139q0 102 -117 193q-39 29 -83 57.5t-93 54.5l-66 35q-37 27 -40 58q-2 45 135 82q27 8 57.5 22 t65.5 37q74 45 98 86q8 14 12 43q2 18 0 49q-2 20 -2 31v16q0 74 -57 119q-45 39 -344 45q-4 0 -31 1t-80 3t-84 3t-41 1v371q0 84 60 84q23 0 66.5 -5t66.5 -5q31 0 52 21.5t21 51.5q0 29 -22.5 50.5t-50.5 21.5q-12 0 -30.5 -1t-39 -3t-39 -3t-31.5 -1q-12 0 -29.5 2 t-37 4t-36.5 4t-28 2q-135 0 -135 -172v-426q0 -27 -20 -26q-68 0 -94 -11q-49 -16 -50 -73q0 -33 25 -56.5t57 -23.5q51 0 62 -6q20 -8 20 -54v-893q0 -86 -61 -86q-12 0 -37 6.5t-37 6.5q-29 0 -51.5 -21.5t-22.5 -50.5z" />
<glyph unicode="&#xe0;" horiz-adv-x="954" d="M113 330q0 -150 77 -238q104 -115 297 -115q33 0 77 2.5t81 14.5q4 2 23.5 9t54.5 22q18 8 45 -2q55 -23 109 -23q57 0 86 20q41 29 41 66q6 55 -48 72q-51 18 -53 20q-23 12 -22 37v500q0 57 -1 92t-3 49q-12 102 -72 137q-10 6 -213 6q-185 0 -197 -4q-76 -33 -76 -106 q0 -88 91 -94q20 -2 46.5 1t59.5 7q63 12 80 12q18 0 29 -6q51 -31 51 -293q0 -63 -1 -103t-3 -59q-12 -111 -60.5 -149.5t-109.5 -38.5q-57 0 -104.5 43t-57.5 100q-14 78 39 131q35 33 74 35q-16 -2 1 -3t68 -1q88 0 101 78q12 76 -37 98q-35 18 -99 21q-68 2 -110 -11 q-264 -80 -264 -327zM205 1509q-10 -43 80 -114q10 -8 41.5 -31t85.5 -57l170 -115h88l-156 188q-80 98 -121 136q-76 74 -127 61q-53 -18 -61 -68z" />
<glyph unicode="&#xe1;" horiz-adv-x="954" d="M113 330q0 -150 77 -238q104 -115 297 -115q33 0 77 2.5t81 14.5q4 2 23.5 9t54.5 22q18 8 45 -2q55 -23 109 -23q57 0 86 20q41 29 41 66q6 55 -48 72q-51 18 -53 20q-23 12 -22 37v500q0 57 -1 92t-3 49q-12 102 -72 137q-10 6 -213 6q-185 0 -197 -4q-76 -33 -76 -106 q0 -88 91 -94q20 -2 46.5 1t59.5 7q63 12 80 12q18 0 29 -6q51 -31 51 -293q0 -63 -1 -103t-3 -59q-12 -111 -60.5 -149.5t-109.5 -38.5q-57 0 -104.5 43t-57.5 100q-14 78 39 131q35 33 74 35q-16 -2 1 -3t68 -1q88 0 101 78q12 76 -37 98q-35 18 -99 21q-68 2 -110 -11 q-264 -80 -264 -327zM449 1190h92l172 115q57 39 89 60t40 28q82 63 76 108q-10 55 -62 70q-47 16 -143 -80q-27 -33 -53.5 -63.5t-55.5 -61.5z" />
<glyph unicode="&#xe2;" horiz-adv-x="954" d="M113 330q0 -150 77 -238q104 -115 297 -115q33 0 77 2.5t81 14.5q4 2 23.5 9t54.5 22q18 8 45 -2q55 -23 109 -23q57 0 86 20q41 29 41 66q6 55 -48 72q-51 18 -53 20q-23 12 -22 37v500q0 57 -1 92t-3 49q-12 102 -72 137q-10 6 -213 6q-185 0 -197 -4q-76 -33 -76 -106 q0 -88 91 -94q20 -2 46.5 1t59.5 7q63 12 80 12q18 0 29 -6q51 -31 51 -293q0 -63 -1 -103t-3 -59q-12 -111 -60.5 -149.5t-109.5 -38.5q-57 0 -104.5 43t-57.5 100q-14 78 39 131q35 33 74 35q-16 -2 1 -3t68 -1q88 0 101 78q12 76 -37 98q-35 18 -99 21q-68 2 -110 -11 q-264 -80 -264 -327zM188 1186h86l236 248l242 -248h82l-248 375h-148z" />
<glyph unicode="&#xe3;" horiz-adv-x="954" d="M113 330q0 -150 77 -238q104 -115 297 -115q33 0 77 2.5t81 14.5q4 2 23.5 9t54.5 22q18 8 45 -2q55 -23 109 -23q57 0 86 20q41 29 41 66q6 55 -48 72q-51 18 -53 20q-23 12 -22 37v500q0 57 -1 92t-3 49q-12 102 -72 137q-10 6 -213 6q-185 0 -197 -4q-76 -33 -76 -106 q0 -88 91 -94q20 -2 46.5 1t59.5 7q63 12 80 12q18 0 29 -6q51 -31 51 -293q0 -63 -1 -103t-3 -59q-12 -111 -60.5 -149.5t-109.5 -38.5q-57 0 -104.5 43t-57.5 100q-14 78 39 131q35 33 74 35q-16 -2 1 -3t68 -1q88 0 101 78q12 76 -37 98q-35 18 -99 21q-68 2 -110 -11 q-264 -80 -264 -327zM203 1182h63q31 72 53 90q45 35 111 8q27 -10 123 -61q63 -33 111 -33q31 0 65 12q113 41 152 236h-60q-29 -70 -33 -76q-45 -49 -106 -37q-53 8 -139 59q-72 41 -119 41q-31 0 -57 -8q-113 -35 -164 -231z" />
<glyph unicode="&#xe4;" horiz-adv-x="954" d="M113 330q0 -150 77 -238q104 -115 297 -115q33 0 77 2.5t81 14.5q4 2 23.5 9t54.5 22q18 8 45 -2q55 -23 109 -23q57 0 86 20q41 29 41 66q6 55 -48 72q-51 18 -53 20q-23 12 -22 37v500q0 57 -1 92t-3 49q-12 102 -72 137q-10 6 -213 6q-185 0 -197 -4q-76 -33 -76 -106 q0 -88 91 -94q20 -2 46.5 1t59.5 7q63 12 80 12q18 0 29 -6q51 -31 51 -293q0 -63 -1 -103t-3 -59q-12 -111 -60.5 -149.5t-109.5 -38.5q-57 0 -104.5 43t-57.5 100q-14 78 39 131q35 33 74 35q-16 -2 1 -3t68 -1q88 0 101 78q12 76 -37 98q-35 18 -99 21q-68 2 -110 -11 q-264 -80 -264 -327zM197 1284q14 -70 69 -94q57 -27 105 2q57 33 63 98q4 59 -47 99q-53 42 -104 24q-90 -35 -86 -129zM612 1296q0 -43 31 -82q51 -47 111 -30q76 20 90 90q2 8 3 14t1 15q0 47 -45 90t-113 20q-33 -10 -55.5 -45t-22.5 -72z" />
<glyph unicode="&#xe5;" horiz-adv-x="954" d="M113 330q0 -150 77 -238q104 -115 297 -115q33 0 77 2.5t81 14.5q4 2 23.5 9t54.5 22q18 8 45 -2q55 -23 109 -23q57 0 86 20q41 29 41 66q6 55 -48 72q-51 18 -53 20q-23 12 -22 37v500q0 57 -1 92t-3 49q-12 102 -72 137q-10 6 -213 6q-185 0 -197 -4q-76 -33 -76 -106 q0 -88 91 -94q20 -2 46.5 1t59.5 7q63 12 80 12q18 0 29 -6q51 -31 51 -293q0 -63 -1 -103t-3 -59q-12 -111 -60.5 -149.5t-109.5 -38.5q-57 0 -104.5 43t-57.5 100q-14 78 39 131q35 33 74 35q-16 -2 1 -3t68 -1q88 0 101 78q12 76 -37 98q-35 18 -99 21q-68 2 -110 -11 q-264 -80 -264 -327zM301 1436q0 -117 80 -199q82 -84 197 -86q117 -2 200 78q84 82 88 196.5t-80 200.5q-81 84 -196 88q-117 2 -203 -80q-86 -84 -86 -198zM412 1434q2 70 53 119t121 49t119 -52.5t49 -122.5q0 -35 -14.5 -65.5t-38 -53t-54.5 -34.5t-65 -12 q-72 2 -122 52t-48 120z" />
<glyph unicode="&#xe6;" horiz-adv-x="1691" d="M117 332q0 -152 80 -240q109 -115 297 -115q33 0 76.5 2.5t80.5 14.5q4 2 23.5 9t54.5 22q18 8 45 -2q55 -23 109 -23q57 0 86 20h2q123 -47 270 -47q117 0 191 27q244 90 288 256q8 33 3 60.5t-19 45t-34.5 25.5t-39.5 6q-37 -6 -51 -26q-8 -14 -16.5 -26.5t-16.5 -25.5 q-49 -61 -90 -88q-90 -59 -223 -59q-74 0 -121 20q-199 82 -199 295q0 162 93.5 260.5t283.5 98.5q96 0 135 -33q47 -41 48 -74q-1 -16 -13 -18q-59 -18 -125 -19q-37 0 -100 7q-61 6 -88 6q-123 0 -148 -78q-16 -55 9 -88q31 -39 108 -39q16 0 40 2t54 6q57 8 104.5 12 t86.5 4h162q78 6 118 43q51 47 29 152q-39 186 -231 266q-90 39 -222 39q-238 0 -387 -119q-18 53 -59 82q-18 10 -78 8q-127 -6 -135 -6q-10 0 -41 1t-82 3q-55 2 -74 -4q-80 -31 -79 -104q0 -90 94 -96q20 -2 46.5 1t59.5 7q63 12 80 12q18 0 29 -6q51 -31 51 -293 q0 -59 -1 -100t-3 -62q-14 -111 -60.5 -149.5t-107.5 -38.5q-31 0 -49 8q-49 18 -84 64.5t-35 97.5q0 63 43 104q35 33 74 35q-16 -2 1 -3t68 -1q88 0 101 78q12 74 -37 98q-16 8 -41 13.5t-59 7.5q-63 2 -111 -11q-264 -80 -264 -325z" />
<glyph unicode="&#xe7;" horiz-adv-x="1015" d="M113 528q0 -313 192 -450q106 -78 258 -92l-137 -226l59 -47q70 16 103 17q104 0 104 -99q0 -41 -47 -71q-27 -14 -76 -15q-90 0 -213 47l-51 -108q156 -68 320 -68q123 0 194 45q115 72 115 183q0 98 -68.5 152t-160.5 54q-45 0 -93 -8l80 140q80 0 160 32 q172 70 201 205q0 86 -27 107q-23 16 -76 16q-78 -66 -123 -117q-59 -57 -127 -57q-190 0 -280 102q-78 90 -78 230q0 61 14 106q74 238 312 238q111 0 149 -39q14 -10 41 -98q27 -84 45 -103q16 -14 76 -14q59 23 59 76q0 12 -3 32.5t-8 42t-8 42t-3 34.5q0 123 -23 146 q-72 63 -424 63q-80 0 -174 -49q-66 -35 -119 -85t-92 -116q-72 -121 -71 -248z" />
<glyph unicode="&#xe8;" horiz-adv-x="1120" d="M106 528q-8 -309 199 -458q133 -94 357 -95q117 0 190 27q244 88 291 256q18 66 -15 104q-39 39 -75.5 33t-51.5 -26q-8 -14 -16 -26.5t-16 -25.5q-47 -59 -90 -88q-90 -59 -224 -59q-74 0 -123 20q-199 82 -198 293q0 162 94 261.5t285 99.5q96 0 135 -33q45 -39 45 -74 q0 -16 -12 -18q-59 -18 -127 -19q-35 0 -99 7q-61 6 -88 6q-123 0 -147 -78q-16 -53 12.5 -90t106.5 -37q16 0 39.5 2t52.5 6q57 8 104 12t86 4h162q82 6 119 42t37 96q0 31 -9 57q-45 190 -229 266q-90 39 -221 39q-207 0 -346 -90q-219 -145 -228 -414zM313 1509 q-8 -43 82 -114q6 -4 38 -26.5t89 -61.5l168 -115h90l-157 188q-45 53 -75 87t-44 49q-76 74 -127 61q-55 -18 -64 -68z" />
<glyph unicode="&#xe9;" horiz-adv-x="1120" d="M106 528q-8 -309 199 -458q133 -94 357 -95q117 0 190 27q244 88 291 256q18 66 -15 104q-39 39 -75.5 33t-51.5 -26q-8 -14 -16 -26.5t-16 -25.5q-47 -59 -90 -88q-90 -59 -224 -59q-74 0 -123 20q-199 82 -198 293q0 162 94 261.5t285 99.5q96 0 135 -33q45 -39 45 -74 q0 -16 -12 -18q-59 -18 -127 -19q-35 0 -99 7q-61 6 -88 6q-123 0 -147 -78q-16 -53 12.5 -90t106.5 -37q16 0 39.5 2t52.5 6q57 8 104 12t86 4h162q82 6 119 42t37 96q0 31 -9 57q-45 190 -229 266q-90 39 -221 39q-207 0 -346 -90q-219 -145 -228 -414zM516 1190h96 l168 115q63 41 94 63.5t33 24.5q84 66 78 108q-4 27 -26.5 49.5t-49.5 22.5q-47 0 -137 -90q-4 -4 -29.5 -33t-72.5 -84z" />
<glyph unicode="&#xea;" horiz-adv-x="1120" d="M106 528q-8 -309 199 -458q133 -94 357 -95q117 0 190 27q244 88 291 256q18 66 -15 104q-39 39 -75.5 33t-51.5 -26q-8 -14 -16 -26.5t-16 -25.5q-47 -59 -90 -88q-90 -59 -224 -59q-74 0 -123 20q-199 82 -198 293q0 162 94 261.5t285 99.5q96 0 135 -33q45 -39 45 -74 q0 -16 -12 -18q-59 -18 -127 -19q-35 0 -99 7q-61 6 -88 6q-123 0 -147 -78q-16 -53 12.5 -90t106.5 -37q16 0 39.5 2t52.5 6q57 8 104 12t86 4h162q82 6 119 42t37 96q0 31 -9 57q-45 190 -229 266q-90 39 -221 39q-207 0 -346 -90q-219 -145 -228 -414zM281 1186h86 l237 248l240 -248h82l-246 375h-150z" />
<glyph unicode="&#xeb;" horiz-adv-x="1120" d="M119 528q-8 -309 198 -458q133 -94 357 -95q117 0 190 27q244 90 289 256q8 33 3 60.5t-19.5 45t-35 25.5t-38.5 6q-37 -6 -51 -26q-8 -14 -16.5 -26.5t-16.5 -25.5q-49 -61 -90 -88q-90 -59 -223 -59q-74 0 -121 20q-199 82 -199 295q0 162 93 260.5t284 98.5 q96 0 135 -33q47 -41 47 -74q0 -16 -12 -18q-59 -18 -125 -19q-37 0 -100 7q-61 6 -88 6q-123 0 -148 -78q-16 -55 8 -88q31 -39 109 -39q16 0 39.5 2t54.5 6q57 8 104.5 12t86.5 4h161q78 6 119 43q51 47 29 152q-39 186 -232 266q-90 39 -221 39q-207 0 -346 -90 q-215 -139 -225 -414zM326 1284q14 -70 69 -94q57 -27 105 2q57 37 63 98q4 59 -47 99q-53 42 -104 24q-90 -35 -86 -129zM741 1294q0 -45 31 -82q51 -45 113 -30q39 10 65.5 44t26.5 74q0 47 -45 90.5t-113 20.5q-33 -10 -55.5 -45t-22.5 -72z" />
<glyph unicode="&#xec;" horiz-adv-x="516" d="M-18 1509q-10 -43 79 -114q6 -4 38 -25.5t89 -62.5l168 -115h90l-157 188q-45 53 -75 87t-44 49q-76 74 -127 61q-53 -18 -61 -68zM92 932q0 -33 22.5 -56.5t53.5 -23.5q51 0 61 -37q6 -24 4 -133q-2 -205 -2 -315q0 -111 -2 -131q-6 -129 -6 -125q0 -109 68 -111 q27 0 61.5 4t63.5 4q33 0 62 -4l30 -4q31 0 54.5 19.5t23.5 50.5q0 33 -20.5 56.5t-51.5 23.5q-51 0 -59 38q-6 20 -6 136v333v109q6 123 6 129q0 102 -68 106q-14 2 -27.5 1t-29.5 -3q-37 -6 -66 -6q-35 0 -64 4l-28 4q-80 0 -80 -69z" />
<glyph unicode="&#xed;" horiz-adv-x="516" d="M86 932q0 -33 22.5 -56.5t53.5 -23.5q51 0 61 -37q2 -10 3 -43t1 -90v-313q0 -111 -2 -133q-6 -139 -6 -130q0 -104 68 -106q25 0 58.5 4t64.5 4q33 0 62 -4l30 -4q80 0 80 70q0 33 -21.5 56.5t-52.5 23.5q-51 0 -59 38q-6 20 -7 136v333v109q4 57 6.5 89t2.5 40 q0 104 -70 106q-25 2 -58.5 -3t-64.5 -5q-33 0 -62 4l-30 4q-80 0 -80 -69zM92 1190h96l168 115q63 41 94 63.5t33 24.5q84 66 78 108q-10 55 -61 70q-47 16 -144 -80q-27 -33 -53.5 -63.5t-54.5 -61.5z" />
<glyph unicode="&#xee;" horiz-adv-x="516" d="M-41 1186h86l236 248l241 -248h82l-248 375h-149zM92 932q0 -33 22.5 -56.5t53.5 -23.5q51 0 61 -37q6 -24 4 -133q-2 -205 -2 -315q0 -111 -2 -131q-6 -129 -6 -125q0 -109 68 -111q27 0 61.5 4t63.5 4q33 0 62 -4l30 -4q31 0 54.5 19.5t23.5 50.5q0 33 -20.5 56.5 t-51.5 23.5q-51 0 -59 38q-6 20 -6 136v333v109q6 123 6 129q0 102 -68 106q-14 2 -27.5 1t-29.5 -3q-37 -6 -66 -6q-35 0 -64 4l-28 4q-80 0 -80 -69z" />
<glyph unicode="&#xef;" horiz-adv-x="516" d="M-31 1282q16 -66 68 -96q57 -23 102 4q63 35 66 98q2 31 -10.5 56.5t-35 43t-50 23.5t-56.5 0q-92 -35 -84 -129zM104 932q0 -33 21.5 -56.5t54.5 -23.5q49 0 60 -37q2 -10 3 -43t1 -90v-313q0 -111 -2 -133q-6 -139 -6 -130q0 -104 67 -106q27 0 60.5 4t62.5 4 q35 0 64 -4l28 -4q80 0 80 70q0 33 -21.5 56.5t-52.5 23.5q-51 0 -59 38q-2 10 -3 44t-1 92v333v109q4 53 6 84t2 41q0 109 -70 110q-27 2 -61.5 -3t-63.5 -5q-33 0 -62 4l-30 4q-78 0 -78 -69zM381 1292q0 -47 31 -80q51 -45 112 -30q76 23 90 90q16 68 -39 117 q-44 45 -114 22q-35 -10 -57.5 -46t-22.5 -73z" />
<glyph unicode="&#xf1;" horiz-adv-x="1032" d="M86 911q0 -55 49 -63q20 -4 33.5 -5t21.5 -3q29 -4 33 -45q2 -10 2 -213v-367q0 -27 -2 -69t-2 -56q0 -90 66 -90q23 0 56.5 4t66.5 4q39 0 76 -4l36 -4q55 0 56 74q0 33 -24 55.5t-52 22.5q-51 14 -60 47v125v333q0 135 117 177q74 25 131 -9q45 -25 53 -161 q2 -16 2 -62v-119v-268q0 -25 -2 -64.5t-2 -56.5q0 -94 68 -94q23 0 56.5 4t66.5 4q39 0 76 -4l36 -4q51 0 56 74q4 59 -76 78q-49 12 -57 45q-2 6 -2 127v186v174t-2 80q-10 131 -54 176q-57 57 -157 76q-113 20 -213 -12q-10 -4 -24.5 -11.5t-30 -15.5t-28 -14.5 t-18.5 -6.5q-10 0 -37 31q-25 14 -36 12q-25 -6 -105 -6q-33 0 -67.5 4t-40.5 4q-66 0 -66 -90zM219 1182h64q33 72 53 90q45 35 110 8q25 -10 123 -61q63 -33 111 -33q31 0 65 12q113 41 152 236h-57q-10 -23 -19.5 -42.5t-15.5 -33.5q-43 -49 -107 -37q-51 8 -137 59 q-72 41 -119 41q-31 0 -57 -8q-115 -35 -166 -231z" />
<glyph unicode="&#xf2;" horiz-adv-x="1155" d="M109 508q0 -217 157 -375q160 -154 379 -153q221 0 379 149q162 150 162 367q0 229 -156 378q-158 152 -377 152q-223 0 -381 -145q-164 -152 -163 -373zM252 1509q-10 -43 80 -114q4 -4 36.5 -25.5t92.5 -62.5l168 -115h90l-158 188q-45 53 -74.5 87t-44.5 49 q-78 74 -129 61q-53 -18 -61 -68zM326 506q0 129 96 219q98 92 229 92t226 -94q94 -92 94 -223q0 -129 -99 -221q-96 -90 -227 -91q-131 0 -225 94.5t-94 223.5z" />
<glyph unicode="&#xf3;" horiz-adv-x="1155" d="M123 508q0 -217 158 -375q160 -154 378 -153q221 0 379 149q162 150 162 367q0 229 -156 378q-157 152 -376 152q-223 0 -381 -145q-164 -152 -164 -373zM340 506q0 129 96 219q98 92 230 92q131 0 225 -94q94 -92 94 -223q0 -129 -98 -221q-96 -90 -228 -91 q-131 0 -225 94.5t-94 223.5zM621 1190h94l170 115q59 41 91 62.5t36 25.5q84 66 78 108q-10 55 -64 70q-47 16 -143 -80q-2 -4 -29 -35t-80 -90z" />
<glyph unicode="&#xf4;" horiz-adv-x="1155" d="M123 508q0 -217 158 -375q160 -154 378 -153q221 0 379 149q162 150 162 367q0 229 -156 378q-157 152 -376 152q-223 0 -381 -145q-164 -152 -164 -373zM311 1186h88l236 248l239 -248h82l-245 375h-150zM340 506q0 129 96 219q98 92 230 92q131 0 225 -94 q94 -92 94 -223q0 -129 -98 -221q-96 -90 -228 -91q-131 0 -225 94.5t-94 223.5z" />
<glyph unicode="&#xf5;" horiz-adv-x="1155" d="M115 508q0 -217 157 -375q160 -154 379 -153q221 0 379 149q162 150 162 367q0 229 -156 378q-158 152 -377 152q-223 0 -380 -145q-164 -152 -164 -373zM332 506q0 129 96 219q98 92 229 92q129 0 224 -94q96 -96 96 -223q0 -129 -98 -221q-96 -90 -228 -91 q-131 0 -225 94.5t-94 223.5zM332 1182h63q31 72 54 90q45 35 110 8q27 -10 123 -61q63 -33 111 -33q31 0 65 12q113 41 152 236h-60q-29 -70 -32 -76q-43 -49 -107 -37q-53 8 -139 59q-72 41 -119 41q-31 0 -57 -8q-113 -35 -164 -231z" />
<glyph unicode="&#xf6;" horiz-adv-x="1155" d="M115 508q0 -217 157 -375q160 -154 379 -153q221 0 379 149q162 150 162 367q0 229 -156 378q-158 152 -377 152q-223 0 -380 -145q-164 -152 -164 -373zM326 1284q14 -70 69 -94q57 -27 105 2q57 37 63 98q4 59 -47 99q-53 42 -104 24q-90 -35 -86 -129zM332 506 q0 129 96 219q98 92 229 92q129 0 224 -94q96 -96 96 -223q0 -129 -98 -221q-96 -90 -228 -91q-131 0 -225 94.5t-94 223.5zM741 1296q0 -43 31 -82q53 -47 113 -30q74 20 88 90q2 8 3 14t1 15q0 47 -45 90t-113 20q-33 -10 -55.5 -45t-22.5 -72z" />
<glyph unicode="&#xf9;" horiz-adv-x="1024" d="M92 1509q-10 -43 80 -114q4 -4 37 -25.5t92 -62.5l168 -115h90l-158 188q-45 53 -74.5 87t-43.5 49q-78 74 -129 61q-53 -18 -62 -68zM96 924q0 -29 22.5 -51.5t53.5 -22.5q41 -8 51 -37q6 -18 6 -100v-332q0 -137 11 -188q25 -102 118 -164q70 -45 170 -45q127 0 252 63 q74 -45 99 -47q14 0 37.5 3t31.5 3q-10 0 74 -6q29 -2 49.5 20.5t20.5 53.5q0 76 -70 76q-29 0 -41 4q-23 18 -23 90v618v111q-6 27 -57 26q-25 0 -58.5 -4t-66.5 -4q2 0 -21.5 2t-74.5 6q-29 2 -50.5 -21.5t-21.5 -53.5q0 -29 23.5 -51.5t52.5 -22.5q47 -10 64.5 -38 t17.5 -99v-389q0 -53 -33 -99q-33 -49 -90 -65q-31 -8 -84 -8q-74 4 -96 47q-16 37 -17 110v553v111q-8 27 -59 26q-25 0 -57.5 -4t-65.5 -4q2 0 -22.5 2t-75.5 6q-29 2 -49.5 -21.5t-20.5 -53.5z" />
<glyph unicode="&#xfa;" horiz-adv-x="1024" d="M100 924q0 -29 23.5 -51.5t52.5 -22.5q20 -6 32.5 -13.5t18.5 -21.5t7.5 -38.5t1.5 -63.5v-332q0 -137 10 -188q25 -102 119 -164q70 -45 170 -45q127 0 251 63q74 -45 99 -47q14 0 37.5 3t31.5 3q-12 0 72 -6q31 -2 51.5 19.5t20.5 54.5q0 76 -72 76q-31 0 -39 4 q-23 18 -22 90v618v111q-6 27 -60 26q-23 0 -56.5 -4t-66.5 -4q2 0 -22.5 2t-75.5 6q-29 2 -49.5 -21.5t-20.5 -53.5q0 -29 24 -51.5t52 -22.5q47 -10 64.5 -38t17.5 -99v-389q0 -53 -33 -99q-33 -49 -92 -65q-31 -8 -84 -8q-74 4 -94 49q-16 33 -16 108v553v111 q-8 27 -60 26q-25 0 -57.5 -4t-65.5 -4q2 0 -22.5 2t-75.5 6q-29 2 -50.5 -21.5t-21.5 -53.5zM518 1190h96l168 115q33 23 65 44t64 44q84 66 76 108q-10 55 -61 70q-47 16 -144 -80q-27 -33 -53.5 -63.5t-54.5 -61.5z" />
<glyph unicode="&#xfb;" horiz-adv-x="1024" d="M100 924q0 -29 23.5 -51.5t52.5 -22.5q20 -6 32.5 -13.5t18.5 -21.5t7.5 -38.5t1.5 -63.5v-332q0 -137 10 -188q25 -102 119 -164q70 -45 170 -45q127 0 251 63q74 -45 99 -47q14 0 37.5 3t31.5 3q-12 0 72 -6q31 -2 51.5 19.5t20.5 54.5q0 76 -72 76q-31 0 -39 4 q-23 18 -22 90v618v111q-6 27 -60 26q-23 0 -56.5 -4t-66.5 -4q2 0 -22.5 2t-75.5 6q-29 2 -49.5 -21.5t-20.5 -53.5q0 -29 24 -51.5t52 -22.5q47 -10 64.5 -38t17.5 -99v-389q0 -53 -33 -99q-33 -49 -92 -65q-31 -8 -84 -8q-74 4 -94 49q-16 33 -16 108v553v111 q-8 27 -60 26q-25 0 -57.5 -4t-65.5 -4q2 0 -22.5 2t-75.5 6q-29 2 -50.5 -21.5t-21.5 -53.5zM207 1186h88l235 248l242 -248h80l-246 375h-149z" />
<glyph unicode="&#xfc;" horiz-adv-x="1024" d="M100 924q0 -29 23.5 -51.5t52.5 -22.5q20 -6 32.5 -13.5t18.5 -21.5t7.5 -38.5t1.5 -63.5v-332q0 -137 10 -188q25 -102 119 -164q70 -45 170 -45q127 0 251 63q74 -45 99 -47q14 0 37.5 3t31.5 3q-12 0 72 -6q31 -2 51.5 19.5t20.5 54.5q0 76 -72 76q-31 0 -39 4 q-23 18 -22 90v618v111q-6 27 -60 26q-23 0 -56.5 -4t-66.5 -4q2 0 -22.5 2t-75.5 6q-29 2 -49.5 -21.5t-20.5 -53.5q0 -29 24 -51.5t52 -22.5q47 -10 64.5 -38t17.5 -99v-389q0 -53 -33 -99q-33 -49 -92 -65q-31 -8 -84 -8q-74 4 -94 49q-16 33 -16 108v553v111 q-8 27 -60 26q-25 0 -57.5 -4t-65.5 -4q2 0 -22.5 2t-75.5 6q-29 2 -50.5 -21.5t-21.5 -53.5zM225 1284q14 -70 70 -94q57 -27 104 2q61 39 64 98q2 61 -49 101q-54 40 -103 22q-96 -35 -86 -129zM639 1294q0 -41 31 -80q53 -47 112 -30q76 20 90 90l3.5 14t1.5 15 q0 51 -46 90q-44 43 -112 20q-33 -10 -56.5 -46t-23.5 -73z" />
<glyph unicode="&#xfd;" horiz-adv-x="1026" d="M90 928q-4 -27 14.5 -50.5t45.5 -27.5q66 -4 65 -59v-455q0 -123 14 -172q27 -86 111 -141q70 -43 164 -43q106 -1 260 65q27 -6 24 -98q-2 -35 -3 -60.5t-5 -42.5q-8 -43 -27.5 -58t-72.5 -19h-62t-59 2q-80 -2 -115.5 -36t-25.5 -75q12 -51 69 -72q16 -6 209 17 q84 10 134.5 20t70.5 21q70 37 70 147v868v154q-6 119 -45 158q-31 31 -97 30l-10 -1t-23.5 -2t-27.5 -2t-27 -1q-12 0 -28.5 1t-29.5 2t-21 2l-9 1q-68 -10 -75 -47q-16 -47 12 -69q29 -29 63 -31q57 0 90 -27q35 -29 35 -211q0 -47 -3 -101t-7 -114q-14 -174 -137 -229 q-37 -16 -74 -16q-39 0 -70 18q-55 33 -55 336v311q0 180 -100 180q-10 0 -43 -3t-51 -3q-33 0 -88 6q-33 -2 -48 -26q-2 -4 -5 -15.5t-7 -31.5zM516 1190h96l168 115q63 41 94 63.5t33 24.5q84 66 78 108q-4 27 -26.5 49.5t-49.5 22.5q-47 0 -137 -90q-4 -4 -29.5 -33 t-72.5 -84z" />
<glyph unicode="&#xff;" horiz-adv-x="1017" d="M82 928q-4 -27 13.5 -50.5t43.5 -27.5q68 -4 68 -59v-455q0 -123 14 -172q27 -86 111 -141q70 -43 164 -43q108 -1 258 65q31 -6 26 -98q-2 -41 -4 -66.5t-4 -36.5q-8 -43 -28.5 -58t-73.5 -19q10 2 -19 2h-92q-86 0 -123 -35t-26 -76q12 -51 69 -72q16 -6 209 17 q84 10 134 20t71 21q70 37 70 147v868v154q-6 119 -45 158q-31 31 -97 30l-10 -1t-23.5 -2t-28 -2t-26.5 -1q-37 0 -88 6q-68 -10 -76 -47q-16 -47 13 -69q29 -29 63 -31q57 0 90 -27q35 -29 35 -211q0 -47 -3 -101t-7 -114q-14 -174 -137 -229q-39 -16 -74 -16 q-39 0 -70 18q-55 33 -55 336v311q0 180 -100 180q-10 0 -43 -3t-52 -3q-12 0 -28.5 1t-30.5 2t-22 2l-9 1q-33 -2 -45 -26q-10 -16 -12 -47zM203 1284q14 -70 69 -94q57 -27 105 2q61 39 63 98q2 61 -49 101q-53 40 -102 22q-96 -35 -86 -129zM616 1294q0 -41 31 -80 q53 -47 113 -30q76 20 90 90q2 8 3 14t1 15q0 51 -45 90q-47 40 -113 20q-33 -10 -56.5 -46t-23.5 -73z" />
<glyph unicode="&#x152;" horiz-adv-x="2736" d="M121 821q-4 -344 256 -594q258 -246 610 -250q373 -4 641 263q6 -152 49 -199q43 -43 252 -39q135 6 213 6q35 0 87 -2t118 -6q229 -8 287 14q61 27 61 162q0 6 -1 27.5t-3 60.5q0 -4 6 125q2 39 -23.5 67.5t-62.5 30.5q-39 2 -68.5 -24.5t-29.5 -61.5v-43q0 -70 -6 -94 q-12 -41 -53 -45l-447 -4q-90 0 -116.5 32t-26.5 118v329q4 29 6 55.5t2 55.5v31q12 37 65 36h289q29 0 39 -18q2 -2 14 -49l7 -23q25 -90 98 -86q37 2 61.5 31t24.5 68q-4 37 -6 65.5t-4 50.5l-6 99l-3 34q-23 59 -180 54q-29 -4 -55.5 -6t-52.5 -5q-53 -4 -96.5 -7 t-75.5 -3q-100 0 -114.5 18.5t-12.5 241.5q-2 43 30 58q8 2 74 18q53 10 225 4q176 -6 240 -22q12 -4 18.5 -40t10.5 -71q18 -90 98 -86q39 2 64.5 30.5t21.5 67.5q-12 82 -25 148q-2 57 -4 89t-4 36q-23 59 -221 59h-35q-18 0 -39 -2q-25 -2 -37 -2h-14q-231 -6 -364 -6 q-33 0 -84.5 1t-120.5 3q-139 6 -156 6q-39 0 -71.5 -22.5t-38.5 -59.5q-195 102 -428 107q-348 2 -617 -244q-262 -242 -266 -588zM365 819q0 266 192 451q186 178 444 178q252 0 441 -184q186 -184 186 -455q0 -279 -192 -459q-180 -168 -445 -168q-252 0 -440 183 q-186 184 -186 454z" />
<glyph unicode="&#x153;" horiz-adv-x="1978" d="M115 508q0 -217 157 -375q160 -154 379 -153q256 0 420 190q39 -61 100 -102q133 -94 357 -95q117 0 190 27q244 90 289 256q8 33 3 60.5t-19.5 45t-35 25.5t-38.5 6q-37 -6 -51 -26q-8 -14 -16.5 -26.5t-16.5 -25.5q-49 -61 -90 -88q-90 -59 -223 -59q-74 0 -121 20 q-199 82 -199 295q0 162 93 260.5t284 98.5q96 0 135 -33q47 -41 47 -74q0 -16 -12 -18q-59 -18 -125 -19q-37 0 -100 7q-61 6 -88 6q-123 0 -148 -78q-16 -55 8 -88q31 -39 109 -39q16 0 39.5 2t54.5 6q57 8 104.5 12t86.5 4h161q78 6 119 43q51 47 29 152 q-39 186 -232 266q-90 39 -221 39q-207 0 -346 -90q-72 -45 -123 -109q-158 195 -416 195q-223 0 -380 -145q-164 -152 -164 -373zM332 506q0 129 96 219q98 92 229 92q117 0 207 -80q92 -78 109 -192v-19v-34q0 -17 2 -33q-16 -117 -111 -193q-94 -78 -213 -78 q-131 0 -225 94.5t-94 223.5z" />
<glyph unicode="&#x178;" horiz-adv-x="1427" d="M74 1530q0 -39 28.5 -67.5t69.5 -28.5q16 0 32.5 1t37.5 3q35 4 39 2q57 -8 57 -232q0 18 -12 -254l-25 -522q-6 -117 31 -219q47 -131 143 -188q82 -49 191 -50q158 0 333 99l19 -15q0 -160 -19 -196q-25 -49 -59 -49q-8 0 -55 8q-29 4 -51.5 6t-38.5 2q-45 0 -79 -28.5 t-36 -73.5t27.5 -78t74.5 -37q6 -2 30 1t65 7t70.5 7t45.5 3h39t53 -2q41 -4 60 0q23 2 45 19q72 49 72 170q0 18 -2.5 47t-2.5 39v1370v133q0 49 -2 63q-10 152 -57 152q-23 0 -71 -2t-89 -2q-10 0 -32.5 1t-57.5 3q-72 6 -82 6q-41 0 -70.5 -24.5t-31.5 -63.5 q-2 -41 22.5 -72.5t63.5 -33.5q86 -4 115 6q47 0 59 -148q2 -16 2 -61v-115v-350q0 -188 -12 -262q-35 -182 -148 -252q-66 -41 -151 -41q-172 0 -172 309q0 -4 0 19t2 69l14 658v12t2 31q2 16 2 30v27q0 184 -84 244q-16 10 -55 14q-27 2 -70 0q-27 -2 -41 -2h-12 q-4 0 -21.5 1t-46.5 3q-25 2 -41 3t-26 -1q-39 0 -65.5 -28.5t-26.5 -69.5zM406 1948q12 -63 69 -97q57 -23 105 2q63 37 65 99q4 61 -47 100q-49 39 -104 25q-92 -33 -88 -129zM821 1956q0 -43 31 -80q53 -47 113 -31q76 23 90 90q16 68 -41 119q-47 41 -115 23 q-78 -29 -78 -121z" />
<glyph unicode="&#x2c6;" horiz-adv-x="954" d="M188 1186h86l236 248l242 -248h82l-248 375h-148z" />
<glyph unicode="&#x2dc;" horiz-adv-x="954" d="M203 1182h63q31 72 53 90q45 35 111 8q27 -10 123 -61q63 -33 111 -33q31 0 65 12q113 41 152 236h-60q-29 -70 -33 -76q-45 -49 -106 -37q-53 8 -139 59q-72 41 -119 41q-31 0 -57 -8q-113 -35 -164 -231z" />
<glyph unicode="&#x2000;" horiz-adv-x="1186" />
<glyph unicode="&#x2001;" horiz-adv-x="2372" />
<glyph unicode="&#x2002;" horiz-adv-x="1186" />
<glyph unicode="&#x2003;" horiz-adv-x="2372" />
<glyph unicode="&#x2004;" horiz-adv-x="790" />
<glyph unicode="&#x2005;" horiz-adv-x="593" />
<glyph unicode="&#x2006;" horiz-adv-x="395" />
<glyph unicode="&#x2007;" horiz-adv-x="395" />
<glyph unicode="&#x2008;" horiz-adv-x="296" />
<glyph unicode="&#x2009;" horiz-adv-x="474" />
<glyph unicode="&#x200a;" horiz-adv-x="131" />
<glyph unicode="&#x2010;" horiz-adv-x="813" d="M131 487q-2 -63 68 -77q49 -10 75 22q20 20 31 80q8 39 37 43q59 -4 109.5 -7t95.5 -3q115 0 149 18q72 41 72 142q0 174 -49 204q-37 23 -76 9q-33 -10 -40 -44t-11 -69q0 -45 -27 -53q-12 -6 -57 -2q-92 8 -137 11t-47 3q-121 0 -162 -41q-27 -27 -29 -123 q-2 -29 -2 -57v-56z" />
<glyph unicode="&#x2011;" horiz-adv-x="813" d="M131 487q-2 -63 68 -77q49 -10 75 22q20 20 31 80q8 39 37 43q59 -4 109.5 -7t95.5 -3q115 0 149 18q72 41 72 142q0 174 -49 204q-37 23 -76 9q-33 -10 -40 -44t-11 -69q0 -45 -27 -53q-12 -6 -57 -2q-92 8 -137 11t-47 3q-121 0 -162 -41q-27 -27 -29 -123 q-2 -29 -2 -57v-56z" />
<glyph unicode="&#x2012;" horiz-adv-x="813" d="M131 487q-2 -63 68 -77q49 -10 75 22q20 20 31 80q8 39 37 43q59 -4 109.5 -7t95.5 -3q115 0 149 18q72 41 72 142q0 174 -49 204q-37 23 -76 9q-33 -10 -40 -44t-11 -69q0 -45 -27 -53q-12 -6 -57 -2q-92 8 -137 11t-47 3q-121 0 -162 -41q-27 -27 -29 -123 q-2 -29 -2 -57v-56z" />
<glyph unicode="&#x2013;" horiz-adv-x="1683" d="M131 487q-2 -63 68 -77q49 -10 75 22q20 20 31 80q8 39 37 43q57 -4 232.5 -7t474.5 -3q397 0 432 18q74 39 73 142q0 174 -51 204q-37 23 -76 9q-33 -8 -43 -46q-4 -16 -6 -67q-4 -45 -26 -53q-8 -2 -21.5 -3t-36.5 1q-92 8 -243.5 11t-364.5 3q-483 0 -524 -41 q-27 -27 -29 -123q-2 -29 -2 -57v-56z" />
<glyph unicode="&#x2014;" horiz-adv-x="2011" d="M131 487q-2 -63 68 -77q49 -10 75 22q20 20 31 80q8 39 37 43q59 -4 288.5 -7t635.5 -3q518 0 553 18q72 41 71 142q0 174 -49 204q-37 23 -76 9q-33 -10 -40 -44t-11 -69q0 -45 -26 -53q-12 -6 -58 -2q-92 8 -287.5 11t-500.5 3q-639 0 -680 -41q-27 -27 -29 -123 q-2 -29 -2 -57v-56z" />
<glyph unicode="&#x2018;" horiz-adv-x="438" d="M115 1499q6 -47 10 -84t6 -63l4 -74t17 -66q18 -35 67 -34q47 0 64 65v115q0 30 12 53q25 37 37 59.5t12 47.5q0 82 -78 118q-39 20 -94 -4q-70 -31 -57 -133z" />
<glyph unicode="&#x2019;" horiz-adv-x="438" d="M78 1522q0 -27 12 -52q23 -43 37 -59q12 -29 12 -53q-4 -12 -4 -51q0 -43 4 -64q18 -66 64 -65q51 0 67 34q14 29 16.5 66t4.5 74q12 100 18 147q4 106 -59 133q-53 22 -92 4q-80 -37 -80 -114z" />
<glyph unicode="&#x201a;" horiz-adv-x="438" d="M78 55q0 -27 12 -51q20 -37 37 -57q12 -29 12 -53q-4 -12 -4 -52q0 -43 4 -63q18 -66 64 -66q51 0 67 35q14 29 16.5 65.5t4.5 73.5q6 51 10 87t8 59q4 106 -59 133q-53 22 -92 4q-80 -37 -80 -115z" />
<glyph unicode="&#x201c;" horiz-adv-x="698" d="M59 1495q8 -47 11.5 -84t3.5 -61q4 -104 22 -142q14 -33 66 -32q41 0 63 61q16 49 0 115q1 28 11 53q49 74 49 111q0 80 -78 116q-37 16 -94 -2q-63 -33 -54 -135zM395 1495q8 -47 11.5 -84t5.5 -61q6 -111 22 -144q18 -31 68 -30q39 0 61 61q2 10 3 26.5t1 39.5 q0 41 -4 49q0 31 15 53q20 38 36 61q10 25 11 47q0 84 -78 119q-37 16 -94 -2q-57 -27 -58 -135z" />
<glyph unicode="&#x201d;" horiz-adv-x="704" d="M59 1518q0 -23 9.5 -43.5t21.5 -40t21.5 -39t9.5 -39.5q-16 -66 0 -117q20 -61 61 -61q49 0 68 34q16 29 18 66q2 10 2 29q0 18 2 45q4 51 7.5 88t7.5 59q8 100 -54 133q-55 20 -96 4q-78 -37 -78 -118zM397 1518q0 -29 16.5 -56.5t35.5 -52.5q12 -31 12 -53 q-4 -12 -4 -51q-2 -45 4 -66q20 -61 61 -61q49 0 68 34q14 27 16 65t2 75q4 51 8.5 88t8.5 59q12 102 -56 133q-55 24 -94 4q-78 -37 -78 -118z" />
<glyph unicode="&#x201e;" horiz-adv-x="704" d="M59 51q0 -23 9.5 -42t21.5 -38.5t21.5 -39t9.5 -40.5q-16 -66 0 -116q20 -61 61 -62q49 0 68 35q16 29 18 66q2 10 2 28t2 45q4 51 7.5 87t7.5 59q8 100 -54 133q-55 20 -96 4q-78 -37 -78 -119zM397 51q0 -29 16.5 -55.5t35.5 -50.5q12 -31 12 -54q-4 -12 -4 -51 q-2 -45 4 -65q20 -61 61 -62q49 0 68 35q14 27 16 64.5t2 74.5q4 51 8.5 87t8.5 59q12 102 -56 133q-55 24 -94 4q-78 -37 -78 -119z" />
<glyph unicode="&#x2022;" horiz-adv-x="452" d="M82 827q0 -43 15.5 -82.5t43 -69.5t65.5 -48.5t81 -18.5t83 14.5t70.5 42t49 65.5t18.5 81q2 88 -59 154q-58 63 -146 67q-88 2 -156 -57q-61 -57 -65 -148z" />
<glyph unicode="&#x2026;" horiz-adv-x="1007" d="M215 115q0 -55 38 -95t91 -40q55 0 95 34.5t40 89.5t-36 96.5t-89 41.5q-57 0 -98 -37t-41 -90zM551 115q0 -55 38 -95t91 -40q55 0 95 34.5t40 89.5t-36 96.5t-89 41.5q-57 0 -98 -37t-41 -90zM887 115q0 -55 38 -95t91 -40q55 0 95 34.5t40 89.5t-36 96.5t-89 41.5 q-57 0 -98 -37t-41 -90z" />
<glyph unicode="&#x202f;" horiz-adv-x="474" />
<glyph unicode="&#x2039;" horiz-adv-x="425" d="M27 502l10 -27l67 -90q16 -25 48 -78l22 -41q8 -18 19 -24l26 -6l76 4q6 0 30.5 -4.5t28.5 -4.5q29 0 27 21q-4 14 -19 31q-162 168 -161 223q0 86 149 211q33 27 33 39q-4 23 -29 22q-2 0 -10 -1t-24.5 -3t-24.5 -3t-12 -1t-14.5 1t-21.5 3t-21.5 3t-12.5 1 q-23 -4 -86 -121l-55 -82q-45 -66 -45 -73z" />
<glyph unicode="&#x203a;" horiz-adv-x="423" d="M41 758q0 -14 33 -41q150 -125 149 -211q0 -66 -157 -217q-23 -23 -23 -33q2 -25 31 -25l51 9l80 -4q27 -2 45 30l22 41q29 53 47 78l68 90l10 27l-47 76q-45 72 -53 79q-70 117 -86 121q-2 0 -12.5 -1t-21.5 -3t-21.5 -3t-14.5 -1q-2 0 -11 1t-20.5 3t-21.5 3t-12 1 q-33 0 -35 -20z" />
<glyph unicode="&#x205f;" horiz-adv-x="593" />
<glyph unicode="&#x2122;" horiz-adv-x="2109" d="M68 1425q4 -14 6 -22t4 -12q18 -43 47 -43q45 0 43 45v53q0 45 35 51h162q27 0 26 -59v-510v-92q0 -20 -2 2q2 -63 35 -93q12 -10 33 -12q14 -4 43 0q16 2 27.5 3t15.5 1q6 0 36.5 -2t47.5 -2q53 0 53 55q0 54 -55 54q-10 0 -25.5 -3t-24.5 -3q-49 8 -49 198v365 q0 70 17.5 88t64.5 18h162q70 0 90 33q8 14 12 64q2 43 -8 61q-23 37 -49 37q-47 -4 -53 -72h-461q-190 0 -217 -31q-45 -47 -16 -172zM903 1575q-2 -57 49 -57q29 -4 33 0q41 0 39 -76l-12 -484q0 -2 -1 -12t-3 -33q-2 -20 -2 -39v-30q0 -115 49 -115q14 0 48 4t54 4t54 -4 t44 -4q53 2 52 59q-2 55 -60 54q-55 -6 -67 -4q-25 4 -31 65q-2 8 -2 37v82v182q0 115 12 158q23 88 92 127q57 33 111 0q68 -39 63 -240l-6 -291q0 -2 -1 -15t-2 -30.5t-2 -37t-1 -33.5q0 -113 49 -113q14 0 48 4t55 4q12 0 27.5 -1t29.5 -3t25.5 -3t15.5 -1q55 0 51 59 q-2 57 -59 54q-55 -6 -68 -4q-35 4 -33 184l5 180q4 242 96 293q57 33 100 6q70 -39 64 -262l-9 -281q0 -2 -1 -12t-3 -33q-2 -20 -3 -37.5t-1 -31.5q0 -117 51 -115q4 0 14.5 1t30.5 3q16 2 31 3t27 1q10 0 25.5 -1t31 -3t26.5 -3t15 -1q55 0 51 59q-4 55 -61 54 q-35 -2 -52 -3l-16 -1q-34 2 -30 184l6 319q4 102 -13 150q-23 92 -104 131q-37 16 -76 16q-98 0 -219 -77q-16 -10 -31 2q-53 47 -98 63t-111 8q-63 -10 -112 -45q-23 -16 -39 4q-23 29 -39 29h-57q-23 0 -35 -2q10 0 -4.5 1t-50.5 3q-57 2 -60 -49z" />
<glyph unicode="&#xe000;" horiz-adv-x="1003" d="M0 0v1004h1004v-1004h-1004z" />
</font>
</defs>
</svg>
